<svg width="959" height="609" viewBox="0 0 959 609" fill="none" xmlns="http://www.w3.org/2000/svg">
<mask id="mask0_8_146" style="mask-type:luminance" maskUnits="userSpaceOnUse" x="0" y="0" width="959" height="609">
<path d="M959 0H0V609H959V0Z" fill="white"/>
</mask>
<g mask="url(#mask0_8_146)">
<path d="M-1.00916 76.5403C-1.00916 76.5403 39.6052 33.9348 89.7985 41.0515C139.992 48.1682 163.939 119.146 237.984 90.7738C312.028 62.4017 309.729 6.8912 381.475 6.8912C453.221 6.8912 434.063 57.6572 481.862 74.2629C529.66 90.8686 520.081 36.4019 577.459 38.7742C634.836 41.1464 680.24 100.358 773.442 69.5184C866.645 38.6793 926.417 -58.6776 1007.65 -21.7655C1088.87 15.0517 1136.67 100.358 1253.82 83.7519C1370.97 67.1462 1392.43 -3.54666 1454.6 6.9861C1516.76 17.5189 1516.76 55.3798 1564.56 62.4966C1612.36 69.6133 1605.18 3.85472 1657.76 -7.0576C1710.35 -17.9699 1748.57 67.2411 1801.16 74.3578C1853.75 81.4745 1896.76 -7.0576 1896.76 -7.0576" stroke="url(#paint0_linear_8_146)" stroke-miterlimit="10"/>
<path d="M-1.00916 120.284C-1.00916 120.284 37.019 79.5768 84.4344 84.7008C131.658 89.8249 154.839 154.16 224.861 126.832C294.691 99.5985 294.116 47.6938 362.317 47.6938C427.358 47.6938 421.802 92.9562 458.01 113.452C462.895 116.204 468.355 118.576 474.582 120.284C521.422 133.095 520.464 84.7957 563.665 77.5841C568.359 76.825 573.34 76.3505 578.608 76.4454C594.126 76.6352 607.632 80.8103 624.012 86.1242C649.013 94.2847 671.715 100.168 701.314 107.285C729.092 114.022 753.231 124.839 790.014 113.737C879.097 86.8833 935.613 -6.67799 1012.53 25.0152C1089.45 56.7084 1135.52 132.905 1245.97 117.058C1271.26 113.452 1292.04 107.474 1309.67 100.358C1368.77 76.6352 1391.85 40.0078 1437.35 48.2632C1495.69 58.8908 1496.65 94.5694 1541.76 101.971C1586.88 109.372 1581.13 49.4018 1630.66 40.1026C1680.56 30.8034 1717.34 111.175 1767.82 116.868C1787.84 119.146 1803.84 106.336 1820.6 97.7956C1838.13 88.876 1854.32 81.6644 1869.27 68.0002C1887.46 51.2997 1896.66 31.4677 1896.66 31.4677" stroke="url(#paint1_linear_8_146)" stroke-miterlimit="10"/>
<path d="M-1.00916 164.029C-1.00916 164.029 34.4327 125.124 78.9744 128.35C123.133 131.576 145.739 189.08 211.546 162.89C277.065 136.89 278.406 88.4964 343.16 88.4964C410.212 88.4015 406.189 139.832 448.815 160.138C454.466 162.795 460.501 164.978 467.302 166.306C517.303 176.649 519.507 124.08 563.378 115.92C568.742 114.876 574.106 114.306 579.662 114.211C596.712 113.927 610.314 118.387 629.568 123.7C657.825 131.576 681.39 131.766 714.437 140.116C745.855 148.087 766.737 168.963 806.585 157.956C891.263 134.613 944.904 45.2267 1017.42 71.8907C1090.12 98.3649 1134.28 165.547 1238.21 150.459C1262.06 146.948 1281.89 141.635 1298.84 135.182C1354.78 114.212 1377.2 81.1899 1420.3 89.6351C1474.9 100.358 1476.82 133.854 1519.16 141.54C1561.5 149.226 1557.28 94.9489 1603.83 87.4526C1651.06 79.7665 1686.4 154.824 1734.78 159.569C1759.68 161.941 1777.4 142.204 1798.09 134.708C1819.55 126.927 1839.95 126.357 1860.93 112.029C1885.17 95.3284 1896.76 70.3725 1896.76 70.3725" stroke="url(#paint2_linear_8_146)" stroke-miterlimit="10"/>
<path d="M-1.00916 207.773C-1.00916 207.773 31.8464 170.766 73.6102 172.094C114.799 173.328 136.735 224.189 198.423 199.043C259.632 174.277 262.889 129.489 324.098 129.394C393.257 129.299 390.671 186.897 439.81 206.919C446.228 209.575 452.933 211.378 460.213 212.517C513.472 220.488 518.836 163.459 563.378 154.35C569.413 153.116 575.16 152.357 581.003 152.072C599.49 151.313 613.284 156.058 635.507 161.466C667.117 169.152 691.447 163.554 728.039 173.138C763.097 182.247 780.627 213.276 823.54 202.459C903.715 182.152 954.387 97.6056 1022.59 119.051C1090.89 140.496 1133.42 198.473 1230.64 184.145C1253.15 180.824 1272.02 175.985 1288.31 170.386C1341.09 152.072 1362.93 122.846 1403.44 131.386C1454.21 142.109 1457.09 173.423 1496.65 181.488C1536.21 189.554 1533.43 140.97 1577.01 135.087C1621.65 129.014 1655.56 198.568 1701.83 202.554C1731.62 205.116 1750.97 178.452 1775.68 171.904C1801.06 165.167 1825.59 171.335 1852.69 156.247C1882.87 139.452 1896.95 109.467 1896.95 109.467" stroke="url(#paint3_linear_8_146)" stroke-miterlimit="10"/>
<path d="M-1.00916 251.517C-1.00916 251.517 29.1643 216.408 68.1503 215.744C106.274 215.079 127.635 259.108 185.204 235.101C242.103 211.474 247.275 170.291 304.94 170.196C376.111 170.007 375.057 233.868 430.615 253.51C437.799 256.072 445.175 257.685 452.838 258.539C509.257 264.232 517.782 202.554 562.995 192.685C569.604 191.262 575.83 190.218 581.961 189.839C601.981 188.605 615.87 193.634 640.967 199.043C675.834 206.634 700.93 195.247 741.066 205.875C779.764 216.218 793.845 257.21 839.92 246.583C915.497 229.123 963.487 149.416 1027.28 165.737C1091.27 182.058 1131.98 230.926 1222.6 217.452C1243.67 214.32 1261.58 210.05 1277.2 205.116C1326.72 189.459 1347.98 163.934 1386.01 172.664C1433.04 183.481 1436.87 212.612 1473.66 220.868C1510.54 229.218 1509.2 186.423 1549.71 182.153C1591.67 177.788 1624.24 241.554 1668.3 244.97C1702.98 247.627 1724.05 214.036 1752.69 208.532C1782 202.839 1810.64 215.649 1843.98 199.897C1880.09 182.912 1896.66 147.992 1896.66 147.992" stroke="url(#paint4_linear_8_146)" stroke-miterlimit="10"/>
<path d="M-1.00916 295.261C-1.00916 295.261 26.578 262.05 62.6903 259.393C97.8448 256.831 118.535 294.028 171.985 271.159C224.669 248.765 231.662 211.094 285.782 210.999C359.061 210.809 359.348 280.838 421.419 300.195C429.369 302.662 437.32 304.086 445.558 304.56C505.138 307.881 516.825 241.648 562.803 230.926C570.083 229.218 576.692 228.079 583.206 227.51C604.759 225.802 618.744 231.211 646.714 236.619C684.934 244.021 710.797 226.846 754.381 238.707C796.815 250.283 807.352 301.239 856.587 290.801C927.471 275.809 972.779 201.415 1032.26 212.612C1091.94 223.809 1130.83 263.568 1214.93 250.853C1234.66 247.816 1251.52 244.21 1266.47 240.035C1312.83 227.035 1333.42 205.211 1369.06 214.13C1412.26 224.948 1417.14 251.991 1451.15 260.531C1485.25 269.166 1485.54 232.159 1522.89 229.597C1562.26 226.846 1593.39 284.918 1635.25 287.765C1674.81 290.422 1697.52 250.094 1730.18 245.444C1763.42 240.794 1796.08 260.152 1835.64 243.926C1877.6 226.656 1896.76 186.802 1896.76 186.802" stroke="url(#paint5_linear_8_146)" stroke-miterlimit="10"/>
<path d="M-1.00916 339.005C-1.00916 339.005 23.8959 307.692 57.3262 303.137C89.4154 298.677 109.531 329.137 158.766 307.312C207.14 286.057 216.048 251.991 266.624 251.991C341.914 251.707 343.734 328.093 412.319 347.071C421.036 349.538 429.657 350.677 438.278 350.867C501.019 351.91 515.867 280.933 562.516 269.451C570.466 267.553 577.459 266.13 584.26 265.466C607.249 263.283 621.426 268.977 652.27 274.385C693.746 281.692 720.471 258.634 767.599 271.728C813.674 284.539 820.762 345.363 873.158 335.305C939.253 322.589 982.07 253.699 1037.05 259.772C1092.51 265.845 1129.58 296.495 1206.98 284.539C1225.28 281.692 1241.18 278.655 1255.45 275.145C1298.46 264.707 1318.58 246.678 1351.72 255.787C1391.18 266.604 1396.93 291.56 1428.25 300.385C1459.67 309.305 1461.4 278.086 1495.69 277.137C1532.38 276.093 1562.17 328.188 1601.82 330.655C1646.27 333.312 1670.6 286.152 1707.29 282.546C1744.45 278.94 1781.24 304.75 1826.93 288.05C1874.72 270.495 1896.47 225.802 1896.47 225.802" stroke="url(#paint6_linear_8_146)" stroke-miterlimit="10"/>
<path d="M-1.00916 382.655C-1.00916 382.655 21.2138 353.334 51.8662 346.691C80.8902 340.429 100.431 363.866 145.548 343.275C189.61 323.159 200.434 292.794 247.563 292.699C324.864 292.414 328.121 374.968 403.219 393.567C412.702 395.939 421.994 396.888 431.094 396.793C496.996 395.56 515.005 319.838 562.42 307.692C570.945 305.509 578.417 303.991 585.505 303.137C610.027 300.48 624.299 306.553 658.017 311.867C702.75 318.984 730.242 290.137 780.914 304.371C830.628 318.414 834.172 388.917 889.826 379.333C951.13 368.801 991.362 305.414 1042.03 306.363C1093.18 307.312 1128.44 328.852 1199.22 317.655C1216.08 314.903 1231.12 312.436 1244.63 309.779C1284.38 301.903 1303.92 287.67 1334.67 296.969C1370.3 307.787 1377.1 330.655 1405.65 339.764C1434.29 348.969 1437.64 321.83 1468.87 324.202C1502.87 326.765 1531.32 371.078 1568.78 373.071C1618.2 375.728 1644.16 321.735 1684.78 319.173C1725.77 316.611 1766.68 348.969 1818.69 331.699C1872.43 313.859 1896.66 264.327 1896.66 264.327" stroke="url(#paint7_linear_8_146)" stroke-miterlimit="10"/>
<path d="M-1.00916 426.399C-1.00916 426.399 18.5317 399.071 46.502 390.341C72.365 382.275 91.4269 398.786 132.424 379.334C172.177 360.45 184.917 333.597 228.501 333.502C307.909 333.122 312.603 422.034 394.215 440.253C404.464 442.53 414.331 443.384 424.005 442.815C493.069 439.304 514.238 358.742 562.324 345.932C571.52 343.465 579.47 341.757 586.75 340.903C612.709 337.772 627.173 344.129 663.764 349.538C711.85 356.56 740.108 321.925 794.229 337.297C847.583 352.48 847.583 432.662 906.493 423.742C963.008 415.107 1000.75 357.509 1046.92 353.429C1093.76 349.253 1127.29 361.684 1191.46 351.246C1206.98 348.684 1220.87 346.691 1233.8 344.794C1270.2 339.385 1289.36 328.947 1317.52 338.531C1349.42 349.348 1357.08 370.129 1382.95 379.523C1408.9 389.107 1413.69 369.56 1441.86 371.647C1473.37 374.02 1500.29 414.253 1535.63 415.866C1589.95 418.333 1617.53 357.699 1662.17 356.18C1707.09 354.662 1752.12 393.472 1810.26 375.728C1869.94 357.604 1896.66 303.232 1896.66 303.232" stroke="url(#paint8_linear_8_146)" stroke-miterlimit="10"/>
<path d="M-1.00916 470.143C-1.00916 470.143 15.8497 444.902 41.0421 433.99C63.8398 424.216 82.327 433.8 119.11 415.391C154.552 397.647 169.207 374.399 209.247 374.304C290.667 373.925 296.798 469.099 384.924 486.938C395.939 489.216 406.476 489.785 416.534 488.931C488.854 483.143 513.089 397.837 561.941 384.268C571.807 381.516 580.141 379.618 587.804 378.669C615.295 374.968 629.855 381.8 669.32 387.114C720.663 394.041 749.783 353.523 807.447 370.129C864.537 386.545 860.898 476.216 923.064 467.96C974.694 461.128 1010.04 409.508 1051.8 400.209C1094.43 390.815 1126.04 394.231 1183.61 384.552C1197.69 382.18 1210.62 380.662 1222.98 379.618C1256.03 376.582 1274.7 370.129 1300.38 379.903C1328.44 390.625 1337.16 409.319 1360.24 419.092C1383.42 428.961 1389.75 415.297 1414.84 418.997C1443.87 423.172 1469.25 457.238 1502.39 458.566C1561.59 460.844 1590.9 393.472 1639.47 392.997C1688.32 392.333 1737.46 437.785 1801.83 419.661C1867.35 401.158 1896.66 341.947 1896.66 341.947" stroke="url(#paint9_linear_8_146)" stroke-miterlimit="10"/>
<path d="M-1.00916 513.887C-1.00916 513.887 13.1676 490.734 35.6779 477.734C55.4104 466.252 73.3229 468.814 105.987 451.544C137.118 435.034 153.69 415.391 190.185 415.202C273.713 414.727 281.28 516.259 375.919 533.624C387.701 535.807 398.813 536.186 409.445 535.047C484.927 527.077 512.322 436.837 561.845 422.698C572.286 419.662 581.099 417.669 589.049 416.53C617.977 412.355 632.729 419.567 675.067 424.88C729.763 431.713 759.649 385.311 820.762 403.056C881.492 420.705 874.308 519.485 939.732 512.274C986.477 507.15 1019.33 461.413 1056.79 447.18C1095.1 432.567 1124.89 427.063 1175.95 418.048C1188.69 415.771 1200.66 415.771 1212.25 414.537C1241.85 411.311 1260.14 411.311 1283.42 421.37C1307.75 431.997 1317.43 448.698 1337.73 458.756C1358.23 468.909 1366.09 461.318 1388.02 466.347C1414.46 472.42 1438.41 500.318 1469.35 501.267C1533.53 503.164 1564.37 429.34 1616.96 429.91C1669.74 430.289 1722.9 482.194 1793.5 463.595C1864.95 444.807 1896.76 380.757 1896.76 380.757" stroke="url(#paint10_linear_8_146)" stroke-miterlimit="10"/>
<path d="M-1.00916 557.631C-1.00916 557.631 10.5813 536.755 30.218 521.383C46.981 508.289 64.2229 503.829 92.768 487.603C119.685 472.325 138.076 456.194 171.027 456.004C256.567 455.53 265.571 563.514 366.724 580.31C379.272 582.397 391.054 582.587 402.166 581.069C480.808 570.821 511.365 475.741 561.654 460.939C572.765 457.712 581.961 455.435 590.199 454.201C620.66 449.457 635.507 457.238 680.719 462.362C738.671 469.194 769.324 416.815 833.981 435.793C898.351 454.676 887.623 562.281 956.303 556.492C998.259 552.982 1028.62 513.318 1061.57 494.055C1095.58 474.223 1123.65 459.705 1168 451.544C1179.3 449.457 1190.22 448.888 1201.23 449.552C1227.58 450.975 1245.39 452.493 1266.08 462.931C1286.68 473.369 1297.22 488.172 1314.84 498.515C1332.56 508.953 1341.95 507.435 1360.91 513.792C1384.77 521.858 1407.28 543.398 1436.01 544.062C1505.08 545.485 1537.64 465.303 1594.16 466.917C1650.87 468.34 1708.15 526.697 1784.88 507.624C1862.18 488.457 1896.56 419.661 1896.56 419.661" stroke="url(#paint11_linear_8_146)" stroke-miterlimit="10"/>
<path d="M-1.00916 601.375C-1.00916 601.375 8.09077 582.682 24.8538 565.033C38.7432 550.325 55.2188 538.748 79.6449 523.661C102.251 509.617 122.558 496.997 152.061 496.807C239.612 496.237 250.149 610.485 357.72 626.996C371.13 629.083 383.487 628.988 394.981 627.185C476.881 614.66 510.407 514.741 561.462 499.369C573.148 495.858 582.823 493.486 591.348 492.062C623.246 486.749 638.285 494.909 686.466 500.128C747.675 506.77 779.19 448.698 847.391 468.814C915.401 488.931 901.033 604.886 973.066 600.901C1010.23 598.813 1038.01 565.317 1066.65 541.025C1096.35 515.88 1122.59 492.442 1160.33 485.041C1170.2 483.048 1180.16 482.953 1190.51 484.471C1213.59 487.982 1230.93 493.486 1249.03 504.398C1265.89 514.551 1277.39 527.551 1292.14 538.179C1307.18 548.996 1318 553.551 1333.9 561.237C1355.07 571.39 1376.14 586.478 1402.77 586.857C1476.72 587.711 1510.92 501.362 1571.46 503.924C1632.09 506.391 1693.4 571.105 1776.45 551.748C1859.69 532.106 1896.56 458.661 1896.56 458.661" stroke="url(#paint12_linear_8_146)" stroke-miterlimit="10"/>
<path d="M-1.00916 645.119C-1.00916 645.119 43.2452 538.274 132.808 537.704C222.466 537.135 234.344 657.55 348.524 673.681C462.608 689.812 502.073 556.018 561.27 537.704C620.468 519.39 627.556 531.157 692.118 537.704C756.679 544.252 788.96 480.296 860.61 501.646C932.26 522.996 914.348 646.638 989.637 645.214C1064.93 643.791 1100.75 498.135 1179.68 519.39C1258.52 540.741 1290.8 629.463 1369.73 629.463C1448.56 629.463 1484.48 537.135 1548.95 540.646C1613.51 544.157 1678.93 615.419 1768.11 595.492C1857.29 575.565 1896.66 497.186 1896.66 497.186" stroke="url(#paint13_linear_8_146)" stroke-miterlimit="10"/>
</g>
<defs>
<linearGradient id="paint0_linear_8_146" x1="947.874" y1="-30" x2="947.874" y2="97.4367" gradientUnits="userSpaceOnUse">
<stop stop-color="#C482E6"/>
<stop offset="1" stop-color="white"/>
</linearGradient>
<linearGradient id="paint1_linear_8_146" x1="947.826" y1="18.5411" x2="947.826" y2="133.566" gradientUnits="userSpaceOnUse">
<stop stop-color="#C482E6"/>
<stop offset="1" stop-color="white"/>
</linearGradient>
<linearGradient id="paint2_linear_8_146" x1="947.874" y1="66.9739" x2="947.874" y2="169.706" gradientUnits="userSpaceOnUse">
<stop stop-color="#C482E6"/>
<stop offset="1" stop-color="white"/>
</linearGradient>
<linearGradient id="paint3_linear_8_146" x1="947.969" y1="109.467" x2="947.969" y2="213.279" gradientUnits="userSpaceOnUse">
<stop stop-color="#C482E6"/>
<stop offset="1" stop-color="white"/>
</linearGradient>
<linearGradient id="paint4_linear_8_146" x1="947.826" y1="147.992" x2="947.826" y2="258.909" gradientUnits="userSpaceOnUse">
<stop stop-color="#C482E6"/>
<stop offset="1" stop-color="white"/>
</linearGradient>
<linearGradient id="paint5_linear_8_146" x1="947.874" y1="186.802" x2="947.874" y2="304.681" gradientUnits="userSpaceOnUse">
<stop stop-color="#C482E6"/>
<stop offset="1" stop-color="white"/>
</linearGradient>
<linearGradient id="paint6_linear_8_146" x1="947.73" y1="225.802" x2="947.73" y2="350.878" gradientUnits="userSpaceOnUse">
<stop stop-color="#C482E6"/>
<stop offset="1" stop-color="white"/>
</linearGradient>
<linearGradient id="paint7_linear_8_146" x1="947.826" y1="264.327" x2="947.826" y2="396.8" gradientUnits="userSpaceOnUse">
<stop stop-color="#C482E6"/>
<stop offset="1" stop-color="white"/>
</linearGradient>
<linearGradient id="paint8_linear_8_146" x1="947.826" y1="303.232" x2="947.826" y2="442.986" gradientUnits="userSpaceOnUse">
<stop stop-color="#C482E6"/>
<stop offset="1" stop-color="white"/>
</linearGradient>
<linearGradient id="paint9_linear_8_146" x1="947.826" y1="341.947" x2="947.826" y2="489.308" gradientUnits="userSpaceOnUse">
<stop stop-color="#C482E6"/>
<stop offset="1" stop-color="white"/>
</linearGradient>
<linearGradient id="paint10_linear_8_146" x1="947.874" y1="380.757" x2="947.874" y2="535.674" gradientUnits="userSpaceOnUse">
<stop stop-color="#C482E6"/>
<stop offset="1" stop-color="white"/>
</linearGradient>
<linearGradient id="paint11_linear_8_146" x1="947.778" y1="419.661" x2="947.778" y2="582.065" gradientUnits="userSpaceOnUse">
<stop stop-color="#C482E6"/>
<stop offset="1" stop-color="white"/>
</linearGradient>
<linearGradient id="paint12_linear_8_146" x1="947.778" y1="458.661" x2="947.778" y2="628.55" gradientUnits="userSpaceOnUse">
<stop stop-color="#C482E6"/>
<stop offset="1" stop-color="white"/>
</linearGradient>
<linearGradient id="paint13_linear_8_146" x1="947.826" y1="497.186" x2="947.826" y2="675.027" gradientUnits="userSpaceOnUse">
<stop stop-color="#C482E6"/>
<stop offset="1" stop-color="white"/>
</linearGradient>
</defs>
</svg>
