<svg width="120" height="120" viewBox="0 0 120 120" fill="none" xmlns="http://www.w3.org/2000/svg">
<g id="Frame 12">
<g id="Vector">
<path d="M73.8461 47.9077C70.9846 49.4769 67.2923 48.4615 65.7231 45.6C64.1538 42.7385 65.1692 39.0462 68.0308 37.4769C70.8923 35.9077 74.5846 36.9231 76.1538 39.7846C77.8154 42.6461 76.8 46.2462 73.8461 47.9077Z" fill="#C482E6"/>
<path d="M73.8461 47.9077C70.9846 49.4769 67.2923 48.4615 65.7231 45.6C64.1538 42.7385 65.1692 39.0462 68.0308 37.4769C70.8923 35.9077 74.5846 36.9231 76.1538 39.7846C77.8154 42.6461 76.8 46.2462 73.8461 47.9077Z" fill="#C482E6"/>
<path d="M60 0C26.8615 0 0 26.8615 0 60C0 93.1385 26.8615 120 60 120C93.1385 120 120 93.1385 120 60C120 26.8615 93.1385 0 60 0ZM60.3692 93.9692L36.5538 87.1385C33.4154 86.2154 31.5692 82.8923 32.4 79.7538L41.5385 47.8154C42.4615 44.6769 45.5077 40.7077 48.4615 39.1385L36.5538 80.6769C36.2769 81.7846 36.8308 82.8923 37.9385 83.1692L67.0154 91.4769C65.6308 93.6 62.9538 94.7077 60.3692 93.9692ZM87.3231 52.1538L78.1846 84C77.2615 87.1385 73.9385 88.9846 70.8 88.0615L47.0769 81.3231C43.9385 80.4 42.0923 77.0769 42.9231 73.9385L52.0615 42C52.9846 38.8615 56.0308 34.8923 58.9846 33.3231L71.1692 26.5846C74.0308 25.0154 77.7231 26.0308 79.2923 28.8923L86.1231 41.0769C87.6923 44.0308 88.2462 48.9231 87.3231 52.1538Z" fill="#C482E6"/>
</g>
</g>
</svg>
