<svg width="120" height="120" viewBox="0 0 120 120" fill="none" xmlns="http://www.w3.org/2000/svg">
<g id="&#209;&#143;&#208;&#186;&#209;&#150;&#209;&#129;&#209;&#130;&#209;&#140; 1" clip-path="url(#clip0_15_268)">
<g id="Group">
<path id="Vector" d="M60 25.1001C40.7 25.1001 25.1 40.8001 25.1 60.0001C25.1 79.2001 40.7 94.9001 60 94.9001C79.3 94.9001 94.9 79.3001 94.9 60.0001C94.9 40.7001 79.3 25.1001 60 25.1001ZM60 93.2001C41.7 93.2001 26.8 78.3001 26.8 60.0001C26.8 41.7001 41.7 26.8001 60 26.8001C78.3 26.8001 93.2 41.7001 93.2 60.0001C93.2 78.3001 78.3 93.2001 60 93.2001Z" fill="#C482E6"/>
<path id="Vector_2" d="M60 28.1001C42.4 28.1001 28.1 42.4001 28.1 60.0001C28.1 77.6001 42.4 91.9001 60 91.9001C77.6 91.9001 91.9 77.6001 91.9 60.0001C91.9 42.4001 77.6 28.1001 60 28.1001ZM57.4 79.1001L38.1 60.5001L46.9 51.4001L57 61.1001L76.5 40.9001L85.6 49.7001L57.4 79.1001Z" fill="#C482E6"/>
<path id="Vector_3" d="M60 0C26.9 0 0 26.9 0 60C0 93.1 26.9 120 60 120C93.1 120 120 93.1 120 60C120 26.9 93.1 0 60 0ZM60 98.2C38.9 98.2 21.8 81.1 21.8 60C21.8 38.9 38.9 21.8 60 21.8C81.1 21.8 98.2 38.9 98.2 60C98.2 81.1 81.1 98.2 60 98.2Z" fill="#C482E6"/>
</g>
</g>
<defs>
<clipPath id="clip0_15_268">
<rect width="120" height="120" fill="white"/>
</clipPath>
</defs>
</svg>
