<svg width="120" height="120" viewBox="0 0 120 120" fill="none" xmlns="http://www.w3.org/2000/svg">
<g id="size 2" clip-path="url(#clip0_14_261)">
<path id="Vector" d="M60 0C26.9 0 0 26.9 0 60C0 93.1 26.9 120 60 120C93.1 120 120 93.1 120 60C120 26.9 93.1 0 60 0ZM83.6 94.9C83.6 95.4 83.2 95.8 82.7 95.8H37.3C36.8 95.8 36.4 95.4 36.4 94.9V85.8C36.4 78.4 38.9 71 43.5 65.2L43.9 64.7C46.3 61.6 46.6 57.4 44.7 54.1C41.7 48.8 38.1 40.4 38.1 30.5C38.1 30.2 38.2 30 38.5 29.8C38.7 29.7 42.7 26.8 48.1 26.8C53.5 26.8 53.8 21.2 53.8 20C53.8 19.5 54.2 19.1 54.7 19.1H65.5C66 19.1 66.4 19.5 66.4 20C66.4 21.1 66.7 26.8 72.1 26.8C77.5 26.8 81.5 29.7 81.7 29.8C81.9 30 82.1 30.2 82.1 30.5C82.1 40.5 78.5 48.9 75.5 54.1C73.6 57.5 73.9 61.6 76.3 64.7L76.7 65.2C81.3 71.1 83.8 78.4 83.8 85.8V94.9H83.6Z" fill="#C482E6"/>
</g>
<defs>
<clipPath id="clip0_14_261">
<rect width="120" height="120" fill="white"/>
</clipPath>
</defs>
</svg>
