<svg width="120" height="120" viewBox="0 0 120 120" fill="none" xmlns="http://www.w3.org/2000/svg">
<g id="&#208;&#176;&#209;&#129;&#208;&#190;&#209;&#128;&#209;&#130; 1" clip-path="url(#clip0_17_347)">
<g id="Group">
<path id="Vector" d="M54.3 66H53.1C51.8 66 50.8 66.9 51 67.9L52.4 81C52.5 81.8 53.4 82.4 54.5 82.4H55.5C56.6 82.4 57.5 81.8 57.4 81L56.8 68C56.8 66.9 55.7 66 54.3 66Z" fill="#C482E6"/>
<path id="Vector_2" d="M44.6 68.0001C44.4 66.9001 43.2 66.1001 41.9 66.1001H40.7C39.4 66.1001 38.5 67.0001 38.8 68.0001L41.7 81.1001C41.9 81.9001 42.9 82.5001 44 82.5001H45C46.1 82.5001 46.9 81.9001 46.7 81.1001L44.6 68.0001Z" fill="#C482E6"/>
<path id="Vector_3" d="M60 0C26.9 0 0 26.9 0 60C0 93.1 26.9 120 60 120C93.1 120 120 93.1 120 60C120 26.9 93.1 0 60 0ZM90.9 61.1C90.9 62.2 90 63 89 63H87.5L83.5 84.2C83.5 85.1 82.8 85.8 81.9 85.8H38.1C37.2 85.8 36.5 85.1 36.5 84.2L32.5 63H31C30 63 29.1 62.1 29.1 61.1V58.5C29.1 57.4 30 56.6 31 56.6H38.4L54.5 40.5C54.5 40.2 54.4 39.9 54.4 39.6C54.4 36.6 56.9 34.1 59.9 34.1C62.9 34.1 65.4 36.6 65.4 39.6C65.4 39.8 65.4 40.1 65.3 40.3L81.6 56.6H89C90.1 56.6 90.9 57.4 90.9 58.5V61.1Z" fill="#C482E6"/>
<path id="Vector_4" d="M62.4 44.5C61.6 44.9 60.8 45.1 59.9 45.1C59 45.1 58.2 44.9 57.5 44.5L45.5 56.5H74.5L62.4 44.5Z" fill="#C482E6"/>
<path id="Vector_5" d="M66.8 66H65.6C64.3 66 63.2 66.9 63.2 67.9L63 81.1C63 81.9 63.9 82.5 65 82.5H66C67.1 82.5 68 81.9 68.1 81.1L69 68C69.1 66.9 68.1 66 66.8 66Z" fill="#C482E6"/>
<path id="Vector_6" d="M79.2 66H78C76.7 66 75.5 66.9 75.4 67.9L73.7 81C73.6 81.8 74.4 82.4 75.5 82.4H76.5C77.6 82.4 78.6 81.8 78.8 81L81.2 68C81.4 66.9 80.5 66 79.2 66Z" fill="#C482E6"/>
</g>
</g>
<defs>
<clipPath id="clip0_17_347">
<rect width="120" height="120" fill="white"/>
</clipPath>
</defs>
</svg>
