<svg width="120" height="120" viewBox="0 0 120 120" fill="none" xmlns="http://www.w3.org/2000/svg">
<g id="delivery 1" clip-path="url(#clip0_13_252)">
<path id="Vector" d="M92.8 55.7V56.3C92.8 56.9 92.3 57.4 91.7 57.4H71.8C71.2 57.4 70.7 56.9 70.7 56.3V46.1C70.7 45.5 71.2 45 71.8 45H83.3C83.9 45 92.8 55.1 92.8 55.7Z" fill="#C482E6"/>
<path id="Vector_2" d="M37.1 72.5C35.1 72.5 33.4 74.1 33.4 76.1C33.4 78.1 35.1 79.7 37.1 79.7C39.1 79.7 40.8 78.1 40.8 76.1C40.8 74.1 39.2 72.5 37.1 72.5ZM37.1 72.5C35.1 72.5 33.4 74.1 33.4 76.1C33.4 78.1 35.1 79.7 37.1 79.7C39.1 79.7 40.8 78.1 40.8 76.1C40.8 74.1 39.2 72.5 37.1 72.5ZM60 0C26.9 0 0 26.9 0 60C0 93.1 26.9 120 60 120C93.1 120 120 93.1 120 60C120 26.9 93.1 0 60 0ZM37.1 85.3C32 85.3 27.8 81.2 27.8 76.2C27.8 71.1 31.9 67 37.1 67C42.3 67 46.4 71.1 46.4 76.2C46.4 81.2 42.3 85.3 37.1 85.3ZM81.2 85.3C76.1 85.3 71.9 81.2 71.9 76.2C71.9 71.1 76.1 67 81.2 67C86.3 67 90.5 71.1 90.5 76.2C90.5 81.2 86.3 85.3 81.2 85.3ZM101.3 73.6C101.3 74.5 100.5 75.3 99.6 75.3H91.5C91 70.1 86.6 65.9 81.1 65.9C75.6 65.9 71.2 70 70.7 75.3H47.8C47.3 70.1 42.8 65.9 37.4 65.9C32 65.9 27.5 70 27 75.2H20.4C19.5 75.2 18.7 74.4 18.7 73.5V70.3C18.7 69.4 19.5 68.6 20.4 68.6H21.3V36.6C21.3 35.5 22.2 34.7 23.3 34.7H68.7C69.8 34.7 70.7 35.6 70.7 36.6V41.3H84.9C85.8 41.3 98.7 56.1 98.7 57V68.7H99.6C100.5 68.7 101.3 69.5 101.3 70.4V73.6ZM81.2 72.5C79.2 72.5 77.5 74.1 77.5 76.1C77.5 78.1 79.1 79.7 81.2 79.7C83.2 79.7 84.9 78.1 84.9 76.1C84.9 74.1 83.3 72.5 81.2 72.5ZM37.1 72.5C35.1 72.5 33.4 74.1 33.4 76.1C33.4 78.1 35.1 79.7 37.1 79.7C39.1 79.7 40.8 78.1 40.8 76.1C40.8 74.1 39.2 72.5 37.1 72.5ZM37.1 72.5C35.1 72.5 33.4 74.1 33.4 76.1C33.4 78.1 35.1 79.7 37.1 79.7C39.1 79.7 40.8 78.1 40.8 76.1C40.8 74.1 39.2 72.5 37.1 72.5ZM37.1 72.5C35.1 72.5 33.4 74.1 33.4 76.1C33.4 78.1 35.1 79.7 37.1 79.7C39.1 79.7 40.8 78.1 40.8 76.1C40.8 74.1 39.2 72.5 37.1 72.5Z" fill="#C482E6"/>
</g>
<defs>
<clipPath id="clip0_13_252">
<rect width="120" height="120" fill="white"/>
</clipPath>
</defs>
</svg>
