<svg width="120" height="120" viewBox="0 0 120 120" fill="none" xmlns="http://www.w3.org/2000/svg">
<g id="&#208;&#179;&#209;&#131;&#209;&#128;&#209;&#130; 1" clip-path="url(#clip0_16_301)">
<g id="Group">
<path id="Vector" d="M52.2 80.7H51.2V81.7H52.2V80.7Z" fill="#C482E6"/>
<path id="Vector_2" d="M54.2 80.7H53.2V81.7H54.2V80.7Z" fill="#C482E6"/>
<path id="Vector_3" d="M62.2 80.7H61.2V81.7H62.2V80.7Z" fill="#C482E6"/>
<path id="Vector_4" d="M60.2 80.7H59.2V81.7H60.2V80.7Z" fill="#C482E6"/>
<path id="Vector_5" d="M50.2 80.7H49.2V81.7H50.2V80.7Z" fill="#C482E6"/>
<path id="Vector_6" d="M58.2 80.7H57.2V81.7H58.2V80.7Z" fill="#C482E6"/>
<path id="Vector_7" d="M56.2 80.7H55.2V81.7H56.2V80.7Z" fill="#C482E6"/>
<path id="Vector_8" d="M40.2 80.7H39.2V81.7H40.2V80.7Z" fill="#C482E6"/>
<path id="Vector_9" d="M38.2 80.7H37.2V81.7H38.2V80.7Z" fill="#C482E6"/>
<path id="Vector_10" d="M36.1 80.7H35.1V81.7H36.1V80.7Z" fill="#C482E6"/>
<path id="Vector_11" d="M44.2 80.7H43.2V81.7H44.2V80.7Z" fill="#C482E6"/>
<path id="Vector_12" d="M46.2 80.7H45.2V81.7H46.2V80.7Z" fill="#C482E6"/>
<path id="Vector_13" d="M48.2 80.7H47.2V81.7H48.2V80.7Z" fill="#C482E6"/>
<path id="Vector_14" d="M42.2 80.7H41.2V81.7H42.2V80.7Z" fill="#C482E6"/>
<path id="Vector_15" d="M72.3 80.7H71.3V81.7H72.3V80.7Z" fill="#C482E6"/>
<path id="Vector_16" d="M74.3 80.7H73.3V81.7H74.3V80.7Z" fill="#C482E6"/>
<path id="Vector_17" d="M78.3 80.7H77.3V81.7H78.3V80.7Z" fill="#C482E6"/>
<path id="Vector_18" d="M76.3 80.7H75.3V81.7H76.3V80.7Z" fill="#C482E6"/>
<path id="Vector_19" d="M80.3 80.7H79.3V81.7H80.3V80.7Z" fill="#C482E6"/>
<path id="Vector_20" d="M60 0C26.9 0 0 26.9 0 60C0 93.1 26.9 120 60 120C93.1 120 120 93.1 120 60C120 26.9 93.1 0 60 0ZM85.5 84.5C85.3 84.7 85 84.8 84.8 84.8H33.2C32.9 84.8 32.7 84.7 32.5 84.5C32.3 84.3 32.2 84 32.2 83.7L35.6 36.5C35.6 36 36.1 35.6 36.6 35.6H81.3C81.8 35.6 82.3 36 82.3 36.5L85.7 83.7C85.8 84 85.7 84.3 85.5 84.5Z" fill="#C482E6"/>
<path id="Vector_21" d="M82.3 80.7H81.3V81.7H82.3V80.7Z" fill="#C482E6"/>
<path id="Vector_22" d="M64.2 80.7H63.2V81.7H64.2V80.7Z" fill="#C482E6"/>
<path id="Vector_23" d="M70.3 80.7H69.3V81.7H70.3V80.7Z" fill="#C482E6"/>
<path id="Vector_24" d="M71.2 40.7C69.7 40.7 68.5 41.9 68.5 43.4C68.5 44.5 69.2 45.5 70.2 45.9V53.7C70.2 61 65.2 66.9 59.1 66.9C53 66.9 48 61 48 53.7V45.9C49 45.5 49.7 44.5 49.7 43.4C49.7 41.9 48.5 40.7 47 40.7C45.5 40.7 44.3 41.9 44.3 43.4C44.3 44.5 45 45.5 46 45.9V53.7C46 62.1 51.9 68.9 59.1 68.9C66.3 68.9 72.2 62.1 72.2 53.7V45.9C73.2 45.5 73.9 44.5 73.9 43.4C73.9 41.9 72.7 40.7 71.2 40.7ZM46.9 44.0999C46.5 44.0999 46.2 43.8 46.2 43.4C46.2 43 46.5 42.7 46.9 42.7C47.3 42.7 47.6 43 47.6 43.4C47.6 43.8 47.3 44.0999 46.9 44.0999ZM71.2 44.0999C70.8 44.0999 70.5 43.8 70.5 43.4C70.5 43 70.8 42.7 71.2 42.7C71.6 42.7 71.9 43 71.9 43.4C71.9 43.8 71.5 44.0999 71.2 44.0999Z" fill="#C482E6"/>
<path id="Vector_25" d="M66.2 80.7H65.2V81.7H66.2V80.7Z" fill="#C482E6"/>
<path id="Vector_26" d="M68.3 80.7H67.3V81.7H68.3V80.7Z" fill="#C482E6"/>
</g>
</g>
<defs>
<clipPath id="clip0_16_301">
<rect width="120" height="120" fill="white"/>
</clipPath>
</defs>
</svg>
