<svg width="27" height="22" viewBox="0 0 27 22" fill="none" xmlns="http://www.w3.org/2000/svg">
<g id="Frame 3">
<path id="Vector" d="M20.7116 21.1903C21.5082 21.1903 22.1539 20.5187 22.1539 19.6903C22.1539 18.8618 21.5082 18.1903 20.7116 18.1903C19.915 18.1903 19.2693 18.8618 19.2693 19.6903C19.2693 20.5187 19.915 21.1903 20.7116 21.1903Z" stroke="#1E1E1E" stroke-width="1.5" stroke-linecap="round" stroke-linejoin="round"/>
<path id="Vector_2" d="M12.0577 21.1903C12.8542 21.1903 13.5 20.5187 13.5 19.6903C13.5 18.8618 12.8542 18.1903 12.0577 18.1903C11.2611 18.1903 10.6154 18.8618 10.6154 19.6903C10.6154 20.5187 11.2611 21.1903 12.0577 21.1903Z" stroke="#1E1E1E" stroke-width="1.5" stroke-linecap="round" stroke-linejoin="round"/>
<path id="Vector_3" d="M7.20551 3.79026H23.7435C25.241 3.79026 26.3226 5.16671 25.9124 6.55041L24.114 12.6171C23.838 13.5481 22.9527 14.1903 21.9452 14.1903H11.9909C10.9834 14.1903 10.0981 13.5481 9.82207 12.6171L7.20551 3.79026ZM7.20551 3.79026L6.43478 1.19026H1" stroke="#1E1E1E" stroke-width="1.5" stroke-linecap="round" stroke-linejoin="round"/>
</g>
</svg>
