<svg width="565" height="219" viewBox="0 0 565 219" fill="none" xmlns="http://www.w3.org/2000/svg">
<path d="M-9.69995 25.3278C-9.69995 25.3278 19.1 -7.71577 56.8 -10.3592C93.5 -12.9083 115.1 24.1004 170.9 1.34761C225.9 -20.9331 233.2 -58.4139 289.7 -58.5083C366.2 -58.6971 366.5 10.9774 431.3 30.237C439.6 32.6917 447.9 34.1079 456.5 34.5799C518.7 37.8843 530.9 -28.0139 578.9 -38.6822C586.5 -40.3816 593.4 -41.5145 600.2 -42.081C622.7 -43.7804 637.3 -38.399 666.5 -33.0176C706.4 -25.6537 733.4 -42.7419 778.9 -30.9406C823.2 -19.4226 834.2 31.2756 885.6 20.8905C959.6 5.97371 1006.9 -68.0437 1069 -56.9033C1131.3 -45.763 1171.9 -6.20521 1259.7 -18.8561C1280.3 -21.8773 1297.9 -25.4648 1313.5 -29.6188C1361.9 -42.553 1383.4 -64.2673 1420.6 -55.3928C1465.7 -44.63 1470.8 -17.7232 1506.3 -9.22632C1541.9 -0.635008 1542.2 -37.4549 1581.2 -40.0039C1622.3 -42.7418 1654.8 15.0371 1698.5 17.8694C1739.8 20.5128 1763.5 -19.6114 1797.6 -24.2375C1832.3 -28.8636 1866.4 -9.60395 1907.7 -25.7481C1951.5 -42.9307 1971.5 -82.5829 1971.5 -82.5829" stroke="url(#paint0_linear_132_1668)" stroke-miterlimit="10"/>
<path d="M-9.69995 68.8507C-9.69995 68.8507 16.3 37.6954 51.2001 33.1638C84.7001 28.7265 105.7 59.032 157.1 37.3178C207.6 16.1699 216.9 -17.7232 269.7 -17.7232C348.3 -18.0065 350.2 57.9936 421.8 76.8756C430.9 79.3302 439.9 80.4631 448.9 80.652C514.4 81.6905 529.9 11.0718 578.6 -0.351783C586.9 -2.23998 594.2 -3.65614 601.3 -4.31701C625.3 -6.48844 640.1 -0.823821 672.3 4.55755C715.6 11.8271 743.5 -11.1146 792.7 1.91402C840.8 14.6594 848.2 75.1762 902.9 65.1687C971.9 52.5178 1016.6 -16.0238 1074 -9.98161C1131.9 -3.93937 1170.6 26.555 1251.4 14.6594C1270.5 11.8271 1287.1 8.80598 1302 5.31281C1346.9 -5.07228 1367.9 -23.0102 1402.5 -13.9468C1443.7 -3.18411 1449.7 21.6457 1482.4 30.4258C1515.2 39.3004 1517 8.2395 1552.8 7.2954C1591.1 6.25689 1622.2 58.088 1663.6 60.5426C1710 63.1861 1735.4 16.2644 1773.7 12.6768C1812.5 9.0892 1850.9 34.7687 1898.6 18.1525C1948.5 0.686703 1971.2 -43.7804 1971.2 -43.7804" stroke="url(#paint1_linear_132_1668)" stroke-miterlimit="10"/>
<path d="M-9.69995 112.279C-9.69995 112.279 13.5 83.1066 45.5 76.4979C75.8 70.2668 96.2001 93.5861 143.3 73.0991C189.3 53.0842 200.6 22.8731 249.8 22.7787C330.5 22.4954 333.9 104.632 412.3 123.136C422.2 125.497 431.9 126.441 441.4 126.346C510.2 125.119 529 49.7799 578.5 37.6954C587.4 35.524 595.2 34.0134 602.6 33.1637C628.2 30.5203 643.1 36.5625 678.3 41.8495C725 48.9302 753.7 20.2296 806.6 34.3911C858.5 48.3637 862.2 118.51 920.3 108.975C984.3 98.4954 1026.3 35.4296 1079.2 36.3736C1132.6 37.3177 1169.4 58.7488 1243.3 47.6085C1260.9 44.8706 1276.6 42.4159 1290.7 39.7724C1332.2 31.9364 1352.6 17.7749 1384.7 27.0271C1421.9 37.7898 1429 60.5426 1458.8 69.606C1488.7 78.7637 1492.2 51.7625 1524.8 54.1228C1560.3 56.6718 1590 100.761 1629.1 102.744C1680.7 105.387 1707.8 51.6681 1750.2 49.119C1793 46.5699 1835.7 78.7637 1890 61.5811C1946.1 43.832 1971.4 -5.44995 1971.4 -5.44995" stroke="url(#paint2_linear_132_1668)" stroke-miterlimit="10"/>
<path d="M-9.69995 155.802C-9.69995 155.802 10.7001 128.612 39.9001 119.927C66.9001 111.902 86.8001 128.329 129.6 108.975C171.1 90.1874 184.4 63.4694 229.9 63.375C312.8 62.9973 317.7 151.459 402.9 169.586C413.6 171.852 423.9 172.702 434 172.135C506.1 168.642 528.2 88.488 578.4 75.7427C588 73.288 596.3 71.5886 603.9 70.7389C631 67.6234 646.1 73.9489 684.3 79.3302C734.5 86.3166 764 51.857 820.5 67.1514C876.2 82.257 876.2 162.033 937.7 153.159C996.7 144.568 1036.1 87.2607 1084.3 83.2011C1133.2 79.047 1168.2 91.4147 1235.2 81.0297C1251.4 78.4806 1265.9 76.4979 1279.4 74.6097C1317.4 69.2284 1337.4 58.8433 1366.8 68.3787C1400.1 79.1414 1408.1 99.8172 1435.1 109.164C1462.2 118.699 1467.2 99.2508 1496.6 101.328C1529.5 103.688 1557.6 143.718 1594.5 145.323C1651.2 147.777 1680 87.4495 1726.6 85.9389C1773.5 84.4284 1820.5 123.042 1881.2 105.387C1943.5 87.3551 1971.4 33.2582 1971.4 33.2582" stroke="url(#paint3_linear_132_1668)" stroke-miterlimit="10"/>
<path d="M-9.69995 199.325C-9.69995 199.325 7.90005 174.212 34.2001 163.355C58 153.631 77.3 163.166 115.7 144.851C152.7 127.196 168 104.066 209.8 103.971C294.8 103.594 301.2 198.287 393.2 216.036C404.7 218.302 415.7 218.868 426.2 218.018C501.7 212.259 527 127.385 578 113.884C588.3 111.146 597 109.258 605 108.314C633.7 104.632 648.9 111.43 690.1 116.717C743.7 123.609 774.1 83.2954 834.3 99.8172C893.9 116.15 890.1 205.368 955 197.154C1008.9 190.356 1045.8 138.997 1089.4 129.745C1133.9 120.399 1166.9 123.797 1227 114.168C1241.7 111.807 1255.2 110.297 1268.1 109.258C1302.6 106.237 1322.1 99.8172 1348.9 109.541C1378.2 120.21 1387.3 138.809 1411.4 148.533C1435.6 158.351 1442.2 144.756 1468.4 148.438C1498.7 152.592 1525.2 186.486 1559.8 187.807C1621.6 190.073 1652.2 123.042 1702.9 122.57C1753.9 121.909 1805.2 167.131 1872.4 149.099C1940.8 130.689 1971.4 71.7774 1971.4 71.7774" stroke="url(#paint4_linear_132_1668)" stroke-miterlimit="10"/>
<path d="M-9.69995 242.848C-9.69995 242.848 5.10005 219.812 28.6 206.878C49.2 195.454 67.9 198.004 102 180.821C134.5 164.394 151.8 144.851 189.9 144.662C277.1 144.19 285 245.209 383.8 262.486C396.1 264.657 407.7 265.035 418.8 263.902C497.6 255.971 526.2 166.187 577.9 152.12C588.8 149.099 598 147.117 606.3 145.984C636.5 141.83 651.9 149.005 696.1 154.292C753.2 161.089 784.4 114.923 848.2 132.577C911.6 150.138 904.1 248.418 972.4 241.243C1021.2 236.145 1055.5 190.64 1094.6 176.478C1134.6 161.939 1165.7 156.463 1219 147.494C1232.3 145.228 1244.8 145.228 1256.9 144.001C1287.8 140.791 1306.9 140.791 1331.2 150.799C1356.6 161.372 1366.7 177.989 1387.9 187.996C1409.3 198.098 1417.5 190.545 1440.4 195.549C1468 201.591 1493 229.348 1525.3 230.292C1592.3 232.18 1624.5 158.729 1679.4 159.295C1734.5 159.673 1790 211.315 1863.7 192.811C1938.3 174.118 1971.5 110.391 1971.5 110.391" stroke="url(#paint5_linear_132_1668)" stroke-miterlimit="10"/>
<path d="M-9.69995 286.371C-9.69995 286.371 2.40005 265.601 22.9 250.307C40.4 237.278 58.4 232.841 88.2 216.697C116.3 201.497 135.5 185.447 169.9 185.258C259.2 184.786 268.6 292.225 374.2 308.935C387.3 311.012 399.6 311.201 411.2 309.691C493.3 299.494 525.2 204.895 577.7 190.168C589.3 186.958 598.9 184.692 607.5 183.464C639.3 178.744 654.8 186.486 702 191.584C762.5 198.381 794.5 146.267 862 165.149C929.2 183.936 918 290.997 989.7 285.238C1033.5 281.745 1065.2 242.282 1099.6 223.117C1135.1 203.385 1164.4 188.94 1210.7 180.821C1222.5 178.744 1233.9 178.177 1245.4 178.838C1272.9 180.254 1291.5 181.765 1313.1 192.15C1334.6 202.535 1345.6 217.263 1364 227.554C1382.5 237.939 1392.3 236.428 1412.1 242.754C1437 250.779 1460.5 272.21 1490.5 272.871C1562.6 274.287 1596.6 194.51 1655.6 196.115C1714.8 197.531 1774.6 255.594 1854.7 236.617C1935.4 217.546 1971.3 149.099 1971.3 149.099" stroke="url(#paint6_linear_132_1668)" stroke-miterlimit="10"/>
<path d="M-9.69995 329.894C-9.69995 329.894 -0.199951 311.295 17.3 293.735C31.8 279.102 49 267.584 74.5 252.572C98.1 238.6 119.3 226.043 150.1 225.854C241.5 225.288 252.5 338.958 364.8 355.385C378.8 357.462 391.7 357.367 403.7 355.574C489.2 343.112 524.2 243.698 577.5 228.404C589.7 224.91 599.8 222.55 608.7 221.134C642 215.847 657.7 223.966 708 229.159C771.9 235.768 804.8 177.989 876 198.004C947 218.018 932 333.387 1007.2 329.422C1046 327.345 1075 294.018 1104.9 269.85C1135.9 244.831 1163.3 221.512 1202.7 214.148C1213 212.165 1223.4 212.071 1234.2 213.581C1258.3 217.074 1276.4 222.55 1295.3 233.407C1312.9 243.509 1324.9 256.443 1340.3 267.017C1356 277.78 1367.3 282.312 1383.9 289.959C1406 300.061 1428 315.072 1455.8 315.449C1533 316.299 1568.7 230.386 1631.9 232.935C1695.2 235.39 1759.2 299.777 1845.9 280.518C1932.8 260.975 1971.3 187.902 1971.3 187.902" stroke="url(#paint7_linear_132_1668)" stroke-miterlimit="10"/>
<defs>
<linearGradient id="paint0_linear_132_1668" x1="-9.69995" y1="-23.9414" x2="1971.5" y2="-23.9414" gradientUnits="userSpaceOnUse">
<stop stop-color="#C482E6"/>
<stop offset="1" stop-color="white"/>
</linearGradient>
<linearGradient id="paint1_linear_132_1668" x1="-9.69995" y1="18.4415" x2="1971.2" y2="18.4415" gradientUnits="userSpaceOnUse">
<stop stop-color="#C482E6"/>
<stop offset="1" stop-color="white"/>
</linearGradient>
<linearGradient id="paint2_linear_132_1668" x1="-9.69995" y1="60.4514" x2="1971.4" y2="60.4514" gradientUnits="userSpaceOnUse">
<stop stop-color="#C482E6"/>
<stop offset="1" stop-color="white"/>
</linearGradient>
<linearGradient id="paint3_linear_132_1668" x1="-9.69995" y1="102.782" x2="1971.4" y2="102.782" gradientUnits="userSpaceOnUse">
<stop stop-color="#C482E6"/>
<stop offset="1" stop-color="white"/>
</linearGradient>
<linearGradient id="paint4_linear_132_1668" x1="-9.69995" y1="145.085" x2="1971.4" y2="145.085" gradientUnits="userSpaceOnUse">
<stop stop-color="#C482E6"/>
<stop offset="1" stop-color="white"/>
</linearGradient>
<linearGradient id="paint5_linear_132_1668" x1="-9.69995" y1="187.458" x2="1971.5" y2="187.458" gradientUnits="userSpaceOnUse">
<stop stop-color="#C482E6"/>
<stop offset="1" stop-color="white"/>
</linearGradient>
<linearGradient id="paint6_linear_132_1668" x1="-9.69995" y1="229.89" x2="1971.3" y2="229.89" gradientUnits="userSpaceOnUse">
<stop stop-color="#C482E6"/>
<stop offset="1" stop-color="white"/>
</linearGradient>
<linearGradient id="paint7_linear_132_1668" x1="-9.69995" y1="272.416" x2="1971.3" y2="272.416" gradientUnits="userSpaceOnUse">
<stop stop-color="#C482E6"/>
<stop offset="1" stop-color="white"/>
</linearGradient>
</defs>
</svg>
