<svg width="565" height="219" viewBox="0 0 565 219" fill="none" xmlns="http://www.w3.org/2000/svg">
<path d="M-1364.7 25.3278C-1364.7 25.3278 -1335.9 -7.71577 -1298.2 -10.3592C-1261.5 -12.9083 -1239.9 24.1004 -1184.1 1.34761C-1129.1 -20.9331 -1121.8 -58.4139 -1065.3 -58.5083C-988.8 -58.6971 -988.5 10.9774 -923.7 30.237C-915.4 32.6917 -907.1 34.1079 -898.5 34.5799C-836.3 37.8843 -824.1 -28.0139 -776.1 -38.6822C-768.5 -40.3816 -761.6 -41.5145 -754.8 -42.081C-732.3 -43.7804 -717.7 -38.399 -688.5 -33.0176C-648.6 -25.6537 -621.6 -42.7419 -576.1 -30.9406C-531.8 -19.4226 -520.8 31.2756 -469.4 20.8905C-395.4 5.97371 -348.1 -68.0437 -286 -56.9033C-223.7 -45.763 -183.1 -6.20521 -95.3 -18.8561C-74.7 -21.8773 -57.1 -25.4648 -41.5 -29.6188C6.9 -42.553 28.4 -64.2673 65.6 -55.3928C110.7 -44.63 115.8 -17.7232 151.3 -9.22632C186.9 -0.635008 187.2 -37.4549 226.2 -40.0039C267.3 -42.7418 299.8 15.0371 343.5 17.8694C384.8 20.5128 408.5 -19.6114 442.6 -24.2375C477.3 -28.8636 511.4 -9.60395 552.7 -25.7481C596.5 -42.9307 616.5 -82.5829 616.5 -82.5829" stroke="url(#paint0_linear_132_1686)" stroke-miterlimit="10"/>
<path d="M-1364.7 68.8507C-1364.7 68.8507 -1338.7 37.6954 -1303.8 33.1638C-1270.3 28.7265 -1249.3 59.032 -1197.9 37.3178C-1147.4 16.1699 -1138.1 -17.7232 -1085.3 -17.7232C-1006.7 -18.0065 -1004.8 57.9936 -933.2 76.8756C-924.1 79.3302 -915.1 80.4631 -906.1 80.652C-840.6 81.6905 -825.1 11.0718 -776.4 -0.351783C-768.1 -2.23998 -760.8 -3.65614 -753.7 -4.31701C-729.7 -6.48844 -714.9 -0.823821 -682.7 4.55755C-639.4 11.8271 -611.5 -11.1146 -562.3 1.91402C-514.2 14.6594 -506.8 75.1762 -452.1 65.1687C-383.1 52.5178 -338.4 -16.0238 -281 -9.98161C-223.1 -3.93937 -184.4 26.555 -103.6 14.6594C-84.5 11.8271 -67.9 8.80598 -53 5.31281C-8.1 -5.07228 12.9 -23.0102 47.5 -13.9468C88.7 -3.18411 94.7 21.6457 127.4 30.4258C160.2 39.3004 162 8.2395 197.8 7.2954C236.1 6.25689 267.2 58.088 308.6 60.5426C355 63.1861 380.4 16.2644 418.7 12.6768C457.5 9.0892 495.9 34.7687 543.6 18.1525C593.5 0.686703 616.2 -43.7804 616.2 -43.7804" stroke="url(#paint1_linear_132_1686)" stroke-miterlimit="10"/>
<path d="M-1364.7 112.279C-1364.7 112.279 -1341.5 83.1066 -1309.5 76.4979C-1279.2 70.2668 -1258.8 93.5861 -1211.7 73.0991C-1165.7 53.0842 -1154.4 22.8731 -1105.2 22.7787C-1024.5 22.4954 -1021.1 104.632 -942.7 123.136C-932.8 125.497 -923.1 126.441 -913.6 126.346C-844.8 125.119 -826 49.7799 -776.5 37.6954C-767.6 35.524 -759.8 34.0134 -752.4 33.1637C-726.8 30.5203 -711.9 36.5625 -676.7 41.8495C-630 48.9302 -601.3 20.2296 -548.4 34.3911C-496.5 48.3637 -492.8 118.51 -434.7 108.975C-370.7 98.4954 -328.7 35.4296 -275.8 36.3736C-222.4 37.3177 -185.6 58.7488 -111.7 47.6085C-94.1 44.8706 -78.4 42.4159 -64.3 39.7724C-22.8 31.9364 -2.40005 17.7749 29.7 27.0271C66.9 37.7898 74 60.5426 103.8 69.606C133.7 78.7637 137.2 51.7625 169.8 54.1228C205.3 56.6718 235 100.761 274.1 102.744C325.7 105.387 352.8 51.6681 395.2 49.119C438 46.5699 480.7 78.7637 535 61.5811C591.1 43.832 616.4 -5.44995 616.4 -5.44995" stroke="url(#paint2_linear_132_1686)" stroke-miterlimit="10"/>
<path d="M-1364.7 155.802C-1364.7 155.802 -1344.3 128.612 -1315.1 119.927C-1288.1 111.902 -1268.2 128.329 -1225.4 108.975C-1183.9 90.1874 -1170.6 63.4694 -1125.1 63.375C-1042.2 62.9973 -1037.3 151.459 -952.1 169.586C-941.4 171.852 -931.1 172.702 -921 172.135C-848.9 168.642 -826.8 88.488 -776.6 75.7427C-767 73.288 -758.7 71.5886 -751.1 70.7389C-724 67.6234 -708.9 73.9489 -670.7 79.3302C-620.5 86.3166 -591 51.857 -534.5 67.1514C-478.8 82.257 -478.8 162.033 -417.3 153.159C-358.3 144.568 -318.9 87.2607 -270.7 83.2011C-221.8 79.047 -186.8 91.4147 -119.8 81.0297C-103.6 78.4806 -89.1 76.4979 -75.6 74.6097C-37.6 69.2284 -17.6 58.8433 11.8 68.3787C45.1 79.1414 53.1 99.8172 80.1 109.164C107.2 118.699 112.2 99.2508 141.6 101.328C174.5 103.688 202.6 143.718 239.5 145.323C296.2 147.777 325 87.4495 371.6 85.9389C418.5 84.4284 465.5 123.042 526.2 105.387C588.5 87.3551 616.4 33.2582 616.4 33.2582" stroke="url(#paint3_linear_132_1686)" stroke-miterlimit="10"/>
<path d="M-1364.7 199.325C-1364.7 199.325 -1347.1 174.212 -1320.8 163.355C-1297 153.631 -1277.7 163.166 -1239.3 144.851C-1202.3 127.196 -1187 104.066 -1145.2 103.971C-1060.2 103.594 -1053.8 198.287 -961.8 216.036C-950.3 218.302 -939.3 218.868 -928.8 218.018C-853.3 212.259 -828 127.385 -777 113.884C-766.7 111.146 -758 109.258 -750 108.314C-721.3 104.632 -706.1 111.43 -664.9 116.717C-611.3 123.609 -580.9 83.2954 -520.7 99.8172C-461.1 116.15 -464.9 205.368 -400 197.154C-346.1 190.356 -309.2 138.997 -265.6 129.745C-221.1 120.399 -188.1 123.797 -128 114.168C-113.3 111.807 -99.8 110.297 -86.9 109.258C-52.4 106.237 -32.9 99.8172 -6.09998 109.541C23.2 120.21 32.3 138.809 56.4 148.533C80.6 158.351 87.2 144.756 113.4 148.438C143.7 152.592 170.2 186.486 204.8 187.807C266.6 190.073 297.2 123.042 347.9 122.57C398.9 121.909 450.2 167.131 517.4 149.099C585.8 130.689 616.4 71.7774 616.4 71.7774" stroke="url(#paint4_linear_132_1686)" stroke-miterlimit="10"/>
<path d="M-1364.7 242.848C-1364.7 242.848 -1349.9 219.812 -1326.4 206.878C-1305.8 195.454 -1287.1 198.004 -1253 180.821C-1220.5 164.394 -1203.2 144.851 -1165.1 144.662C-1077.9 144.19 -1070 245.209 -971.2 262.486C-958.9 264.657 -947.3 265.035 -936.2 263.902C-857.4 255.971 -828.8 166.187 -777.1 152.12C-766.2 149.099 -757 147.117 -748.7 145.984C-718.5 141.83 -703.1 149.005 -658.9 154.292C-601.8 161.089 -570.6 114.923 -506.8 132.577C-443.4 150.138 -450.9 248.418 -382.6 241.243C-333.8 236.145 -299.5 190.64 -260.4 176.478C-220.4 161.939 -189.3 156.463 -136 147.494C-122.7 145.228 -110.2 145.228 -98.1 144.001C-67.2 140.791 -48.1 140.791 -23.8 150.799C1.59995 161.372 11.7 177.989 32.9 187.996C54.3 198.098 62.5 190.545 85.4 195.549C113 201.591 138 229.348 170.3 230.292C237.3 232.18 269.5 158.729 324.4 159.295C379.5 159.673 435 211.315 508.7 192.811C583.3 174.118 616.5 110.391 616.5 110.391" stroke="url(#paint5_linear_132_1686)" stroke-miterlimit="10"/>
<path d="M-1364.7 286.371C-1364.7 286.371 -1352.6 265.601 -1332.1 250.307C-1314.6 237.278 -1296.6 232.841 -1266.8 216.697C-1238.7 201.497 -1219.5 185.447 -1185.1 185.258C-1095.8 184.786 -1086.4 292.225 -980.8 308.935C-967.7 311.012 -955.4 311.201 -943.8 309.691C-861.7 299.494 -829.8 204.895 -777.3 190.168C-765.7 186.958 -756.1 184.692 -747.5 183.464C-715.7 178.744 -700.2 186.486 -653 191.584C-592.5 198.381 -560.5 146.267 -493 165.149C-425.8 183.936 -437 290.997 -365.3 285.238C-321.5 281.745 -289.8 242.282 -255.4 223.117C-219.9 203.385 -190.6 188.94 -144.3 180.821C-132.5 178.744 -121.1 178.177 -109.6 178.838C-82.1 180.254 -63.5 181.765 -41.9 192.15C-20.4 202.535 -9.4 217.263 9 227.554C27.5 237.939 37.3 236.428 57.1 242.754C82 250.779 105.5 272.21 135.5 272.871C207.6 274.287 241.6 194.51 300.6 196.115C359.8 197.531 419.6 255.594 499.7 236.617C580.4 217.546 616.3 149.099 616.3 149.099" stroke="url(#paint6_linear_132_1686)" stroke-miterlimit="10"/>
<path d="M-1364.7 329.894C-1364.7 329.894 -1355.2 311.295 -1337.7 293.735C-1323.2 279.102 -1306 267.584 -1280.5 252.572C-1256.9 238.6 -1235.7 226.043 -1204.9 225.854C-1113.5 225.288 -1102.5 338.958 -990.2 355.385C-976.2 357.462 -963.3 357.367 -951.3 355.574C-865.8 343.112 -830.8 243.698 -777.5 228.404C-765.3 224.91 -755.2 222.55 -746.3 221.134C-713 215.847 -697.3 223.966 -647 229.159C-583.1 235.768 -550.2 177.989 -479 198.004C-408 218.018 -423 333.387 -347.8 329.422C-309 327.345 -280 294.018 -250.1 269.85C-219.1 244.831 -191.7 221.512 -152.3 214.148C-142 212.165 -131.6 212.071 -120.8 213.581C-96.7 217.074 -78.6 222.55 -59.7 233.407C-42.1 243.509 -30.1 256.443 -14.7 267.017C1.00005 277.78 12.3 282.312 28.9 289.959C51 300.061 73 315.072 100.8 315.449C178 316.299 213.7 230.386 276.9 232.935C340.2 235.39 404.2 299.777 490.9 280.518C577.8 260.975 616.3 187.902 616.3 187.902" stroke="url(#paint7_linear_132_1686)" stroke-miterlimit="10"/>
<defs>
<linearGradient id="paint0_linear_132_1686" x1="-1364.7" y1="-23.9414" x2="616.5" y2="-23.9414" gradientUnits="userSpaceOnUse">
<stop stop-color="#C482E6"/>
<stop offset="1" stop-color="white"/>
</linearGradient>
<linearGradient id="paint1_linear_132_1686" x1="-1364.7" y1="18.4415" x2="616.2" y2="18.4415" gradientUnits="userSpaceOnUse">
<stop stop-color="#C482E6"/>
<stop offset="1" stop-color="white"/>
</linearGradient>
<linearGradient id="paint2_linear_132_1686" x1="-1364.7" y1="60.4514" x2="616.4" y2="60.4514" gradientUnits="userSpaceOnUse">
<stop stop-color="#C482E6"/>
<stop offset="1" stop-color="white"/>
</linearGradient>
<linearGradient id="paint3_linear_132_1686" x1="-1364.7" y1="102.782" x2="616.4" y2="102.782" gradientUnits="userSpaceOnUse">
<stop stop-color="#C482E6"/>
<stop offset="1" stop-color="white"/>
</linearGradient>
<linearGradient id="paint4_linear_132_1686" x1="-1364.7" y1="145.085" x2="616.4" y2="145.085" gradientUnits="userSpaceOnUse">
<stop stop-color="#C482E6"/>
<stop offset="1" stop-color="white"/>
</linearGradient>
<linearGradient id="paint5_linear_132_1686" x1="-1364.7" y1="187.458" x2="616.5" y2="187.458" gradientUnits="userSpaceOnUse">
<stop stop-color="#C482E6"/>
<stop offset="1" stop-color="white"/>
</linearGradient>
<linearGradient id="paint6_linear_132_1686" x1="-1364.7" y1="229.89" x2="616.3" y2="229.89" gradientUnits="userSpaceOnUse">
<stop stop-color="#C482E6"/>
<stop offset="1" stop-color="white"/>
</linearGradient>
<linearGradient id="paint7_linear_132_1686" x1="-1364.7" y1="272.416" x2="616.3" y2="272.416" gradientUnits="userSpaceOnUse">
<stop stop-color="#C482E6"/>
<stop offset="1" stop-color="white"/>
</linearGradient>
</defs>
</svg>
