<svg width="1920" height="215" viewBox="0 0 1920 215" fill="none" xmlns="http://www.w3.org/2000/svg">
<path d="M-9.70001 24.545C-9.70001 24.545 19.1 -7.87861 56.8 -10.4725C93.5 -12.9737 115.1 23.3407 170.9 1.01473C225.9 -20.848 233.2 -57.6256 289.7 -57.7182C366.2 -57.9035 366.5 10.4639 431.3 29.3622C439.6 31.7708 447.9 33.1604 456.5 33.6236C518.7 36.8659 530.9 -27.7959 578.9 -38.2641C586.5 -39.9316 593.4 -41.0433 600.2 -41.5991C622.7 -43.2666 637.3 -37.9862 666.5 -32.7058C706.4 -25.48 733.4 -42.2476 778.9 -30.6677C823.2 -19.3658 834.2 30.3812 885.6 20.191C959.6 5.55404 1006.9 -67.0747 1069 -56.1434C1131.3 -45.212 1171.9 -6.39639 1259.7 -18.81C1280.3 -21.7744 1297.9 -25.2947 1313.5 -29.3708C1361.9 -42.0623 1383.4 -63.3692 1420.6 -54.6611C1465.7 -44.1003 1470.8 -17.6983 1506.3 -9.36082C1541.9 -0.930695 1542.2 -37.0598 1581.2 -39.561C1622.3 -42.2475 1654.8 14.4473 1698.5 17.2265C1739.8 19.8204 1763.5 -19.551 1797.6 -24.0903C1832.3 -28.6296 1866.4 -9.73137 1907.7 -25.5726C1951.5 -42.4328 1971.5 -81.3411 1971.5 -81.3411" stroke="url(#paint0_linear_1_150)" stroke-miterlimit="10"/>
<path d="M-9.70001 67.2514C-9.70001 67.2514 16.3 36.6806 51.2 32.234C84.7 27.8799 105.7 57.6169 157.1 36.31C207.6 15.559 216.9 -17.6983 269.7 -17.6983C348.3 -17.9763 350.2 56.5979 421.8 75.1257C430.9 77.5343 439.9 78.646 448.9 78.8312C514.4 79.8503 529.9 10.5565 578.6 -0.652785C586.9 -2.50556 594.2 -3.89515 601.3 -4.54362C625.3 -6.67431 640.1 -1.11597 672.3 4.16444C715.6 11.2976 743.5 -11.2136 792.7 1.57051C840.8 14.0767 848.2 73.4582 902.9 63.6385C971.9 51.2249 1016.6 -16.0308 1074 -10.1019C1131.9 -4.17307 1170.6 25.7492 1251.4 14.0767C1270.5 11.2976 1287.1 8.33317 1302 4.90554C1346.9 -5.28472 1367.9 -22.8861 1402.5 -13.9928C1443.7 -3.43197 1449.7 20.932 1482.4 29.5474C1515.2 38.2555 1517 7.77732 1552.8 6.85093C1591.1 5.8319 1622.2 56.6906 1663.6 59.0992C1710 61.6931 1735.4 15.6516 1773.7 12.1313C1812.5 8.61108 1850.9 33.8088 1898.6 17.5044C1948.5 0.366218 1971.2 -43.2666 1971.2 -43.2666" stroke="url(#paint1_linear_1_150)" stroke-miterlimit="10"/>
<path d="M-9.70001 109.865C-9.70001 109.865 13.5 81.2398 45.5 74.7551C75.8 68.641 96.2 91.5228 143.3 71.4202C189.3 51.7807 200.6 22.1364 249.8 22.0437C330.5 21.7658 333.9 102.361 412.3 120.519C422.2 122.835 431.9 123.761 441.4 123.668C510.2 122.464 529 48.5384 578.5 36.6806C587.4 34.5499 595.2 33.0677 602.6 32.234C628.2 29.6401 643.1 35.569 678.3 40.7568C725 47.7047 753.7 19.5425 806.6 33.4383C858.5 47.1488 862.2 115.979 920.3 106.623C984.3 96.34 1026.3 34.4573 1079.2 35.3837C1132.6 36.3101 1169.4 57.3391 1243.3 46.4077C1260.9 43.7212 1276.6 41.3126 1290.7 38.7187C1332.2 31.0297 1352.6 17.1339 1384.7 26.2125C1421.9 36.7733 1429 59.0992 1458.8 67.9925C1488.7 76.9785 1492.2 50.4838 1524.8 52.7998C1560.3 55.301 1590 98.5633 1629.1 100.509C1680.7 103.103 1707.8 50.3911 1750.2 47.8899C1793 45.3887 1835.7 76.9785 1890 60.1182C1946.1 42.7021 1971.4 -5.65527 1971.4 -5.65527" stroke="url(#paint2_linear_1_150)" stroke-miterlimit="10"/>
<path d="M-9.70001 152.572C-9.70001 152.572 10.7 125.892 39.9 117.369C66.9 109.495 86.8 125.614 129.6 106.623C171.1 88.1878 184.4 61.971 229.9 61.8784C312.8 61.5078 317.7 148.31 402.9 166.097C413.6 168.32 423.9 169.154 434 168.598C506.1 165.171 528.2 86.5203 578.4 74.014C588 71.6054 596.3 69.9379 603.9 69.1042C631 66.0471 646.1 72.2539 684.3 77.5343C734.5 84.3896 764 50.5765 820.5 65.5839C876.2 80.4061 876.2 158.686 937.7 149.978C996.7 141.548 1036.1 85.316 1084.3 81.3325C1133.2 77.2564 1168.2 89.3921 1235.2 79.2018C1251.4 76.7006 1265.9 74.7551 1279.4 72.9024C1317.4 67.6219 1337.4 57.4317 1366.8 66.7882C1400.1 77.349 1408.1 97.6369 1435.1 106.808C1462.2 116.165 1467.2 97.0811 1496.6 99.1192C1529.5 101.435 1557.6 140.714 1594.5 142.289C1651.2 144.697 1680 85.5012 1726.6 84.019C1773.5 82.5368 1820.5 120.426 1881.2 103.103C1943.5 85.4086 1971.4 32.3266 1971.4 32.3266" stroke="url(#paint3_linear_1_150)" stroke-miterlimit="10"/>
<path d="M-9.70001 195.278C-9.70001 195.278 7.89999 170.636 34.2 159.983C58 150.441 77.3 159.797 115.7 141.826C152.7 124.502 168 101.806 209.8 101.713C294.8 101.342 301.2 194.259 393.2 211.675C404.7 213.899 415.7 214.454 426.2 213.621C501.7 207.97 527 124.687 578 111.44C588.3 108.754 597 106.901 605 105.974C633.7 102.361 648.9 109.031 690.1 114.219C743.7 120.982 774.1 81.4251 834.3 97.6369C893.9 113.663 890.1 201.207 955 193.147C1008.9 186.477 1045.8 136.082 1089.4 127.003C1133.9 117.832 1166.9 121.167 1227 111.718C1241.7 109.402 1255.2 107.92 1268.1 106.901C1302.6 103.936 1322.1 97.6369 1348.9 107.179C1378.2 117.647 1387.3 135.897 1411.4 145.439C1435.6 155.073 1442.2 141.733 1468.4 145.346C1498.7 149.422 1525.2 182.679 1559.8 183.976C1621.6 186.2 1652.2 120.426 1702.9 119.963C1753.9 119.314 1805.2 163.688 1872.4 145.994C1940.8 127.93 1971.4 70.1232 1971.4 70.1232" stroke="url(#paint4_linear_1_150)" stroke-miterlimit="10"/>
<path d="M-9.70001 237.985C-9.70001 237.985 5.09999 215.381 28.6 202.689C49.2 191.48 67.9 193.981 102 177.121C134.5 161.002 151.8 141.826 189.9 141.64C277.1 141.177 285 240.301 383.8 257.253C396.1 259.384 407.7 259.755 418.8 258.643C497.6 250.861 526.2 162.762 577.9 148.959C588.8 145.994 598 144.049 606.3 142.937C636.5 138.861 651.9 145.902 696.1 151.089C753.2 157.759 784.4 112.459 848.2 129.783C911.6 147.013 904.1 243.45 972.4 236.41C1021.2 231.407 1055.5 186.755 1094.6 172.86C1134.6 158.593 1165.7 153.22 1219 144.419C1232.3 142.196 1244.8 142.196 1256.9 140.992C1287.8 137.842 1306.9 137.842 1331.2 147.662C1356.6 158.037 1366.7 174.342 1387.9 184.161C1409.3 194.074 1417.5 186.663 1440.4 191.573C1468 197.501 1493 224.737 1525.3 225.664C1592.3 227.516 1624.5 155.443 1679.4 155.999C1734.5 156.37 1790 207.043 1863.7 188.886C1938.3 170.544 1971.5 108.012 1971.5 108.012" stroke="url(#paint5_linear_1_150)" stroke-miterlimit="10"/>
<path d="M-9.70001 280.691C-9.70001 280.691 2.39999 260.311 22.9 245.303C40.4 232.519 58.4 228.165 88.2 212.324C116.3 197.409 135.5 181.66 169.9 181.475C259.2 181.012 268.6 286.435 374.2 302.832C387.3 304.87 399.6 305.055 411.2 303.573C493.3 293.568 525.2 200.744 577.7 186.292C589.3 183.142 598.9 180.919 607.5 179.715C639.3 175.083 654.8 182.679 702 187.682C762.5 194.352 794.5 143.215 862 161.743C929.2 180.178 918 285.23 989.7 279.579C1033.5 276.152 1065.2 237.429 1099.6 218.623C1135.1 199.262 1164.4 185.088 1210.7 177.121C1222.5 175.083 1233.9 174.527 1245.4 175.176C1272.9 176.565 1291.5 178.047 1313.1 188.238C1334.6 198.428 1345.6 212.879 1364 222.977C1382.5 233.167 1392.3 231.685 1412.1 237.892C1437 245.766 1460.5 266.795 1490.5 267.444C1562.6 268.833 1596.6 190.554 1655.6 192.128C1714.8 193.518 1774.6 250.491 1854.7 231.87C1935.4 213.157 1971.3 145.994 1971.3 145.994" stroke="url(#paint6_linear_1_150)" stroke-miterlimit="10"/>
<path d="M-9.70001 323.397C-9.70001 323.397 -0.200012 305.148 17.3 287.917C31.8 273.558 49 262.256 74.5 247.526C98.1 233.816 119.3 221.495 150.1 221.31C241.5 220.754 252.5 332.291 364.8 348.41C378.8 350.448 391.7 350.355 403.7 348.595C489.2 336.367 524.2 238.818 577.5 223.811C589.7 220.383 599.8 218.067 608.7 216.678C642 211.49 657.7 219.457 708 224.552C771.9 231.037 804.8 174.342 876 193.981C947 213.621 932 326.825 1007.2 322.934C1046 320.896 1075 288.195 1104.9 264.479C1135.9 239.93 1163.3 217.048 1202.7 209.822C1213 207.877 1223.4 207.784 1234.2 209.267C1258.3 212.694 1276.4 218.067 1295.3 228.721C1312.9 238.633 1324.9 251.325 1340.3 261.7C1356 272.261 1367.3 276.707 1383.9 284.211C1406 294.124 1428 308.853 1455.8 309.224C1533 310.057 1568.7 225.756 1631.9 228.257C1695.2 230.666 1759.2 293.846 1845.9 274.947C1932.8 255.771 1971.3 184.069 1971.3 184.069" stroke="url(#paint7_linear_1_150)" stroke-miterlimit="10"/>
<defs>
<linearGradient id="paint0_linear_1_150" x1="-9.70001" y1="-23.7999" x2="1971.5" y2="-23.7999" gradientUnits="userSpaceOnUse">
<stop stop-color="#C482E6"/>
<stop offset="1" stop-color="white"/>
</linearGradient>
<linearGradient id="paint1_linear_1_150" x1="-9.70001" y1="17.7879" x2="1971.2" y2="17.7879" gradientUnits="userSpaceOnUse">
<stop stop-color="#C482E6"/>
<stop offset="1" stop-color="white"/>
</linearGradient>
<linearGradient id="paint2_linear_1_150" x1="-9.70001" y1="59.0097" x2="1971.4" y2="59.0097" gradientUnits="userSpaceOnUse">
<stop stop-color="#C482E6"/>
<stop offset="1" stop-color="white"/>
</linearGradient>
<linearGradient id="paint3_linear_1_150" x1="-9.70001" y1="100.546" x2="1971.4" y2="100.546" gradientUnits="userSpaceOnUse">
<stop stop-color="#C482E6"/>
<stop offset="1" stop-color="white"/>
</linearGradient>
<linearGradient id="paint4_linear_1_150" x1="-9.70001" y1="142.056" x2="1971.4" y2="142.056" gradientUnits="userSpaceOnUse">
<stop stop-color="#C482E6"/>
<stop offset="1" stop-color="white"/>
</linearGradient>
<linearGradient id="paint5_linear_1_150" x1="-9.70001" y1="183.633" x2="1971.5" y2="183.633" gradientUnits="userSpaceOnUse">
<stop stop-color="#C482E6"/>
<stop offset="1" stop-color="white"/>
</linearGradient>
<linearGradient id="paint6_linear_1_150" x1="-9.70001" y1="225.27" x2="1971.3" y2="225.27" gradientUnits="userSpaceOnUse">
<stop stop-color="#C482E6"/>
<stop offset="1" stop-color="white"/>
</linearGradient>
<linearGradient id="paint7_linear_1_150" x1="-9.70001" y1="266.998" x2="1971.3" y2="266.998" gradientUnits="userSpaceOnUse">
<stop stop-color="#C482E6"/>
<stop offset="1" stop-color="white"/>
</linearGradient>
</defs>
</svg>
