<svg xmlns="http://www.w3.org/2000/svg" width="108" height="100" viewBox="0 0 108 100" fill="none">
  <path d="M76.1004 56.7099C75.6 56.0385 74.925 55.5264 74.378 54.9119C74.1336 54.6387 73.8659 54.3542 73.7147 54.0242C73.6797 53.9446 73.6448 53.7739 73.5634 53.6487C73.2957 53.2162 72.8069 53.0455 72.3297 52.9431C72.3065 52.9431 72.2948 52.9317 72.2715 52.9317C72.1784 52.761 71.7246 52.2603 69.4552 50.3712C68.1401 49.2673 66.4759 47.9358 65.9871 47.6172C65.8009 47.5034 65.5914 47.3441 65.3353 47.1734C64.3345 46.4792 62.9728 45.5233 61.7858 45.307C61.4366 44.8291 59.7957 42.5986 59.2836 42.0751C59.4815 41.4264 59.6677 40.7777 59.8306 40.1291C59.9819 39.469 60.1216 38.7862 60.1216 38.0807C60.1099 36.6923 59.7026 35.2698 58.8065 34.1773C57.9453 33.1189 56.9095 32.2426 55.8272 31.4347L55.9552 28.8627L56.0134 27.5313C56.025 27.3037 56.0134 27.1443 56.1065 26.9509C56.1996 26.7574 56.3509 26.564 56.5371 26.4843C57.119 26.655 58.1315 27.2581 58.7366 27.5426L61.1573 28.7717C64.253 30.3535 67.8724 32.3678 70.6772 33.8017C71.2474 34.6325 71.8293 35.4518 72.5741 36.1574C72.9582 36.5443 73.4703 36.8288 74.0638 36.7492C75.1228 36.6809 74.9599 35.6225 74.6573 34.9397C74.5991 34.7804 74.4828 34.6211 74.3547 34.4845C73.7147 33.7107 73.0164 32.9937 72.3414 32.254C71.9922 31.833 71.2474 31.2526 70.8401 30.8998C69.909 30.1715 68.6638 29.0562 67.6862 28.4075C65.3121 26.894 62.9263 25.2325 60.5638 23.7189C59.7724 23.2637 58.2595 22.5126 57.4448 22.0688C56.8513 21.7615 56.2578 21.4543 55.6526 21.1584C55.1871 20.9535 54.7332 20.669 54.3957 20.2935C56.7582 20.1911 58.6552 18.2906 58.6552 15.9463C58.6552 15.5821 58.6086 15.218 58.5155 14.8652C58.5388 14.8766 58.5504 14.8766 58.5504 14.8879C58.5853 14.9107 58.6435 14.9107 58.6784 14.8993C58.725 14.8879 58.7599 14.8538 58.7716 14.8083C59.1672 13.8751 59.2022 13.0557 58.853 12.3729C58.3875 11.4397 57.3983 11.0528 57.0957 10.9618C56.7349 9.99447 55.4198 9.33442 53.7672 9.32304C52.5802 9.31166 51.1487 9.66445 50.1129 10.5862C49.8918 10.3814 48.9841 9.63031 47.5759 9.92619C46.575 10.131 45.8534 11.1666 45.9349 12.2819C46.0047 13.2378 46.7496 14.2962 48.6116 14.4327C48.4138 17.6533 50.3457 18.3361 50.4504 18.3703C50.4621 18.3703 50.4853 18.3816 50.497 18.3816C50.6017 18.5296 50.7065 18.6661 50.8228 18.8027C50.4853 19.2807 49.9151 19.8497 49.3099 19.7814C49.1353 19.7359 48.9142 19.5993 48.728 19.4627C47.9716 18.9165 47.2267 18.2337 46.5866 17.5509C45.3297 16.2422 43.7586 14.4213 42.6647 13.363C42.2573 12.0088 41.85 10.6659 41.3379 9.3458C40.7677 8.03709 40.0228 6.84217 39.3129 5.61312C38.5565 4.4182 37.9513 3.08673 36.8806 2.11942C36.2289 1.49351 33.0285 -1.29463 32.7491 0.719659C32.7375 1.47075 33.2961 2.07389 33.7849 2.586C34.1224 2.92741 34.4832 3.23467 34.8672 3.53055C35.228 3.80368 35.5888 4.06542 35.9263 4.37268C36.322 5.67002 36.7177 6.96735 37.1483 8.25331C37.5323 9.35718 38.1375 11.0187 38.5099 12.1339C38.8707 13.1126 39.1616 14.1027 39.6853 15.0359C40.6047 16.4811 41.5241 17.9606 42.4901 19.3717C43.1884 20.5097 44.2707 21.4998 44.678 22.7857C44.8642 23.423 44.8759 24.1286 44.9806 24.7886C45.225 26.4843 45.353 28.2141 45.8185 29.8756C46.3772 31.5143 47.1918 33.0506 48.0297 34.5642L48.0763 34.6438L48.1694 34.6552C48.2509 34.6666 48.3323 34.6666 48.4022 34.6666C48.4138 34.8259 48.4254 35.0535 48.4487 35.3494C48.4487 35.3608 48.4487 35.3836 48.4487 35.3949C48.5651 36.7037 48.8211 39.0024 49.3216 39.9129C50.2875 41.6426 52.6849 44.2032 53.0806 44.6356C52.8246 46.7409 52.5569 48.9145 52.3591 50.5874C51.8935 53.5576 51.1487 57.7341 50.6134 60.7499C50.4388 61.0116 50.3341 61.2847 50.2642 61.5806C50.1944 61.8879 50.206 62.2293 50.2991 62.5366C50.4853 63.1056 50.6832 63.6518 50.916 64.2094C51.3116 65.0743 51.6491 66.1099 52.4638 66.6903C53.1504 67.0317 54.419 67.3276 54.8845 66.5196C55.0241 66.2237 54.9078 65.8823 54.8263 65.5864C54.547 64.7443 54.0931 63.9705 53.7789 63.1511C53.6858 62.9235 53.6741 62.5593 53.6509 62.2976L53.581 61.5806C53.9185 61.3985 54.128 61.0458 54.3142 60.7271C54.803 59.8053 55.1056 58.8153 55.3849 57.8252C56.1879 54.8663 56.7233 51.8506 57.1539 48.8235C57.1772 48.6983 57.247 48.4935 57.2819 48.3683C57.3284 48.2204 57.4797 47.7424 57.6427 47.253C58.6319 47.8562 62.9845 50.5191 63.4966 50.9061C63.8573 51.1792 65.1724 52.0441 66.3478 52.8179C67.1509 53.3414 67.8491 53.7966 68.0703 53.9673C68.1517 54.0242 68.2332 54.0925 68.3263 54.1608C68.9082 54.5819 69.6414 55.1167 70.1767 55.1395C70.1884 55.1395 70.1884 55.1395 70.2 55.1395C70.2815 55.1395 70.3746 55.1167 70.4677 55.0712C70.7819 55.7768 72.2483 56.6644 72.7371 56.9831C73.6448 57.5065 74.8319 57.939 75.8444 57.37C76.0422 57.2789 76.275 56.9603 76.1004 56.7099ZM59.0509 23.332C59.5513 23.5937 60.331 23.992 60.7849 24.3107C62.4724 25.3918 64.125 26.5412 65.8009 27.6337C66.0685 27.8158 67.6629 28.8286 67.8957 28.9993C68.1866 29.2155 68.7569 29.6821 69.0595 29.9325C69.8276 30.5811 71.2009 31.6395 71.8991 32.3223C72.6207 33.1189 73.3772 33.8928 74.0638 34.7235C74.1569 34.8487 74.25 34.9397 74.3082 35.0877C74.4595 35.4291 74.6573 36.0322 74.3897 36.2826C74.2151 36.4305 73.8659 36.4305 73.575 36.385C73.4586 36.3623 73.319 36.294 73.2026 36.2029C72.2832 35.4974 71.6198 34.5073 70.9681 33.5741C67.7677 31.8557 64.5672 30.1373 61.3435 28.4644C60.5289 28.0548 58.5039 27.0192 57.7125 26.6095C57.3983 26.4501 57.0957 26.2908 56.7582 26.177C56.6884 26.1543 56.5487 26.1087 56.444 26.1429C56.1647 26.2567 55.9552 26.4615 55.8272 26.7233C55.0009 24.9707 55.9901 22.5468 56.2927 21.8981C57.2121 22.3761 58.2013 22.8882 59.0509 23.332ZM58.3177 15.969C58.3177 18.1996 56.4672 20.009 54.1862 20.009C52.7198 20.009 51.3815 19.2579 50.6366 18.0402C50.5668 17.1867 50.6366 15.9121 51.0905 15.6504C51.719 15.2862 52.5453 16.1511 52.5453 16.1625C52.5802 16.1966 52.6384 16.2194 52.6849 16.208C52.7431 16.1966 52.7897 16.1625 52.8013 16.117C53.2203 15.2066 53.8487 14.6034 54.6634 14.3417C55.9435 13.932 57.3866 14.41 58.0849 14.7172C58.2478 15.1155 58.3177 15.548 58.3177 15.969ZM46.2608 12.2705C46.191 11.3146 46.7961 10.4269 47.6457 10.2562C48.9026 9.99447 49.694 10.6545 49.8802 10.8366C49.4961 11.2349 49.1819 11.7356 48.9841 12.3274C48.7978 12.9988 48.6931 13.602 48.6349 14.1368C47.2267 14.023 46.3422 13.3402 46.2608 12.2705ZM49.2866 12.4184C49.9616 10.3814 52.0797 9.66445 53.7091 9.66445C53.7323 9.66445 53.744 9.66445 53.7672 9.66445C55.3151 9.67583 56.5371 10.279 56.8164 11.1666C56.828 11.2235 56.8746 11.2577 56.9328 11.269C56.9444 11.269 58.0966 11.5991 58.5737 12.5436C58.853 13.1126 58.8414 13.7841 58.5504 14.5579C58.0035 14.2962 56.2112 13.5223 54.6052 14.0458C53.7556 14.3189 53.1039 14.8993 52.65 15.787C52.3358 15.5025 51.6142 15.0017 50.9509 15.3773C50.2759 15.7756 50.2875 17.3119 50.3341 17.9719C49.7056 17.6305 48.2276 16.3446 49.2866 12.4184ZM51.0789 19.0872C51.8353 19.8155 52.8362 20.2594 53.9185 20.3163C54.1746 20.669 54.4772 20.9308 54.8379 21.1584C54.7914 21.2722 54.7099 21.3746 54.6517 21.477C54.5353 21.6705 54.4073 21.8526 54.2677 22.0233C53.7207 22.7061 53.1272 23.4117 52.3125 23.7986C51.5211 24.1855 50.5552 24.0945 49.8453 23.571C48.7746 22.7857 48.9957 21.2608 49.4147 20.1683C50.1129 20.1569 50.6832 19.6107 51.0789 19.0872ZM42.7578 19.201C41.7918 17.7899 40.8841 16.3104 39.9647 14.8652C39.4875 13.9889 39.1733 12.9874 38.8358 12.0429C38.4517 10.9163 37.8698 9.26614 37.4741 8.16227C37.0319 6.84217 36.6246 5.5107 36.2289 4.17922C35.1815 3.72401 32.8772 1.93733 32.9353 0.753799C33.1681 -0.987362 36.6013 2.1308 37.1832 2.82498C37.9164 3.7354 38.4285 4.79375 39.0453 5.78382C39.5108 6.59181 39.9763 7.41118 40.4185 8.24193C41.3263 9.88067 41.7569 11.7129 42.3039 13.4882C43.5608 14.979 44.9573 16.4015 46.2957 17.8354C46.831 18.4044 47.4129 18.9506 48.0414 19.4286C47.7155 21.3632 46.7263 23.1841 45.2948 24.5497C45.2134 23.9351 45.1901 23.3206 45.0155 22.7175C44.5733 21.3518 43.5026 20.3845 42.7578 19.201ZM46.1328 29.7959C45.6905 28.1685 45.5509 26.4729 45.3065 24.8114C46.8194 23.4344 47.8668 21.5795 48.216 19.5879C48.3091 19.6562 48.4022 19.7245 48.4953 19.7928C48.6698 19.9066 48.8444 20.0204 49.0539 20.1114C48.9259 20.487 48.8328 20.8739 48.7862 21.2608C48.6582 22.1712 48.856 23.2523 49.694 23.7872C50.4737 24.3334 51.556 24.4131 52.4056 23.9807C53.4414 23.4572 54.1047 22.4671 54.7681 21.5567C54.8379 21.4543 54.8961 21.3518 54.9776 21.2494C54.9892 21.2608 55.0009 21.2722 55.0241 21.2722C55.3616 21.4429 55.7224 21.6136 56.0948 21.8071C55.7806 22.4899 54.675 25.1073 55.7224 26.9964C55.6759 27.1671 55.6526 27.3492 55.6642 27.5313L55.606 28.8627C55.606 28.8627 55.4897 31.3777 55.478 31.4802C55.1172 32.0378 54.6634 32.5613 54.1513 32.9937C53.6276 33.4376 53.0341 33.779 52.3591 33.9724C51.0556 34.3593 49.6358 34.439 48.2741 34.3366C47.4595 32.8572 46.6681 31.3777 46.1328 29.7959ZM52.4638 34.3024C53.5461 33.9838 54.4655 33.301 55.1871 32.4589C54.7797 33.4717 54.0466 34.3821 52.9991 34.8032C51.6957 35.338 50.1711 35.4518 48.7862 35.2242C48.7746 35.0194 48.7629 34.8487 48.7513 34.7121C49.9966 34.7576 51.2535 34.6552 52.4638 34.3024ZM54.3026 64.8467C54.4888 65.3133 54.7099 65.7799 54.7216 66.2806C54.6168 66.9407 53.6858 66.8838 53.1737 66.7358C52.5685 66.6107 52.1961 66.2237 51.9168 65.7116C51.6259 65.2109 51.3931 64.676 51.1836 64.1298C50.9741 63.5835 50.7763 63.0259 50.6017 62.4683C50.4621 62.0358 50.5668 61.5579 50.7879 61.1482C51.4397 61.8196 52.5336 61.8196 53.4297 61.6375C53.453 61.9903 53.4996 62.5366 53.5112 62.7642C53.5927 63.5039 54.0466 64.1639 54.3026 64.8467ZM56.8978 48.2886C56.8513 48.4366 56.7815 48.6642 56.7466 48.8121C56.5138 50.485 56.2228 52.1579 55.9086 53.808C55.5362 55.5264 54.675 60.2833 53.3832 61.2961C52.9875 61.3644 51.9401 61.4896 51.3931 61.1596C51.2185 61.0685 51.0789 60.9433 50.9625 60.7954C51.4978 57.791 52.2427 53.6259 52.7082 50.6671C53.069 47.7424 53.5927 43.361 53.9884 40.4022C54 40.3225 53.9535 40.2429 53.872 40.2087C52.8595 39.8446 51.7772 39.4918 50.9625 38.7635C51.6724 39.5487 52.6616 40.0267 53.6043 40.4819C53.453 41.5744 53.2901 42.8603 53.1272 44.1918C52.4172 43.4179 50.4504 41.2443 49.6358 39.7763C49.1819 38.9683 48.9375 36.9085 48.8211 35.5998C49.5194 35.7136 50.206 35.7136 50.8927 35.6567C52.9759 35.5087 54.7216 34.6438 55.5013 32.6523C55.6177 32.3906 55.6991 32.1175 55.769 31.8443C56.8978 32.7092 58.0151 33.6538 58.8297 34.8032C59.4582 35.7591 59.7608 36.954 59.7724 38.0807C59.7724 38.7407 59.6444 39.4007 59.4931 40.0494C58.7832 42.792 57.7591 45.5688 56.8978 48.2886ZM70.1767 54.7981C69.7461 54.7753 69.0478 54.2632 68.5241 53.8877C68.431 53.8194 68.3379 53.7511 68.2565 53.6942C68.0237 53.5235 67.3254 53.0683 66.5224 52.5448C65.3586 51.7823 64.0435 50.9174 63.6944 50.6443C63.1474 50.2233 58.5504 47.4237 57.7241 46.923C57.8638 46.5019 57.9918 46.115 58.0384 45.9671C58.4108 44.7949 58.8065 43.6342 59.1789 42.462C59.6677 43.031 60.8198 44.5559 61.553 45.5574L61.5996 45.6143L61.681 45.6257C62.8099 45.7964 64.2181 46.7865 65.1491 47.4465C65.4052 47.6286 65.6263 47.7765 65.8125 47.9017C66.697 48.4707 71.5034 52.4424 71.9457 53.0228C71.8875 53.1593 71.6198 53.5576 71.2009 54.0128C70.6888 54.5705 70.3164 54.8208 70.1767 54.7981ZM75.8793 56.9603C75.5534 57.4383 74.8086 57.4383 74.2616 57.3358C73.2608 57.131 72.4112 56.4937 71.6315 55.8792C71.3172 55.5947 70.9216 55.3216 70.7703 54.9232C70.8866 54.8436 71.003 54.7412 71.131 54.616C71.5384 54.2291 72.1435 53.5235 72.2832 53.1593C72.2948 53.1593 72.2948 53.1593 72.3065 53.1593C72.7022 53.239 73.1677 53.4097 73.3772 53.7625C73.7845 54.9915 75.0065 55.754 75.7978 56.7441C75.8211 56.7782 75.8677 56.8351 75.8793 56.8806C75.9026 56.9034 75.8909 56.9148 75.8793 56.9603Z" fill="black"/>
  <path d="M13.6862 81.53C13.5 81.1886 13.244 80.9155 12.9297 80.6879C12.6155 80.4603 12.2431 80.2896 11.8241 80.1872C11.5448 80.1075 11.347 80.0506 11.1142 80.0165C11.4052 79.7775 11.7078 79.5157 11.8591 79.345C12.1151 79.0605 12.3246 78.7419 12.4759 78.3891C12.6272 78.0363 12.697 77.6608 12.697 77.2738C12.697 76.6252 12.5341 76.0675 12.2198 75.5782C11.894 75.1002 11.475 74.6906 10.9629 74.3719C10.4392 74.0533 9.85733 73.8029 9.2056 73.6322C8.55388 73.4615 7.90216 73.3818 7.25043 73.3818C6.23793 73.3818 5.29526 73.507 4.41078 73.746C3.52629 73.9964 2.75819 74.3491 2.10647 74.8271C1.45474 75.3051 0.931035 75.8968 0.558621 76.6138C0.186207 77.3307 0 78.1615 0 79.106C0 79.7547 0.151293 80.3806 0.442242 80.9838C0.73319 81.5869 1.14052 82.1218 1.64095 82.5884C2.14138 83.055 2.73491 83.4305 3.39828 83.715C4.06164 83.9995 4.78319 84.1475 5.52802 84.1475L5.66767 83.9654C5.60948 83.9654 5.56293 83.9654 5.52802 83.9767C5.48147 83.9881 5.43491 83.9881 5.38836 83.9881C4.6319 83.9881 3.96853 83.8288 3.375 83.5102C2.7931 83.1915 2.29267 82.7932 1.88534 82.2925C1.47802 81.7918 1.16379 81.2455 0.95431 80.631C0.744828 80.0278 0.640086 79.4247 0.640086 78.8443C0.640086 78.0249 0.814655 77.2852 1.16379 76.6252C1.51293 75.9651 1.99009 75.4189 2.59526 74.9637C3.20043 74.5085 3.91035 74.1671 4.70172 73.9167C5.50474 73.6663 6.35431 73.5525 7.25043 73.5525C7.89052 73.5525 8.49569 73.6208 9.06595 73.7801C9.63621 73.9281 10.125 74.1557 10.5556 74.4516C10.9746 74.7475 11.3121 75.123 11.5565 75.5782C11.8009 76.0334 11.9289 76.5569 11.9289 77.16C11.9289 77.4901 11.8591 77.8656 11.731 78.2753C11.603 78.685 11.4052 79.0491 11.1608 79.3905C11.0444 79.5499 10.8233 79.7661 10.6022 79.9823C10.5905 79.9823 10.5789 79.9823 10.5789 79.9823C10.4741 79.9709 10.253 79.9709 10.253 79.9709C10.253 79.9709 9.90388 79.9709 9.71767 79.9709H7.39009V76.3293C7.39009 76.0789 7.44828 75.8513 7.55302 75.6579C7.65776 75.4644 7.8556 75.3278 8.13491 75.2596H5.92371C6.17974 75.3278 6.35431 75.4644 6.47069 75.6579C6.58707 75.8513 6.64526 76.0675 6.64526 76.3065V84.5002C6.64526 84.7392 6.58707 84.9554 6.48233 85.1603C6.37759 85.3651 6.17974 85.5017 5.92371 85.57H10.1134C10.5672 85.57 11.0211 85.5131 11.4866 85.4106C11.9405 85.3082 12.3595 85.1375 12.7203 84.9099C13.0927 84.6823 13.3836 84.3978 13.6164 84.0336C13.8491 83.6695 13.9539 83.2484 13.9539 82.7363C13.9655 82.2697 13.8724 81.86 13.6862 81.53ZM12.2198 84.7051C11.6961 85.1717 10.9978 85.3993 10.1134 85.3993H7.39009V80.1303H10.1134C10.2065 80.1303 10.2996 80.1303 10.3927 80.1416C10.5556 80.153 10.7069 80.1644 10.8582 80.1985C11.3819 80.301 11.8358 80.4944 12.2082 80.8131C12.7435 81.2569 12.9996 81.9056 12.9996 82.7477C12.9996 83.5898 12.7435 84.2385 12.2198 84.7051Z" fill="black"/>
  <path d="M26.2904 85.8886V85.9119H26.1854L26.2437 85.9003C26.267 85.9003 26.2787 85.9003 26.2904 85.8886Z" fill="black"/>
  <path d="M37.3345 85.5358C36.9039 85.9 36.4849 86.2073 36.0659 86.4804C35.647 86.7535 35.1582 86.947 34.5763 87.0835C34.1108 87.1859 33.6569 87.2201 33.203 87.1746C32.7491 87.129 32.2952 87.038 31.853 86.9128C31.4108 86.7876 30.9569 86.6397 30.503 86.4804C30.0491 86.3211 29.5952 86.1731 29.1297 86.0479C28.6758 85.9227 28.1987 85.8431 27.7099 85.7976C27.2444 85.7634 26.7672 85.7862 26.2784 85.9C26.2668 85.9 26.2435 85.9 26.2319 85.9114L26.1737 85.9227H24.8004C25.0797 85.8545 25.2659 85.7179 25.3707 85.5244C25.4754 85.331 25.5336 85.1034 25.5336 84.8416V76.6252C25.5336 76.3748 25.4871 76.1472 25.3707 75.9537C25.2659 75.7603 25.0681 75.6351 24.8004 75.5668H26.9767C26.6974 75.6351 26.5112 75.7603 26.4181 75.9537C26.3133 76.1472 26.2668 76.3634 26.2668 76.6252V85.7065C26.9883 85.5813 27.7099 85.5813 28.4082 85.6951C29.1646 85.8203 29.9095 85.9569 30.6659 86.1276C31.4224 86.2983 32.1672 86.4349 32.9237 86.5487C33.6685 86.6511 34.425 86.6169 35.1814 86.4462C35.6004 86.3438 35.9612 86.2186 36.2638 86.0593C36.5664 85.9 36.8806 85.6951 37.2297 85.4334L37.3345 85.5358Z" fill="black"/>
  <path d="M38.7078 82.3835C38.4052 82.6908 38.1026 82.9639 37.8 83.2029C37.4974 83.4419 37.1367 83.624 36.706 83.7719C36.3569 83.8857 36.0078 83.9426 35.6586 83.9426C35.3095 83.9426 34.9487 83.9085 34.5996 83.8402C34.2504 83.7719 33.8897 83.6922 33.5289 83.6012C33.1681 83.5102 32.8073 83.4305 32.4466 83.3736C32.0858 83.3053 31.7134 83.2826 31.341 83.2826C31.1431 83.2826 30.9569 83.3053 30.7591 83.3395H29.6302C29.8397 83.2826 29.991 83.1801 30.0724 83.0322C30.1539 82.8729 30.2004 82.7022 30.2004 82.5087V76.17C30.2004 75.9765 30.1539 75.8058 30.0724 75.6579C29.991 75.5099 29.8397 75.4075 29.6302 75.362H31.3177C31.1082 75.4189 30.9569 75.5099 30.8871 75.6579C30.8056 75.8058 30.7707 75.9765 30.7707 76.17V83.2029C31.1431 83.146 31.5155 83.1232 31.8879 83.146C32.4698 83.1915 33.0634 83.237 33.6569 83.3167C34.2504 83.385 34.8323 83.4419 35.4142 83.476C35.9961 83.5102 36.578 83.4305 37.1367 83.237C37.4509 83.1346 37.7185 83.0094 37.9397 82.8615C38.1608 82.7136 38.3819 82.5315 38.6263 82.3152L38.7078 82.3835Z" fill="black"/>
  <path d="M48.344 75.3847C48.344 75.4189 48.3091 75.453 48.2741 75.453C47.7853 75.453 47.2966 75.7148 46.7845 76.2496C46.2841 76.7845 45.8418 77.4218 45.4927 78.1729C45.1319 78.924 44.841 79.6978 44.6082 80.5058C44.3754 81.3138 44.2707 81.9966 44.2707 82.5656V84.5458C44.2707 84.8644 44.3987 85.1148 44.678 85.2741C44.806 85.3537 44.9457 85.3993 45.1086 85.3993H45.2599V85.5358H42.4319V85.3993H42.5948C42.816 85.3993 43.0022 85.3196 43.1651 85.1603C43.328 85.001 43.4211 84.7961 43.4211 84.5685V82.5542C43.4211 81.9511 43.3047 81.2455 43.0604 80.4375C42.816 79.6295 42.5134 78.8557 42.1293 78.1046C41.7453 77.3649 41.2914 76.739 40.7677 76.2269C40.244 75.7148 39.7203 75.4644 39.2198 75.453H39.2082C39.1733 75.453 39.1384 75.4189 39.1384 75.3847C39.1384 75.3506 39.1616 75.3165 39.2082 75.3165C39.2082 75.3165 39.2082 75.3165 39.2198 75.3165H39.5341C39.6853 75.3165 39.9065 75.3392 40.1741 75.3961C40.4418 75.453 40.6862 75.5327 40.919 75.6351C41.1517 75.7375 41.3729 75.8855 41.594 76.0789C41.8151 76.2724 42.0013 76.4545 42.1642 76.6138C42.3155 76.7845 42.4785 77.0007 42.6414 77.2625C42.8043 77.5356 42.9323 77.7632 43.0254 77.9567C43.1302 78.1501 43.2349 78.3891 43.3629 78.6964C43.5142 79.0833 43.6422 79.4133 43.7353 79.6978C43.8285 79.9823 43.8866 80.1303 43.8866 80.1644C43.8983 80.1872 43.9099 80.2213 43.9216 80.2554C43.9448 80.3237 43.9681 80.392 43.9914 80.4489C44.0147 80.392 44.0729 80.2213 44.1776 79.9482C44.2707 79.6751 44.3638 79.4361 44.4453 79.2198C44.5267 79.0036 44.6547 78.6964 44.8293 78.2981C45.0039 77.8998 45.1552 77.5925 45.3065 77.3535C45.4461 77.1259 45.6323 76.8642 45.8535 76.5683C46.0746 76.2724 46.3073 76.0448 46.5285 75.8855C47.0754 75.4985 47.669 75.3051 48.2858 75.3051C48.3091 75.3165 48.344 75.3392 48.344 75.3847Z" fill="black"/>
  <path d="M63.2871 77.9225C62.8449 77.16 62.1699 76.5569 61.2737 76.1245C60.3776 75.692 59.2836 75.4644 57.9802 75.4644H54.2328V75.5327C54.4888 75.5327 54.6867 75.601 54.8612 75.7489C55.0242 75.8968 55.1056 76.1017 55.1056 76.3521V84.853C55.1056 85.1034 55.0242 85.3082 54.8612 85.4562C54.6983 85.6041 54.4888 85.6724 54.2328 85.6724V85.7407H57.8289C59.0625 85.7407 60.1449 85.5131 61.0643 85.0579C61.9836 84.6027 62.6936 83.9767 63.2056 83.1915C63.7061 82.4063 63.9621 81.5186 63.9621 80.5399C63.9621 79.5613 63.7293 78.685 63.2871 77.9225ZM62.4957 83.1574C62.1 83.9085 61.5065 84.4889 60.7151 84.9099C59.9237 85.331 58.9694 85.5472 57.8289 85.5472H56.8397C56.5138 85.5472 56.2927 85.5017 56.1647 85.3993C56.0367 85.2968 55.9668 85.1148 55.9668 84.853V76.3521C55.9668 76.0903 56.0367 75.9082 56.1647 75.8058C56.2927 75.7034 56.5255 75.6579 56.8397 75.6579H58.0151C61.3901 75.6692 63.0893 77.308 63.0893 80.5855C63.0893 81.5642 62.8914 82.4177 62.4957 83.1574Z" fill="black"/>
  <path d="M75.5186 85.4562C75.2974 85.3082 75.1345 85.1034 75.0298 84.8416L71.0612 75.453H70.5143L66.6272 84.6254C66.5224 84.8872 66.3362 85.1261 66.0918 85.3537C65.8358 85.57 65.5798 85.6838 65.2888 85.6838V85.752H67.3953V85.6838C67.1974 85.6838 67.0345 85.6269 66.9181 85.5131C66.8017 85.3993 66.7436 85.2399 66.7436 85.0579C66.7436 84.9554 66.7668 84.8416 66.8134 84.7165L68.0936 81.7007H72.772L74.2035 85.0579C74.2384 85.1489 74.2617 85.2286 74.2617 85.3082C74.2617 85.4448 74.2035 85.5472 74.0755 85.6041C73.9474 85.661 73.7962 85.6951 73.6216 85.6951V85.7634H76.1936V85.6951C75.9492 85.6838 75.728 85.6155 75.5186 85.4562ZM68.175 81.4959L70.4212 76.2041L72.6789 81.4959H68.175Z" fill="black"/>
  <path d="M85.5388 75.4644V75.5327C85.7948 75.5327 86.016 75.6124 86.2022 75.7831C86.3884 75.9538 86.4815 76.1927 86.4815 76.5V84.2726L79.3823 75.453H77.7414V75.5213C77.9974 75.5213 78.2302 75.601 78.4164 75.7717C78.6026 75.9424 78.6957 76.1814 78.6957 76.4886V84.6937C78.6957 85.0123 78.6026 85.2513 78.4164 85.4106C78.2302 85.5814 78.0091 85.661 77.7414 85.661V85.7293H79.8479V85.661C79.5918 85.661 79.3707 85.5814 79.1845 85.4106C78.9983 85.2399 78.9052 85.001 78.9052 84.6937V76.2041L86.7026 85.8659V76.4772C86.7026 76.1586 86.7957 75.9196 86.9819 75.7603C87.1681 75.5896 87.3892 75.5099 87.6569 75.5099V75.4417H85.5388V75.4644Z" fill="black"/>
  <path d="M98.0612 84.3637C97.0836 85.2399 95.8733 85.6724 94.4302 85.6724C93.4642 85.6724 92.5914 85.4334 91.8116 84.9668C91.0319 84.5002 90.4151 83.8402 89.9612 83.0208C89.5073 82.1901 89.2862 81.2569 89.2862 80.2213C89.2862 79.3223 89.4841 78.5143 89.8914 77.7973C90.2987 77.0804 90.869 76.5228 91.5905 76.1244C92.3237 75.7148 93.15 75.5099 94.081 75.5099C94.8259 75.5099 95.5241 75.6351 96.1759 75.8968C96.8276 76.1586 97.3513 76.591 97.7354 77.1828H97.8285L97.4211 75.3165H97.3513C97.3397 75.3847 97.2815 75.4303 97.1651 75.4416C97.0604 75.453 96.9091 75.4644 96.7461 75.4644C96.6298 75.4644 96.5017 75.4644 96.3621 75.453C96.2224 75.4416 96.0828 75.4303 95.9315 75.4189C95.1401 75.3506 94.5233 75.3165 94.0927 75.3165C93.0569 75.3165 92.1026 75.5441 91.2297 75.9993C90.3569 76.4545 89.6703 77.0918 89.1582 77.8997C88.6461 78.7077 88.4017 79.6181 88.4017 80.631C88.4017 81.5983 88.6461 82.4859 89.1233 83.2939C89.6004 84.1019 90.2754 84.7392 91.1366 85.2058C91.9979 85.6724 92.9754 85.9114 94.0694 85.9114C94.9073 85.9114 95.6522 85.7976 96.2922 85.57C96.9323 85.3424 97.5375 84.9782 98.1078 84.4775L98.0612 84.3637Z" fill="black"/>
  <path d="M22.6358 83.7947L22.2401 85.6269H22.1703C22.147 85.5358 21.9492 85.4789 21.5767 85.4789H14.7686V85.4106C15.013 85.4106 15.2224 85.3424 15.3854 85.1944C15.5483 85.0465 15.6298 84.853 15.6298 84.6027V76.2496C15.6298 75.9993 15.5483 75.8058 15.3854 75.6579C15.2224 75.5099 15.013 75.4416 14.7686 75.4416V75.3734H21.1229C21.4953 75.3734 21.6931 75.3278 21.7164 75.2254H21.7862L22.1819 77.0576H22.1005C21.9492 76.6935 21.763 76.352 21.5186 76.0334C21.2742 75.7261 21.0065 75.5668 20.6923 75.5668H17.3173C17.003 75.5668 16.7819 75.6123 16.6539 75.7148C16.5259 75.8058 16.4677 75.9879 16.4677 76.2496V80.0961H18.8069C18.8535 80.0847 18.9 80.0734 18.9349 80.0506C19.2026 79.9482 19.4237 79.7775 19.4237 79.493V80.9041C19.4237 80.5741 19.1328 80.392 18.8186 80.301H16.4677V84.614C16.4677 84.8758 16.5259 85.0579 16.6539 85.1489C16.7819 85.2399 17.003 85.2968 17.3173 85.2968H21.1345C21.4371 85.2968 21.7164 85.1375 21.9608 84.8303C22.2052 84.523 22.3914 84.1816 22.5427 83.806H22.6358V83.7947Z" fill="black"/>
  <path d="M108 83.7947L107.604 85.6269H107.523C107.5 85.5358 107.302 85.4789 106.929 85.4789H100.133V85.4106C100.377 85.4106 100.587 85.3424 100.75 85.1944C100.912 85.0465 100.994 84.853 100.994 84.6027V76.2496C100.994 75.9993 100.912 75.8058 100.75 75.6579C100.587 75.5099 100.377 75.4416 100.133 75.4416V75.3734H106.487C106.859 75.3734 107.057 75.3278 107.081 75.2254H107.15L107.546 77.0576H107.453C107.302 76.6935 107.116 76.352 106.871 76.0334C106.627 75.7261 106.359 75.5668 106.045 75.5668H102.67C102.356 75.5668 102.134 75.6123 102.006 75.7148C101.878 75.8058 101.82 75.9879 101.82 76.2496V80.0961H104.159C104.206 80.0847 104.253 80.0734 104.287 80.0506C104.555 79.9482 104.776 79.7775 104.776 79.493V80.9041C104.776 80.5741 104.485 80.392 104.171 80.301H101.82V84.614C101.82 84.8758 101.878 85.0579 102.006 85.1489C102.134 85.2399 102.356 85.2968 102.67 85.2968H106.487C106.79 85.2968 107.069 85.1375 107.313 84.8303C107.558 84.523 107.744 84.1816 107.895 83.806H108V83.7947Z" fill="black"/>
  <path d="M25.8478 99.67L25.8606 99.6828V99.67H25.8478Z" fill="black"/>
  <path d="M32.0974 93.1491L31.3758 93.206V99.9317H30.9452V98.9872C29.7582 95.3341 26.8138 93.7409 25.9176 93.3312L25.8595 99.6586H25.8478L25.8595 99.67V99.6586L26.6508 99.7269V99.9203H24.684V99.7269L25.487 99.67V92.9443C25.5918 92.9557 25.8595 93.0353 25.9176 93.0581C26.6508 93.3768 29.537 94.822 30.9336 98.2361V93.206L30.1306 93.1491V92.9557H32.0974V93.1491Z" fill="black"/>
  <path d="M25.8721 99.67V99.6821L25.8478 99.67H25.8721Z" fill="black"/>
  <path d="M23.8228 99.7156C23.6715 99.4538 23.2874 98.68 23.1478 98.3841L20.4245 93.0127C20.4129 92.9899 20.4012 92.9785 20.3547 92.9785C20.3198 92.9785 20.2965 92.9899 20.2732 93.0127L17.8176 98.441C17.7012 98.7028 17.2124 99.4197 17.0262 99.6928L16.2698 99.7497V99.9432H18.0969V99.7497L17.4801 99.6928C17.5965 99.4083 17.9573 98.7369 18.0387 98.5321L18.1435 98.3045L18.1551 98.3158C18.1668 98.2931 19.7495 96.5974 21.4952 96.0739L22.9732 99.0669C22.9965 99.1238 23.2293 99.5221 23.3107 99.7042L22.3797 99.7384V99.9318H24.2068V99.7497L23.8228 99.7156ZM18.4228 97.7013L19.0978 96.1991L19.1909 95.9943L20.3431 93.5817L21.437 95.8577C20.215 96.2446 18.9698 97.1664 18.4228 97.7013Z" fill="black"/>
  <path d="M97.328 98.2135C97.328 98.5094 97.2582 98.7597 97.1301 98.9873C96.9905 99.2149 96.8043 99.397 96.5483 99.545C96.2922 99.6929 95.9896 99.8067 95.6289 99.8864C95.2681 99.9547 94.8724 100 94.4301 100C93.9879 100 93.5806 99.966 93.2082 99.8864C92.8357 99.8067 92.475 99.6929 92.1491 99.545C91.8233 99.3856 91.509 99.1922 91.2181 98.9532L91.4625 98.7028C91.6487 98.8735 91.8465 99.0215 92.0676 99.1467C92.2888 99.2718 92.5215 99.3856 92.7659 99.4653C93.0103 99.545 93.278 99.6133 93.5573 99.6588C93.8366 99.7043 94.1276 99.727 94.4418 99.727C95.2099 99.727 95.8151 99.6019 96.2573 99.3629C96.6995 99.1125 96.9207 98.7597 96.9207 98.2818C96.9207 97.9517 96.8276 97.69 96.6297 97.4852C96.4435 97.2917 96.1409 97.121 95.7569 96.9958C95.3612 96.8706 94.8607 96.7568 94.2556 96.6544C93.662 96.552 93.1616 96.4382 92.7543 96.313C92.347 96.1878 92.0327 96.0171 91.8232 95.8009C91.6138 95.5847 91.509 95.2774 91.509 94.9019C91.509 94.4922 91.6254 94.1394 91.8698 93.8549C92.1142 93.5704 92.4401 93.3542 92.8707 93.2062C93.3013 93.0583 93.8017 92.99 94.3836 92.99C94.7327 92.99 95.0586 93.0242 95.3495 93.0811C95.6405 93.138 95.9082 93.229 96.1642 93.3428C96.397 93.4566 96.6181 93.5932 96.8392 93.7866L97.1534 93.3883L97.3164 93.5135L97.072 93.9346L97.037 94.0028L96.9789 94.0711L96.8974 94.1622L96.5133 94.5605L96.3504 94.4353L96.653 94.0484C96.5133 93.9232 96.362 93.8094 96.1991 93.7183C96.0362 93.6159 95.8616 93.5476 95.6754 93.4794C95.4892 93.4225 95.2914 93.3769 95.0935 93.3542C94.884 93.32 94.6629 93.3087 94.4185 93.3087C93.5457 93.3087 92.9172 93.4452 92.5332 93.7297C92.1375 94.0142 91.9513 94.3784 91.9513 94.8564C91.9513 95.175 92.0327 95.4254 92.2073 95.6074C92.3702 95.7895 92.6495 95.9375 93.0103 96.0399C93.3711 96.1423 93.8482 96.2561 94.4418 96.3585C95.047 96.461 95.559 96.5861 96.0013 96.7227C96.4435 96.8593 96.781 97.0413 97.0138 97.2803C97.2116 97.4738 97.328 97.7924 97.328 98.2135Z" fill="black"/>
  <path d="M84.5728 99.7496V99.9431H82.606V99.7496L83.3275 99.6927H83.3741V95.4138C82.7922 95.3569 80.7672 95.3569 78.7073 97.4736L78.6956 97.4622V99.6927L79.4637 99.7496V99.9431H77.4969V99.7496L78.2185 99.6927H78.265V93.2174L77.4387 93.1605V92.9671H79.4055V93.1605L78.684 93.2174V97.1208C80.7439 95.1065 82.7223 95.0952 83.3624 95.1634V93.2288L82.5361 93.1719V92.9784H84.5029V93.1719L83.7814 93.2288V99.7041L84.5728 99.7496Z" fill="black"/>
  <path d="M76.8685 92.9671V93.8775H76.6706L76.6125 93.263H74.1336V99.6814L74.8435 99.7496V99.9431H72.9V99.7496L73.7146 99.6927V93.263H71.1775L71.1194 93.8775H70.9215V92.9671H76.8685Z" fill="black"/>
  <path d="M38.9172 98.2018C38.8008 98.6798 38.6146 98.9529 38.2771 99.1805C37.9396 99.4195 37.5672 99.6016 37.1598 99.7154C36.7525 99.8406 36.3568 99.8975 35.9611 99.8975C35.4374 99.8975 34.9486 99.795 34.4948 99.5902C34.0525 99.3854 33.6568 99.1236 33.331 98.7822C33.0051 98.4408 32.7491 98.0653 32.5745 97.6442C32.3999 97.2231 32.3068 96.8021 32.3068 96.3696C32.3068 95.9599 32.3883 95.5503 32.5512 95.1519C32.7141 94.7536 32.9585 94.3781 33.2728 94.0481C33.587 93.7181 33.971 93.4563 34.4366 93.2515C34.8904 93.058 35.4141 92.9556 36.0077 92.9556C36.706 92.9556 37.2995 93.0921 37.7883 93.3766C38.0327 93.5132 38.2422 93.6725 38.4284 93.8546L38.9055 93.5018L39.0103 93.6156L38.568 94.0026L38.3004 94.2415L37.8465 94.6398L37.7417 94.526L38.1258 94.1164L38.1491 94.0822C38.0443 93.9798 37.9396 93.9001 37.8348 93.8205C37.5555 93.627 37.2529 93.4904 36.9387 93.4108C36.6245 93.3311 36.2986 93.2856 35.9728 93.2856C35.4491 93.2856 34.9835 93.3766 34.5762 93.5587C34.1689 93.7408 33.8314 93.9798 33.5521 94.2871C33.2728 94.5943 33.0633 94.9243 32.9236 95.2885C32.784 95.6641 32.7142 96.0282 32.7142 96.4151C32.7142 96.8362 32.7956 97.2345 32.9702 97.6214C33.1331 97.997 33.3659 98.3384 33.6685 98.6343C33.971 98.9302 34.3085 99.1691 34.7159 99.3398C35.1116 99.5105 35.5538 99.6016 36.0193 99.6016C36.3452 99.6016 36.6827 99.5561 37.0318 99.4536C37.3693 99.3512 37.6952 99.2033 37.9978 98.9984C38.2771 98.7822 38.7426 98.5205 38.9172 98.2018Z" fill="black"/>
  <path d="M55.4314 98.2362C55.315 98.7141 55.1288 98.9873 54.7913 99.2262C54.4538 99.4652 54.0814 99.6473 53.6741 99.7725C53.2667 99.8977 52.871 99.9546 52.4754 99.9546C51.9516 99.9546 51.4629 99.8521 51.009 99.6473C50.5667 99.4425 50.171 99.1693 49.8452 98.8393C49.5193 98.4979 49.2633 98.1224 49.0887 97.6899C48.9141 97.2689 48.821 96.8364 48.821 96.404C48.821 95.9943 48.9025 95.5846 49.0654 95.1749C49.2284 94.7652 49.4728 94.4011 49.787 94.071C50.1012 93.741 50.4853 93.4679 50.9508 93.2744C51.4047 93.081 51.9284 92.9785 52.5219 92.9785C53.2202 92.9785 53.8137 93.1151 54.3025 93.3996C54.5469 93.5362 54.7564 93.6955 54.9426 93.8776L55.4198 93.5134L55.5245 93.6272L55.0823 94.0141L54.8146 94.2531L54.3607 94.6514L54.256 94.5376L54.64 94.1279L54.6633 94.0938C54.5585 93.9914 54.4538 93.9003 54.3491 93.8207C54.0698 93.6272 53.7672 93.4907 53.4529 93.3996C53.1387 93.32 52.8129 93.2744 52.487 93.2744C51.9633 93.2744 51.4978 93.3655 51.0904 93.5476C50.6831 93.7296 50.3456 93.9686 50.0663 94.2759C49.787 94.5831 49.5775 94.9132 49.4379 95.2887C49.2982 95.6643 49.2284 96.0398 49.2284 96.4153C49.2284 96.8478 49.3098 97.2461 49.4844 97.6216C49.6473 98.0086 49.8801 98.3386 50.1827 98.6345C50.4853 98.9304 50.8228 99.1693 51.2301 99.34C51.6258 99.5107 52.068 99.6018 52.5335 99.6018C52.8594 99.6018 53.1969 99.5563 53.546 99.4538C53.8835 99.3514 54.2094 99.2035 54.512 98.9986C54.7913 98.8279 55.2568 98.5548 55.4314 98.2362Z" fill="black"/>
  <path d="M26.6625 99.7496V99.9545H24.6957V99.9431H26.6625V99.7496Z" fill="black"/>
  <path d="M10.6487 99.9545V92.9329H13.0926C13.884 92.9329 14.5358 93.0922 15.0478 93.3995C15.5715 93.7182 15.9556 94.1392 16.2233 94.6627C16.4909 95.1862 16.6189 95.778 16.6189 96.4266C16.6189 97.1436 16.4793 97.7581 16.1883 98.2816C15.8974 98.8051 15.4901 99.2148 14.9664 99.5106C14.431 99.8065 13.8142 99.9431 13.1043 99.9431H10.6487V99.9545ZM16.2465 96.438C16.2465 95.8235 16.1185 95.2772 15.8741 94.7993C15.6297 94.3213 15.2689 93.9458 14.8034 93.6613C14.3379 93.3881 13.7676 93.2516 13.081 93.2516H11.0095V99.6472H13.081C13.7676 99.6472 14.3495 99.5106 14.8151 99.2261C15.2806 98.9416 15.6414 98.5661 15.8741 98.0767C16.1301 97.5874 16.2465 97.0412 16.2465 96.438Z" fill="black"/>
  <path d="M45.5633 92.9898H45.225V93.3085H45.5633V92.9898Z" fill="black"/>
  <path d="M45.3181 93.3312V93.2857H40.6512V96.1194C41.1633 95.8918 41.7918 95.7893 42.3038 96.0283C42.8508 96.3014 43.3629 96.6884 44.003 96.5632C44.4103 96.5063 44.806 96.3583 45.2017 96.199L45.225 96.2332C44.5034 96.6997 43.5491 97.0639 42.7228 96.6429C42.3387 96.4949 42.0012 96.3356 41.5939 96.3014C41.2913 96.2673 40.9771 96.2901 40.6396 96.3014V99.6358H45.3064V99.0213H45.481L45.5392 99.522L45.5508 99.6017V99.7041L45.5392 99.8293L45.5275 99.9545H40.2556V92.9898H45.5625V93.923H45.3879L45.3297 93.4223L45.3181 93.3312Z" fill="black"/>
  <path d="M90.2289 93.3312V93.2857H85.5621V96.1194C86.0741 95.8918 86.7026 95.7893 87.2146 96.0283C87.7616 96.3014 88.2737 96.6884 88.9138 96.5632C89.3211 96.5063 89.7168 96.3583 90.1125 96.199L90.1358 96.2332C89.4142 96.6997 88.4599 97.0639 87.6336 96.6429C87.2496 96.4949 86.9121 96.3356 86.5047 96.3014C86.2021 96.2673 85.8879 96.2901 85.5504 96.3014V99.6358H90.2172V99.0213H90.3918L90.45 99.522L90.4616 99.6017V99.7041L90.45 99.8293L90.4383 99.9545H85.1547V92.9898H90.4616V93.923H90.2871L90.2289 93.4223V93.3312Z" fill="black"/>
  <path d="M63.2056 99.2034C62.5772 99.5903 61.8672 100 61.0875 100C60.4591 100 59.8539 99.8065 59.2487 99.7041C58.7483 99.6131 58.3526 99.8065 57.8871 99.8748C57.7474 99.8976 57.6078 99.9203 57.4565 99.9317L57.4448 93.1947L56.6185 93.1378V92.9443H58.5853V93.1378L57.8638 93.1947V99.5675C58.4224 99.3172 59.0741 99.1692 59.6677 99.3286C60.3659 99.5334 61.0526 99.8634 61.7858 99.6586C62.2629 99.5562 62.7284 99.3627 63.1707 99.1579L63.2056 99.2034Z" fill="black"/>
  <path d="M70.619 95.209C70.4444 94.7993 70.1883 94.4123 69.8741 94.0823C69.5599 93.7409 69.1758 93.4678 68.7336 93.2743C68.2914 93.0695 67.7909 92.9671 67.2556 92.9671C66.7435 92.9671 66.2664 93.0695 65.8241 93.2516C65.3819 93.445 64.9978 93.7068 64.6603 94.0368C64.3228 94.3668 64.0668 94.7424 63.8922 95.1634C63.706 95.5845 63.6129 96.0283 63.6129 96.4835C63.6129 96.9274 63.706 97.3598 63.8806 97.7809C64.0552 98.2019 64.3112 98.5775 64.6254 98.9075C64.9513 99.2375 65.3353 99.5106 65.7776 99.7041C66.2198 99.8976 66.7202 100 67.2556 100C67.7677 100 68.2448 99.909 68.6871 99.7155C69.1293 99.522 69.5133 99.2717 69.8392 98.9416C70.1651 98.6116 70.4211 98.2361 70.6073 97.815C70.7935 97.3939 70.8866 96.9501 70.8866 96.4835C70.8866 96.0511 70.7935 95.63 70.619 95.209ZM70.5491 96.4835C70.5491 96.8818 70.4677 97.2688 70.3047 97.6443C70.1418 98.0199 69.9207 98.3726 69.6297 98.6799C69.3388 98.9872 68.9896 99.2375 68.5823 99.4196C68.175 99.6017 67.7327 99.6927 67.244 99.6927C66.7668 99.6927 66.3245 99.6017 65.9289 99.431C65.5215 99.2603 65.1724 99.0099 64.8698 98.714C64.5672 98.4182 64.3345 98.0654 64.1832 97.6898C64.0202 97.3029 63.9388 96.9046 63.9388 96.4949C63.9388 96.0966 64.0202 95.7097 64.1832 95.3341C64.3461 94.9586 64.5672 94.6058 64.8582 94.2985C65.1491 93.9913 65.4983 93.7409 65.9056 93.5588C66.3129 93.3768 66.7668 93.2857 67.2556 93.2857C67.7211 93.2857 68.1633 93.3768 68.559 93.5475C68.9547 93.7182 69.3155 93.9685 69.6065 94.2644C69.909 94.5603 70.1418 94.9131 70.3047 95.3C70.4677 95.6642 70.5491 96.0625 70.5491 96.4835Z" fill="black"/>
</svg>