<svg width="959" height="609" fill="none" xmlns="http://www.w3.org/2000/svg"><mask id="a" style="mask-type:luminance" maskUnits="userSpaceOnUse" x="0" y="0" width="959" height="609"><path d="M959 0H0v609h959V0Z" fill="#fff"/></mask><g mask="url(#a)" stroke-miterlimit="10"><path d="M-1.01 76.54s40.615-42.605 90.808-35.489c50.194 7.117 74.141 78.095 148.186 49.723C312.028 62.402 309.729 6.89 381.475 6.89c71.746 0 52.588 50.766 100.387 67.372 47.798 16.606 38.219-37.861 95.597-35.489 57.377 2.372 102.781 61.584 195.983 30.744C866.645 38.68 926.417-58.678 1007.65-21.766c81.22 36.818 129.02 122.124 246.17 105.518 117.15-16.606 138.61-87.299 200.78-76.766 62.16 10.533 62.16 48.394 109.96 55.51 47.8 7.117 40.62-58.641 93.2-69.554 52.59-10.912 90.81 74.3 143.4 81.416 52.59 7.117 95.6-81.416 95.6-81.416" stroke="url(#b)"/><path d="M-1.01 120.284s38.03-40.707 85.445-35.583c47.224 5.124 70.405 69.459 140.427 42.131 69.83-27.233 69.255-79.138 137.456-79.138 65.041 0 59.485 45.262 95.693 65.758a72.716 72.716 0 0 0 16.572 6.832c46.84 12.811 45.882-35.488 89.083-42.7 4.694-.759 9.675-1.234 14.943-1.139 15.518.19 29.024 4.365 45.404 9.68 25.001 8.16 47.703 14.043 77.302 21.16 27.778 6.737 51.917 17.554 88.7 6.452C879.097 86.883 935.613-6.678 1012.53 25.015c76.92 31.693 122.99 107.89 233.44 92.043 25.29-3.606 46.07-9.584 63.7-16.7 59.1-23.723 82.18-60.35 127.68-52.095 58.34 10.628 59.3 46.306 104.41 53.708 45.12 7.401 39.37-52.57 88.9-61.868 49.9-9.3 86.68 71.072 137.16 76.765 20.02 2.278 36.02-10.532 52.78-19.072 17.53-8.92 33.72-16.132 48.67-29.796 18.19-16.7 27.39-36.532 27.39-36.532" stroke="url(#c)"/><path d="M-1.01 164.029s35.443-38.905 79.984-35.679c44.159 3.226 66.765 60.73 132.572 34.54 65.519-26 66.86-74.394 131.614-74.394 67.052-.094 63.029 51.336 105.655 71.642 5.651 2.657 11.686 4.84 18.487 6.168 50.001 10.343 52.205-42.226 96.076-50.386a92.893 92.893 0 0 1 16.284-1.709c17.05-.284 30.652 4.176 49.906 9.489 28.257 7.876 51.822 8.066 84.869 16.416 31.418 7.971 52.3 28.847 92.148 17.84 84.678-23.343 138.319-112.73 210.835-86.065 72.7 26.474 116.86 93.656 220.79 78.568 23.85-3.511 43.68-8.824 60.63-15.277 55.94-20.97 78.36-53.992 121.46-45.547 54.6 10.723 56.52 44.219 98.86 51.905 42.34 7.686 38.12-46.591 84.67-54.087 47.23-7.687 82.57 67.371 130.95 72.116 24.9 2.372 42.62-17.365 63.31-24.861 21.46-7.781 41.86-8.351 62.84-22.679 24.24-16.7 35.83-41.656 35.83-41.656" stroke="url(#d)"/><path d="M-1.01 207.773s32.856-37.007 74.62-35.679c41.189 1.234 63.125 52.095 124.813 26.949 61.209-24.766 64.466-69.554 125.675-69.649 69.159-.095 66.573 57.503 115.712 77.525 6.418 2.656 13.123 4.459 20.403 5.598 53.259 7.971 58.623-49.058 103.165-58.167 6.035-1.234 11.782-1.993 17.625-2.278 18.487-.759 32.281 3.986 54.504 9.394 31.61 7.686 55.94 2.088 92.532 11.672 35.058 9.109 52.588 40.138 95.501 29.321 80.175-20.307 130.847-104.853 199.05-83.408 68.3 21.445 110.83 79.422 208.05 65.094 22.51-3.321 41.38-8.16 57.67-13.759 52.78-18.314 74.62-47.54 115.13-39 50.77 10.723 53.65 42.037 93.21 50.102 39.56 8.066 36.78-40.518 80.36-46.401 44.64-6.073 78.55 63.481 124.82 67.467 29.79 2.562 49.14-24.102 73.85-30.65 25.38-6.737 49.91-.569 77.01-15.657 30.18-16.795 44.26-46.78 44.26-46.78" stroke="url(#e)"/><path d="M-1.01 251.517s30.174-35.109 69.16-35.773c38.124-.665 59.485 43.364 117.054 19.357 56.899-23.627 62.071-64.81 119.736-64.905 71.171-.189 70.117 63.672 125.675 83.314 7.184 2.562 14.56 4.175 22.223 5.029 56.419 5.693 64.944-55.985 110.157-65.854 6.609-1.423 12.835-2.467 18.966-2.846 20.02-1.234 33.909 3.795 59.006 9.204 34.867 7.591 59.963-3.796 100.099 6.832 38.698 10.343 52.779 51.335 98.854 40.708 75.577-17.46 123.567-97.167 187.36-80.846 63.99 16.321 104.7 65.189 195.32 51.715 21.07-3.132 38.98-7.402 54.6-12.336 49.52-15.657 70.78-41.182 108.81-32.452 47.03 10.817 50.86 39.948 87.65 48.204 36.88 8.35 35.54-34.445 76.05-38.715 41.96-4.365 74.53 59.401 118.59 62.817 34.68 2.657 55.75-30.934 84.39-36.438 29.31-5.693 57.95 7.117 91.29-8.635 36.11-16.985 52.68-51.905 52.68-51.905" stroke="url(#f)"/><path d="M-1.01 295.261s27.588-33.211 63.7-35.868c35.155-2.562 55.845 34.635 109.295 11.766 52.684-22.394 59.677-60.065 113.797-60.16 73.279-.19 73.566 69.839 135.637 89.196a100.048 100.048 0 0 0 24.139 4.365c59.58 3.321 71.267-62.912 117.245-73.634 7.28-1.708 13.889-2.847 20.403-3.416 21.553-1.708 35.538 3.701 63.508 9.109 38.22 7.402 64.083-9.773 107.667 2.088 42.434 11.576 52.971 62.532 102.206 52.094 70.884-14.992 116.192-89.386 175.673-78.189 59.68 11.197 98.57 50.956 182.67 38.241 19.73-3.037 36.59-6.643 51.54-10.818 46.36-13 66.95-34.824 102.59-25.905 43.2 10.818 48.08 37.861 82.09 46.401 34.1 8.635 34.39-28.372 71.74-30.934 39.37-2.751 70.5 55.321 112.36 58.168 39.56 2.657 62.27-37.671 94.93-42.321 33.24-4.65 65.9 14.708 105.46-1.518 41.96-17.27 61.12-57.124 61.12-57.124" stroke="url(#g)"/><path d="M-1.01 339.005s24.906-31.313 58.336-35.868c32.09-4.46 52.205 26 101.44 4.175 48.374-21.255 57.282-55.321 107.858-55.321 75.29-.284 77.11 76.102 145.695 95.08 8.717 2.467 17.338 3.606 25.959 3.796 62.741 1.043 77.589-69.934 124.238-81.416 7.95-1.898 14.943-3.321 21.744-3.985 22.989-2.183 37.166 3.511 68.01 8.919 41.476 7.307 68.201-15.751 115.329-2.657 46.075 12.811 53.163 73.635 105.559 63.577 66.095-12.716 108.912-81.606 163.892-75.533 55.46 6.073 92.53 36.723 169.93 24.767 18.3-2.847 34.2-5.884 48.47-9.394 43.01-10.438 63.13-28.467 96.27-19.358 39.46 10.817 45.21 35.773 76.53 44.598 31.42 8.92 33.15-22.299 67.44-23.248 36.69-1.044 66.48 51.051 106.13 53.518 44.45 2.657 68.78-44.503 105.47-48.109 37.16-3.606 73.95 22.204 119.64 5.504 47.79-17.555 69.54-62.248 69.54-62.248" stroke="url(#h)"/><path d="M-1.01 382.655s22.224-29.321 52.876-35.964c29.024-6.262 48.565 17.175 93.682-3.416 44.062-20.116 54.886-50.481 102.015-50.576 77.301-.285 80.558 82.269 155.656 100.868 9.483 2.372 18.775 3.321 27.875 3.226 65.902-1.233 83.911-76.955 131.326-89.101 8.525-2.183 15.997-3.701 23.085-4.555 24.522-2.657 38.794 3.416 72.512 8.73 44.733 7.117 72.225-21.73 122.897-7.496 49.714 14.043 53.258 84.546 108.912 74.962 61.304-10.532 101.536-73.919 152.204-72.97 51.15.949 86.41 22.489 157.19 11.292 16.86-2.752 31.9-5.219 45.41-7.876 39.75-7.876 59.29-22.109 90.04-12.81 35.63 10.818 42.43 33.686 70.98 42.795 28.64 9.205 31.99-17.934 63.22-15.562 34 2.563 62.45 46.876 99.91 48.869 49.42 2.657 75.38-51.336 116-53.898 40.99-2.562 81.9 29.796 133.91 12.526 53.74-17.84 77.97-67.372 77.97-67.372" stroke="url(#i)"/><path d="M-1.01 426.399s19.542-27.328 47.512-36.058c25.863-8.066 44.925 8.445 85.922-11.007 39.753-18.884 52.493-45.737 96.077-45.832 79.408-.38 84.102 88.532 165.714 106.751 10.249 2.277 20.116 3.131 29.79 2.562 69.064-3.511 90.233-84.073 138.319-96.883 9.196-2.467 17.146-4.175 24.426-5.029 25.959-3.131 40.423 3.226 77.014 8.635 48.086 7.022 76.344-27.613 130.465-12.241 53.354 15.183 53.354 95.365 112.264 86.445 56.515-8.635 94.257-66.233 140.427-70.313 46.84-4.176 80.37 8.255 144.54-2.183 15.52-2.562 29.41-4.555 42.34-6.452 36.4-5.409 55.56-15.847 83.72-6.263 31.9 10.817 39.56 31.598 65.43 40.992 25.95 9.584 30.74-9.963 58.91-7.876 31.51 2.373 58.43 42.606 93.77 44.219 54.32 2.467 81.9-58.167 126.54-59.686 44.92-1.518 89.95 37.292 148.09 19.548 59.68-18.124 86.4-72.496 86.4-72.496" stroke="url(#j)"/><path d="M-1.01 470.143s16.86-25.241 42.052-36.153c22.798-9.774 41.285-.19 78.068-18.599 35.442-17.744 50.097-40.992 90.137-41.087 81.42-.379 87.551 94.795 175.677 112.634 11.015 2.278 21.552 2.847 31.61 1.993 72.32-5.788 96.555-91.094 145.407-104.663 9.866-2.752 18.2-4.65 25.863-5.599 27.491-3.701 42.051 3.131 81.516 8.445 51.343 6.927 80.463-33.591 138.127-16.985 57.09 16.416 53.451 106.087 115.617 97.831 51.63-6.832 86.976-58.452 128.736-67.751 42.63-9.394 74.24-5.978 131.81-15.657 14.08-2.372 27.01-3.89 39.37-4.934 33.05-3.036 51.72-9.489 77.4.285 28.06 10.722 36.78 29.416 59.86 39.189 23.18 9.869 29.51-3.795 54.6-.095 29.03 4.175 54.41 38.241 87.55 39.569 59.2 2.278 88.51-65.094 137.08-65.569 48.85-.664 97.99 44.788 162.36 26.664 65.52-18.503 94.83-77.714 94.83-77.714" stroke="url(#k)"/><path d="M-1.01 513.887s14.178-23.153 36.688-36.153c19.732-11.482 37.645-8.92 70.309-26.19 31.131-16.51 47.703-36.153 84.198-36.342 83.528-.475 91.095 101.057 185.734 118.422 11.782 2.183 22.894 2.562 33.526 1.423 75.482-7.97 102.877-98.21 152.4-112.349 10.441-3.036 19.254-5.029 27.204-6.168 28.928-4.175 43.68 3.037 86.018 8.35 54.696 6.833 84.582-39.569 145.695-21.824 60.73 17.649 53.546 116.429 118.97 109.218 46.745-5.124 79.598-50.861 117.058-65.094 38.31-14.613 68.1-20.117 119.16-29.132 12.74-2.277 24.71-2.277 36.3-3.511 29.6-3.226 47.89-3.226 71.17 6.833 24.33 10.627 34.01 27.328 54.31 37.386 20.5 10.153 28.36 2.562 50.29 7.591 26.44 6.073 50.39 33.971 81.33 34.92 64.18 1.897 95.02-71.927 147.61-71.357 52.78.379 105.94 52.284 176.54 33.685 71.45-18.788 103.26-82.838 103.26-82.838" stroke="url(#l)"/><path d="M-1.01 557.631s11.591-20.876 31.228-36.248c16.763-13.094 34.005-17.554 62.55-33.78 26.917-15.278 45.308-31.409 78.259-31.599 85.54-.474 94.544 107.51 195.697 124.306 12.548 2.087 24.33 2.277 35.442.759 78.642-10.248 109.199-105.328 159.488-120.13 11.111-3.227 20.307-5.504 28.545-6.738 30.461-4.744 45.308 3.037 90.52 8.161 57.952 6.832 88.605-45.547 153.262-26.569 64.37 18.883 53.642 126.488 122.322 120.699 41.956-3.51 72.317-43.174 105.267-62.437 34.01-19.832 62.08-34.35 106.43-42.511 11.3-2.087 22.22-2.656 33.23-1.992 26.35 1.423 44.16 2.941 64.85 13.379 20.6 10.438 31.14 25.241 48.76 35.584 17.72 10.438 27.11 8.92 46.07 15.277 23.86 8.066 46.37 29.606 75.1 30.27 69.07 1.423 101.63-78.759 158.15-77.145 56.71 1.423 113.99 59.78 190.72 40.707 77.3-19.167 111.68-87.963 111.68-87.963" stroke="url(#m)"/><path d="M-1.01 601.375s9.1-18.693 25.864-36.342c13.89-14.708 30.365-26.285 54.79-41.372 22.607-14.044 42.914-26.664 72.417-26.854 87.551-.57 98.088 113.678 205.659 130.189 13.41 2.087 25.767 1.992 37.261.189 81.9-12.525 115.426-112.444 166.481-127.816 11.686-3.511 21.361-5.883 29.886-7.307 31.898-5.313 46.937 2.847 95.118 8.066 61.209 6.642 92.724-51.43 160.925-31.314 68.01 20.117 53.642 136.072 125.675 132.087 37.164-2.088 64.944-35.584 93.584-59.876 29.7-25.145 55.94-48.583 93.68-55.984 9.87-1.993 19.83-2.088 30.18-.57 23.08 3.511 40.42 9.015 58.52 19.927 16.86 10.153 28.36 23.153 43.11 33.781 15.04 10.817 25.86 15.372 41.76 23.058 21.17 10.153 42.24 25.241 68.87 25.62 73.95.854 108.15-85.495 168.69-82.933 60.63 2.467 121.94 67.181 204.99 47.824 83.24-19.642 120.11-93.087 120.11-93.087" stroke="url(#n)"/><path d="M-1.01 645.119s44.255-106.845 133.818-107.415c89.658-.569 101.536 119.846 215.716 135.977 114.084 16.131 153.549-117.663 212.746-135.977 59.198-18.314 66.286-6.547 130.848 0 64.561 6.548 96.842-57.408 168.492-36.058 71.65 21.35 53.738 144.992 129.027 143.568 75.293-1.423 111.113-147.079 190.043-125.824 78.84 21.351 111.12 110.073 190.05 110.073 78.83 0 114.75-92.328 179.22-88.817 64.56 3.511 129.98 74.773 219.16 54.846s128.55-98.306 128.55-98.306" stroke="url(#o)"/></g><defs><linearGradient id="b" x1="947.874" y1="-30" x2="947.874" y2="97.437" gradientUnits="userSpaceOnUse"><stop stop-color="#C482E6"/><stop offset="1" stop-color="#fff"/></linearGradient><linearGradient id="c" x1="947.826" y1="18.541" x2="947.826" y2="133.566" gradientUnits="userSpaceOnUse"><stop stop-color="#C482E6"/><stop offset="1" stop-color="#fff"/></linearGradient><linearGradient id="d" x1="947.874" y1="66.974" x2="947.874" y2="169.706" gradientUnits="userSpaceOnUse"><stop stop-color="#C482E6"/><stop offset="1" stop-color="#fff"/></linearGradient><linearGradient id="e" x1="947.969" y1="109.467" x2="947.969" y2="213.279" gradientUnits="userSpaceOnUse"><stop stop-color="#C482E6"/><stop offset="1" stop-color="#fff"/></linearGradient><linearGradient id="f" x1="947.826" y1="147.992" x2="947.826" y2="258.909" gradientUnits="userSpaceOnUse"><stop stop-color="#C482E6"/><stop offset="1" stop-color="#fff"/></linearGradient><linearGradient id="g" x1="947.874" y1="186.802" x2="947.874" y2="304.681" gradientUnits="userSpaceOnUse"><stop stop-color="#C482E6"/><stop offset="1" stop-color="#fff"/></linearGradient><linearGradient id="h" x1="947.73" y1="225.802" x2="947.73" y2="350.878" gradientUnits="userSpaceOnUse"><stop stop-color="#C482E6"/><stop offset="1" stop-color="#fff"/></linearGradient><linearGradient id="i" x1="947.826" y1="264.327" x2="947.826" y2="396.8" gradientUnits="userSpaceOnUse"><stop stop-color="#C482E6"/><stop offset="1" stop-color="#fff"/></linearGradient><linearGradient id="j" x1="947.826" y1="303.232" x2="947.826" y2="442.986" gradientUnits="userSpaceOnUse"><stop stop-color="#C482E6"/><stop offset="1" stop-color="#fff"/></linearGradient><linearGradient id="k" x1="947.826" y1="341.947" x2="947.826" y2="489.308" gradientUnits="userSpaceOnUse"><stop stop-color="#C482E6"/><stop offset="1" stop-color="#fff"/></linearGradient><linearGradient id="l" x1="947.874" y1="380.757" x2="947.874" y2="535.674" gradientUnits="userSpaceOnUse"><stop stop-color="#C482E6"/><stop offset="1" stop-color="#fff"/></linearGradient><linearGradient id="m" x1="947.778" y1="419.661" x2="947.778" y2="582.065" gradientUnits="userSpaceOnUse"><stop stop-color="#C482E6"/><stop offset="1" stop-color="#fff"/></linearGradient><linearGradient id="n" x1="947.778" y1="458.661" x2="947.778" y2="628.55" gradientUnits="userSpaceOnUse"><stop stop-color="#C482E6"/><stop offset="1" stop-color="#fff"/></linearGradient><linearGradient id="o" x1="947.826" y1="497.186" x2="947.826" y2="675.027" gradientUnits="userSpaceOnUse"><stop stop-color="#C482E6"/><stop offset="1" stop-color="#fff"/></linearGradient></defs></svg>