<svg width="120" height="120" fill="none" xmlns="http://www.w3.org/2000/svg"><g fill="#C482E6" clip-path="url(#a)"><path d="M52.2 80.7h-1v1h1v-1Zm2 0h-1v1h1v-1Zm8 0h-1v1h1v-1Zm-2 0h-1v1h1v-1Zm-10 0h-1v1h1v-1Zm8 0h-1v1h1v-1Zm-2 0h-1v1h1v-1Zm-16 0h-1v1h1v-1Zm-2 0h-1v1h1v-1Zm-2.1 0h-1v1h1v-1Zm8.1 0h-1v1h1v-1Zm2 0h-1v1h1v-1Zm2 0h-1v1h1v-1Zm-6 0h-1v1h1v-1Zm30.1 0h-1v1h1v-1Zm2 0h-1v1h1v-1Zm4 0h-1v1h1v-1Zm-2 0h-1v1h1v-1Zm4 0h-1v1h1v-1Z"/><path d="M60 0C26.9 0 0 26.9 0 60s26.9 60 60 60 60-26.9 60-60S93.1 0 60 0Zm25.5 84.5c-.2.2-.5.3-.7.3H33.2c-.3 0-.5-.1-.7-.3-.2-.2-.3-.5-.3-.8l3.4-47.2c0-.5.5-.9 1-.9h44.7c.5 0 1 .4 1 .9l3.4 47.2c.1.3 0 .6-.2.8Z"/><path d="M82.3 80.7h-1v1h1v-1Zm-18.1 0h-1v1h1v-1Zm6.1 0h-1v1h1v-1Zm.9-40c-1.5 0-2.7 1.2-2.7 2.7 0 1.1.7 2.1 1.7 2.5v7.8c0 7.3-5 13.2-11.1 13.2S48 61 48 53.7v-7.8c1-.4 1.7-1.4 1.7-2.5 0-1.5-1.2-2.7-2.7-2.7-1.5 0-2.7 1.2-2.7 2.7 0 1.1.7 2.1 1.7 2.5v7.8c0 8.4 5.9 15.2 13.1 15.2 7.2 0 13.1-6.8 13.1-15.2v-7.8c1-.4 1.7-1.4 1.7-2.5 0-1.5-1.2-2.7-2.7-2.7Zm-24.3 3.4c-.4 0-.7-.3-.7-.7 0-.4.3-.7.7-.7.4 0 .7.3.7.7 0 .4-.3.7-.7.7Zm24.3 0c-.4 0-.7-.3-.7-.7 0-.4.3-.7.7-.7.4 0 .7.3.7.7 0 .4-.4.7-.7.7Zm-5 36.6h-1v1h1v-1Zm2.1 0h-1v1h1v-1Z"/></g><defs><clipPath id="a"><path fill="#fff" d="M0 0h120v120H0z"/></clipPath></defs></svg>