<svg width="120" height="120" fill="none" xmlns="http://www.w3.org/2000/svg"><g clip-path="url(#a)" fill="#C482E6"><path d="M92.8 55.7v.6c0 .6-.5 1.1-1.1 1.1H71.8c-.6 0-1.1-.5-1.1-1.1V46.1c0-.6.5-1.1 1.1-1.1h11.5c.6 0 9.5 10.1 9.5 10.7Z"/><path d="M37.1 72.5c-2 0-3.7 1.6-3.7 3.6s1.7 3.6 3.7 3.6 3.7-1.6 3.7-3.6-1.6-3.6-3.7-3.6Zm0 0c-2 0-3.7 1.6-3.7 3.6s1.7 3.6 3.7 3.6 3.7-1.6 3.7-3.6-1.6-3.6-3.7-3.6ZM60 0C26.9 0 0 26.9 0 60s26.9 60 60 60 60-26.9 60-60S93.1 0 60 0ZM37.1 85.3c-5.1 0-9.3-4.1-9.3-9.1 0-5.1 4.1-9.2 9.3-9.2 5.2 0 9.3 4.1 9.3 9.2 0 5-4.1 9.1-9.3 9.1Zm44.1 0c-5.1 0-9.3-4.1-9.3-9.1 0-5.1 4.2-9.2 9.3-9.2 5.1 0 9.3 4.1 9.3 9.2 0 5-4.2 9.1-9.3 9.1Zm20.1-11.7c0 .9-.8 1.7-1.7 1.7h-8.1c-.5-5.2-4.9-9.4-10.4-9.4s-9.9 4.1-10.4 9.4H47.8c-.5-5.2-5-9.4-10.4-9.4S27.5 70 27 75.2h-6.6c-.9 0-1.7-.8-1.7-1.7v-3.2c0-.9.8-1.7 1.7-1.7h.9v-32c0-1.1.9-1.9 2-1.9h45.4c1.1 0 2 .9 2 1.9v4.7h14.2c.9 0 13.8 14.8 13.8 15.7v11.7h.9c.9 0 1.7.8 1.7 1.7v3.2Zm-20.1-1.1c-2 0-3.7 1.6-3.7 3.6s1.6 3.6 3.7 3.6c2 0 3.7-1.6 3.7-3.6s-1.6-3.6-3.7-3.6Zm-44.1 0c-2 0-3.7 1.6-3.7 3.6s1.7 3.6 3.7 3.6 3.7-1.6 3.7-3.6-1.6-3.6-3.7-3.6Zm0 0c-2 0-3.7 1.6-3.7 3.6s1.7 3.6 3.7 3.6 3.7-1.6 3.7-3.6-1.6-3.6-3.7-3.6Zm0 0c-2 0-3.7 1.6-3.7 3.6s1.7 3.6 3.7 3.6 3.7-1.6 3.7-3.6-1.6-3.6-3.7-3.6Z"/></g><defs><clipPath id="a"><path fill="#fff" d="M0 0h120v120H0z"/></clipPath></defs></svg>