<svg width="120" height="120" fill="none" xmlns="http://www.w3.org/2000/svg"><g fill="#C482E6"><path d="M73.846 47.908c-2.861 1.569-6.554.553-8.123-2.308-1.57-2.861-.554-6.554 2.308-8.123 2.861-1.57 6.554-.554 8.123 2.308 1.661 2.861.646 6.461-2.308 8.123Z"/><path d="M73.846 47.908c-2.861 1.569-6.554.553-8.123-2.308-1.57-2.861-.554-6.554 2.308-8.123 2.861-1.57 6.554-.554 8.123 2.308 1.661 2.861.646 6.461-2.308 8.123Z"/><path d="M60 0C26.861 0 0 26.861 0 60c0 33.138 26.861 60 60 60 33.138 0 60-26.862 60-60 0-33.139-26.862-60-60-60Zm.37 93.97-23.816-6.832c-3.139-.923-4.985-4.246-4.154-7.384l9.139-31.939c.922-3.138 3.969-7.107 6.922-8.676L36.555 80.677c-.277 1.108.277 2.215 1.384 2.492l29.077 8.308c-1.384 2.123-4.061 3.23-6.646 2.492Zm26.953-41.816L78.185 84c-.924 3.138-4.246 4.985-7.385 4.061l-23.723-6.738c-3.139-.923-4.985-4.246-4.154-7.384L52.062 42c.923-3.139 3.969-7.108 6.923-8.677l12.184-6.738c2.862-1.57 6.554-.554 8.123 2.307l6.831 12.185c1.57 2.954 2.123 7.846 1.2 11.077Z"/></g></svg>