<svg width="120" height="120" fill="none" xmlns="http://www.w3.org/2000/svg"><g clip-path="url(#a)"><path d="M60 0C26.9 0 0 26.9 0 60s26.9 60 60 60 60-26.9 60-60S93.1 0 60 0Zm23.6 94.9c0 .5-.4.9-.9.9H37.3c-.5 0-.9-.4-.9-.9v-9.1c0-7.4 2.5-14.8 7.1-20.6l.4-.5c2.4-3.1 2.7-7.3.8-10.6-3-5.3-6.6-13.7-6.6-23.6 0-.3.1-.5.4-.7.2-.1 4.2-3 9.6-3 5.4 0 5.7-5.6 5.7-6.8 0-.5.4-.9.9-.9h10.8c.5 0 .9.4.9.9 0 1.1.3 6.8 5.7 6.8s9.4 2.9 9.6 3c.2.2.4.4.4.7 0 10-3.6 18.4-6.6 23.6-1.9 3.4-1.6 7.5.8 10.6l.4.5c4.6 5.9 7.1 13.2 7.1 20.6v9.1h-.2Z" fill="#C482E6"/></g><defs><clipPath id="a"><path fill="#fff" d="M0 0h120v120H0z"/></clipPath></defs></svg>