<svg width="120" height="120" fill="none" xmlns="http://www.w3.org/2000/svg"><g fill="#C482E6" clip-path="url(#a)"><path d="M54.3 66h-1.2c-1.3 0-2.3.9-2.1 1.9L52.4 81c.1.8 1 1.4 2.1 1.4h1c1.1 0 2-.6 1.9-1.4l-.6-13c0-1.1-1.1-2-2.5-2Zm-9.7 2c-.2-1.1-1.4-1.9-2.7-1.9h-1.2c-1.3 0-2.2.9-1.9 1.9l2.9 13.1c.2.8 1.2 1.4 2.3 1.4h1c1.1 0 1.9-.6 1.7-1.4L44.6 68Z"/><path d="M60 0C26.9 0 0 26.9 0 60s26.9 60 60 60 60-26.9 60-60S93.1 0 60 0Zm30.9 61.1c0 1.1-.9 1.9-1.9 1.9h-1.5l-4 21.2c0 .9-.7 1.6-1.6 1.6H38.1c-.9 0-1.6-.7-1.6-1.6l-4-21.2H31c-1 0-1.9-.9-1.9-1.9v-2.6c0-1.1.9-1.9 1.9-1.9h7.4l16.1-16.1c0-.3-.1-.6-.1-.9 0-3 2.5-5.5 5.5-5.5s5.5 2.5 5.5 5.5c0 .2 0 .5-.1.7l16.3 16.3H89c1.1 0 1.9.8 1.9 1.9v2.6Z"/><path d="M62.4 44.5c-.8.4-1.6.6-2.5.6-.9 0-1.7-.2-2.4-.6l-12 12h29l-12.1-12ZM66.8 66h-1.2c-1.3 0-2.4.9-2.4 1.9L63 81.1c0 .8.9 1.4 2 1.4h1c1.1 0 2-.6 2.1-1.4L69 68c.1-1.1-.9-2-2.2-2Zm12.4 0H78c-1.3 0-2.5.9-2.6 1.9L73.7 81c-.1.8.7 1.4 1.8 1.4h1c1.1 0 2.1-.6 2.3-1.4l2.4-13c.2-1.1-.7-2-2-2Z"/></g><defs><clipPath id="a"><path fill="#fff" d="M0 0h120v120H0z"/></clipPath></defs></svg>