<svg width="120" height="120" fill="none" xmlns="http://www.w3.org/2000/svg"><g fill="#C482E6" clip-path="url(#a)"><path d="M60 25.1c-19.3 0-34.9 15.7-34.9 34.9S40.7 94.9 60 94.9c19.3 0 34.9-15.6 34.9-34.9 0-19.3-15.6-34.9-34.9-34.9Zm0 68.1c-18.3 0-33.2-14.9-33.2-33.2 0-18.3 14.9-33.2 33.2-33.2 18.3 0 33.2 14.9 33.2 33.2 0 18.3-14.9 33.2-33.2 33.2Z"/><path d="M60 28.1c-17.6 0-31.9 14.3-31.9 31.9 0 17.6 14.3 31.9 31.9 31.9 17.6 0 31.9-14.3 31.9-31.9 0-17.6-14.3-31.9-31.9-31.9Zm-2.6 51L38.1 60.5l8.8-9.1L57 61.1l19.5-20.2 9.1 8.8-28.2 29.4Z"/><path d="M60 0C26.9 0 0 26.9 0 60s26.9 60 60 60 60-26.9 60-60S93.1 0 60 0Zm0 98.2c-21.1 0-38.2-17.1-38.2-38.2S38.9 21.8 60 21.8 98.2 38.9 98.2 60 81.1 98.2 60 98.2Z"/></g><defs><clipPath id="a"><path fill="#fff" d="M0 0h120v120H0z"/></clipPath></defs></svg>