<svg width="27" height="22" fill="none" xmlns="http://www.w3.org/2000/svg"><path d="M20.712 21.19c.796 0 1.442-.671 1.442-1.5 0-.828-.646-1.5-1.442-1.5-.797 0-1.443.672-1.443 1.5 0 .829.646 1.5 1.443 1.5Zm-8.654 0c.796 0 1.442-.671 1.442-1.5 0-.828-.646-1.5-1.442-1.5-.797 0-1.443.672-1.443 1.5 0 .829.646 1.5 1.443 1.5ZM7.206 3.79h16.538c1.497 0 2.579 1.377 2.168 2.76l-1.798 6.067c-.276.931-1.161 1.573-2.169 1.573h-9.954c-1.008 0-1.893-.642-2.169-1.573L7.206 3.79Zm0 0-.771-2.6H1" stroke="#1E1E1E" stroke-width="1.5" stroke-linecap="round" stroke-linejoin="round"/></svg>