<svg width="565" height="219" fill="none" xmlns="http://www.w3.org/2000/svg"><path d="M-1364.7 25.328s28.8-33.044 66.5-35.687c36.7-2.55 58.3 34.46 114.1 11.707 55-22.281 62.3-59.762 118.8-59.856 76.5-.19 76.8 69.485 141.6 88.745 8.3 2.455 16.6 3.87 25.2 4.343 62.2 3.304 74.4-62.594 122.4-73.262 7.6-1.7 14.5-2.832 21.3-3.399 22.5-1.7 37.1 3.682 66.3 9.063 39.9 7.364 66.9-9.724 112.4 2.077 44.3 11.518 55.3 62.217 106.7 51.831 74-14.916 121.3-88.934 183.4-77.793 62.3 11.14 102.9 50.698 190.7 38.047 20.6-3.021 38.2-6.609 53.8-10.763C6.9-42.553 28.4-64.267 65.6-55.393c45.1 10.763 50.2 37.67 85.7 46.167 35.6 8.591 35.9-28.229 74.9-30.778 41.1-2.738 73.6 55.041 117.3 57.873 41.3 2.644 65-37.48 99.1-42.106 34.7-4.627 68.8 14.633 110.1-1.511 43.8-17.183 63.8-56.835 63.8-56.835" stroke="url(#a)" stroke-miterlimit="10"/><path d="M-1364.7 68.85s26-31.155 60.9-35.686c33.5-4.438 54.5 25.868 105.9 4.154 50.5-21.148 59.8-55.041 112.6-55.041 78.6-.284 80.5 75.717 152.1 94.599 9.1 2.454 18.1 3.587 27.1 3.776 65.5 1.038 81-69.58 129.7-81.004 8.3-1.888 15.6-3.304 22.7-3.965 24-2.171 38.8 3.493 71 8.875 43.3 7.27 71.2-15.673 120.4-2.644 48.1 12.745 55.5 73.262 110.2 63.255 69-12.651 113.7-81.193 171.1-75.15 57.9 6.042 96.6 36.536 177.4 24.64 19.1-2.832 35.7-5.853 50.6-9.346C-8.1-5.072 12.9-23.01 47.5-13.947c41.2 10.763 47.2 35.593 79.9 44.373C160.2 39.3 162 8.24 197.8 7.296c38.3-1.04 69.4 50.792 110.8 53.247 46.4 2.643 71.8-44.279 110.1-47.866 38.8-3.588 77.2 22.092 124.9 5.476C593.5.686 616.2-43.78 616.2-43.78" stroke="url(#b)" stroke-miterlimit="10"/><path d="M-1364.7 112.279s23.2-29.172 55.2-35.781c30.3-6.231 50.7 17.088 97.8-3.399 46-20.015 57.3-50.226 106.5-50.32 80.7-.284 84.1 81.853 162.5 100.357 9.9 2.361 19.6 3.305 29.1 3.21 68.8-1.227 87.6-76.566 137.1-88.65 8.9-2.172 16.7-3.683 24.1-4.532 25.6-2.644 40.5 3.398 75.7 8.685 46.7 7.081 75.4-21.62 128.3-7.458 51.9 13.973 55.6 84.119 113.7 74.584 64-10.48 106-73.545 158.9-72.601 53.4.944 90.2 22.375 164.1 11.234 17.6-2.737 33.3-5.192 47.4-7.836 41.5-7.836 61.9-21.997 94-12.745C66.9 37.79 74 60.543 103.8 69.606c29.9 9.158 33.4-17.843 66-15.483 35.5 2.549 65.2 46.638 104.3 48.621 51.6 2.643 78.7-51.076 121.1-53.625 42.8-2.55 85.5 29.645 139.8 12.462 56.1-17.749 81.4-67.03 81.4-67.03" stroke="url(#c)" stroke-miterlimit="10"/><path d="M-1364.7 155.802s20.4-27.19 49.6-35.875c27-8.025 46.9 8.402 89.7-10.952 41.5-18.788 54.8-45.506 100.3-45.6 82.9-.378 87.8 88.084 173 106.211 10.7 2.266 21 3.116 31.1 2.549 72.1-3.493 94.2-83.647 144.4-96.392 9.6-2.455 17.9-4.154 25.5-5.004 27.1-3.116 42.2 3.21 80.4 8.591 50.2 6.987 79.7-27.473 136.2-12.179 55.7 15.106 55.7 94.882 117.2 86.008 59-8.591 98.4-65.898 146.6-69.958 48.9-4.154 83.9 8.214 150.9-2.171 16.2-2.55 30.7-4.532 44.2-6.42 38-5.382 58-15.767 87.4-6.231 33.3 10.762 41.3 31.438 68.3 40.785 27.1 9.535 32.1-9.913 61.5-7.836 32.9 2.36 61 42.39 97.9 43.995 56.7 2.454 85.5-57.874 132.1-59.384 46.9-1.51 93.9 37.103 154.6 19.448 62.3-18.032 90.2-72.129 90.2-72.129" stroke="url(#d)" stroke-miterlimit="10"/><path d="M-1364.7 199.325s17.6-25.113 43.9-35.97c23.8-9.724 43.1-.189 81.5-18.504 37-17.655 52.3-40.785 94.1-40.88 85-.377 91.4 94.316 183.4 112.065 11.5 2.266 22.5 2.832 33 1.982 75.5-5.759 100.8-90.633 151.8-104.134 10.3-2.738 19-4.626 27-5.57 28.7-3.682 43.9 3.116 85.1 8.403 53.6 6.892 84-33.422 144.2-16.9 59.6 16.333 55.8 105.551 120.7 97.337 53.9-6.798 90.8-58.157 134.4-67.409 44.5-9.346 77.5-5.948 137.6-15.577 14.7-2.361 28.2-3.871 41.1-4.91 34.5-3.021 54-9.44 80.8.283 29.3 10.669 38.4 29.268 62.5 38.992 24.2 9.818 30.8-3.777 57-.095 30.3 4.154 56.8 38.048 91.4 39.369 61.8 2.266 92.4-64.765 143.1-65.237 51-.661 102.3 44.561 169.5 26.529 68.4-18.41 99-77.322 99-77.322" stroke="url(#e)" stroke-miterlimit="10"/><path d="M-1364.7 242.848s14.8-23.036 38.3-35.97c20.6-11.424 39.3-8.874 73.4-26.057 32.5-16.427 49.8-35.97 87.9-36.159 87.2-.472 95.1 100.547 193.9 117.824 12.3 2.171 23.9 2.549 35 1.416 78.8-7.931 107.4-97.715 159.1-111.782 10.9-3.021 20.1-5.003 28.4-6.136 30.2-4.154 45.6 3.021 89.8 8.308 57.1 6.797 88.3-39.369 152.1-21.715 63.4 17.561 55.9 115.841 124.2 108.666 48.8-5.098 83.1-50.603 122.2-64.765 40-14.539 71.1-20.015 124.4-28.984 13.3-2.266 25.8-2.266 37.9-3.493 30.9-3.21 50-3.21 74.3 6.798 25.4 10.573 35.5 27.19 56.7 37.197 21.4 10.102 29.6 2.549 52.5 7.553 27.6 6.042 52.6 33.799 84.9 34.743 67 1.888 99.2-71.563 154.1-70.997 55.1.378 110.6 52.02 184.3 33.516 74.6-18.693 107.8-82.42 107.8-82.42" stroke="url(#f)" stroke-miterlimit="10"/><path d="M-1364.7 286.371s12.1-20.77 32.6-36.064c17.5-13.029 35.5-17.466 65.3-33.61 28.1-15.2 47.3-31.25 81.7-31.439 89.3-.472 98.7 106.967 204.3 123.677 13.1 2.077 25.4 2.266 37 .756 82.1-10.197 114-104.796 166.5-119.523 11.6-3.21 21.2-5.476 29.8-6.704 31.8-4.72 47.3 3.022 94.5 8.12 60.5 6.797 92.5-45.317 160-26.435 67.2 18.787 56 125.848 127.7 120.089 43.8-3.493 75.5-42.956 109.9-62.121 35.5-19.732 64.8-34.177 111.1-42.296 11.8-2.077 23.2-2.644 34.7-1.983 27.5 1.416 46.1 2.927 67.7 13.312 21.5 10.385 32.5 25.113 50.9 35.404 18.5 10.385 28.3 8.874 48.1 15.2 24.9 8.025 48.4 29.456 78.4 30.117 72.1 1.416 106.1-78.361 165.1-76.756 59.2 1.416 119 59.479 199.1 40.502 80.7-19.071 116.6-87.518 116.6-87.518" stroke="url(#g)" stroke-miterlimit="10"/><path d="M-1364.7 329.894s9.5-18.599 27-36.159c14.5-14.633 31.7-26.151 57.2-41.163 23.6-13.972 44.8-26.529 75.6-26.718 91.4-.566 102.4 113.104 214.7 129.531 14 2.077 26.9 1.982 38.9.189 85.5-12.462 120.5-111.876 173.8-127.17 12.2-3.494 22.3-5.854 31.2-7.27 33.3-5.287 49 2.832 99.3 8.025 63.9 6.609 96.8-51.17 168-31.155 71 20.014 56 135.383 131.2 131.418 38.8-2.077 67.8-35.404 97.7-59.572 31-25.019 58.4-48.338 97.8-55.702 10.3-1.983 20.7-2.077 31.5-.567 24.1 3.493 42.2 8.969 61.1 19.826 17.6 10.102 29.6 23.036 45 33.61 15.7 10.763 27 15.295 43.6 22.942 22.1 10.102 44.1 25.113 71.9 25.49 77.2.85 112.9-85.063 176.1-82.514 63.3 2.455 127.3 66.842 214 47.583 86.9-19.543 125.4-92.616 125.4-92.616" stroke="url(#h)" stroke-miterlimit="10"/><defs><linearGradient id="a" x1="-1364.7" y1="-23.941" x2="616.5" y2="-23.941" gradientUnits="userSpaceOnUse"><stop stop-color="#C482E6"/><stop offset="1" stop-color="#fff"/></linearGradient><linearGradient id="b" x1="-1364.7" y1="18.442" x2="616.2" y2="18.442" gradientUnits="userSpaceOnUse"><stop stop-color="#C482E6"/><stop offset="1" stop-color="#fff"/></linearGradient><linearGradient id="c" x1="-1364.7" y1="60.451" x2="616.4" y2="60.451" gradientUnits="userSpaceOnUse"><stop stop-color="#C482E6"/><stop offset="1" stop-color="#fff"/></linearGradient><linearGradient id="d" x1="-1364.7" y1="102.782" x2="616.4" y2="102.782" gradientUnits="userSpaceOnUse"><stop stop-color="#C482E6"/><stop offset="1" stop-color="#fff"/></linearGradient><linearGradient id="e" x1="-1364.7" y1="145.085" x2="616.4" y2="145.085" gradientUnits="userSpaceOnUse"><stop stop-color="#C482E6"/><stop offset="1" stop-color="#fff"/></linearGradient><linearGradient id="f" x1="-1364.7" y1="187.458" x2="616.5" y2="187.458" gradientUnits="userSpaceOnUse"><stop stop-color="#C482E6"/><stop offset="1" stop-color="#fff"/></linearGradient><linearGradient id="g" x1="-1364.7" y1="229.89" x2="616.3" y2="229.89" gradientUnits="userSpaceOnUse"><stop stop-color="#C482E6"/><stop offset="1" stop-color="#fff"/></linearGradient><linearGradient id="h" x1="-1364.7" y1="272.416" x2="616.3" y2="272.416" gradientUnits="userSpaceOnUse"><stop stop-color="#C482E6"/><stop offset="1" stop-color="#fff"/></linearGradient></defs></svg>