<svg width="1920" height="215" fill="none" xmlns="http://www.w3.org/2000/svg"><path d="M-9.7 24.545S19.1-7.879 56.8-10.472c36.7-2.502 58.3 33.813 114.1 11.487 55-21.863 62.3-58.64 118.8-58.733 76.5-.185 76.8 68.182 141.6 87.08 8.3 2.409 16.6 3.798 25.2 4.262 62.2 3.242 74.4-61.42 122.4-71.888 7.6-1.668 14.5-2.78 21.3-3.335 22.5-1.668 37.1 3.613 66.3 8.893 39.9 7.226 66.9-9.542 112.4 2.038 44.3 11.302 55.3 61.05 106.7 50.859 74-14.637 121.3-87.266 183.4-76.334 62.3 10.931 102.9 49.747 190.7 37.333 20.6-2.964 38.2-6.485 53.8-10.56 48.4-12.692 69.9-34 107.1-25.291 45.1 10.56 50.2 36.963 85.7 45.3 35.6 8.43 35.9-27.699 74.9-30.2 41.1-2.687 73.6 54.008 117.3 56.788 41.3 2.593 65-36.778 99.1-41.317 34.7-4.54 68.8 14.359 110.1-1.483 43.8-16.86 63.8-55.768 63.8-55.768" stroke="url(#a)" stroke-miterlimit="10"/><path d="M-9.7 67.251s26-30.57 60.9-35.017c33.5-4.354 54.5 25.383 105.9 4.076 50.5-20.751 59.8-54.008 112.6-54.008 78.6-.278 80.5 74.296 152.1 92.824 9.1 2.408 18.1 3.52 27.1 3.705 65.5 1.02 81-68.275 129.7-79.484 8.3-1.853 15.6-3.242 22.7-3.89 24-2.131 38.8 3.427 71 8.707 43.3 7.134 71.2-15.378 120.4-2.593 48.1 12.506 55.5 71.887 110.2 62.068 69-12.414 113.7-79.67 171.1-73.74 57.9 5.928 96.6 35.85 177.4 24.178 19.1-2.78 35.7-5.744 50.6-9.171 44.9-10.19 65.9-27.792 100.5-18.899 41.2 10.561 47.2 34.925 79.9 43.54 32.8 8.708 34.6-21.77 70.4-22.696 38.3-1.02 69.4 49.84 110.8 52.248 46.4 2.594 71.8-43.447 110.1-46.968 38.8-3.52 77.2 21.678 124.9 5.373 49.9-17.138 72.6-60.77 72.6-60.77" stroke="url(#b)" stroke-miterlimit="10"/><path d="M-9.7 109.865s23.2-28.625 55.2-35.11c30.3-6.114 50.7 16.768 97.8-3.335 46-19.64 57.3-49.284 106.5-49.376 80.7-.278 84.1 80.317 162.5 98.475 9.9 2.316 19.6 3.242 29.1 3.149 68.8-1.204 87.6-75.13 137.1-86.987 8.9-2.131 16.7-3.613 24.1-4.447 25.6-2.594 40.5 3.335 75.7 8.523 46.7 6.948 75.4-21.214 128.3-7.319 51.9 13.71 55.6 82.541 113.7 73.185 64-10.283 106-72.166 158.9-71.24 53.4.927 90.2 21.956 164.1 11.025 17.6-2.687 33.3-5.095 47.4-7.69 41.5-7.688 61.9-21.584 94-12.506 37.2 10.561 44.3 32.887 74.1 41.78 29.9 8.986 33.4-17.508 66-15.192 35.5 2.501 65.2 45.763 104.3 47.709 51.6 2.594 78.7-50.118 121.1-52.62 42.8-2.5 85.5 29.09 139.8 12.23 56.1-17.417 81.4-65.774 81.4-65.774" stroke="url(#c)" stroke-miterlimit="10"/><path d="M-9.7 152.572s20.4-26.68 49.6-35.203c27-7.874 46.9 8.245 89.7-10.746 41.5-18.435 54.8-44.652 100.3-44.745 82.9-.37 87.8 86.432 173 104.219 10.7 2.223 21 3.057 31.1 2.501 72.1-3.427 94.2-82.078 144.4-94.584 9.6-2.409 17.9-4.076 25.5-4.91 27.1-3.057 42.2 3.15 80.4 8.43 50.2 6.856 79.7-26.958 136.2-11.95 55.7 14.822 55.7 93.102 117.2 84.394 59-8.43 98.4-64.662 146.6-68.646 48.9-4.076 83.9 8.06 150.9-2.13 16.2-2.501 30.7-4.447 44.2-6.3 38-5.28 58-15.47 87.4-6.114 33.3 10.561 41.3 30.849 68.3 40.02 27.1 9.357 32.1-9.727 61.5-7.689 32.9 2.316 61 41.595 97.9 43.17 56.7 2.408 85.5-56.788 132.1-58.27 46.9-1.482 93.9 36.407 154.6 19.084 62.3-17.694 90.2-70.776 90.2-70.776" stroke="url(#d)" stroke-miterlimit="10"/><path d="M-9.7 195.278s17.6-24.642 43.9-35.295c23.8-9.542 43.1-.186 81.5-18.157 37-17.324 52.3-40.02 94.1-40.113 85-.371 91.4 92.546 183.4 109.962 11.5 2.224 22.5 2.779 33 1.946C501.7 207.97 527 124.687 578 111.44c10.3-2.686 19-4.539 27-5.466 28.7-3.613 43.9 3.057 85.1 8.245 53.6 6.763 84-32.794 144.2-16.582 59.6 16.026 55.8 103.57 120.7 95.51 53.9-6.67 90.8-57.065 134.4-66.144 44.5-9.171 77.5-5.836 137.6-15.285 14.7-2.316 28.2-3.798 41.1-4.817 34.5-2.965 54-9.264 80.8.278 29.3 10.468 38.4 28.718 62.5 38.26 24.2 9.634 30.8-3.706 57-.093 30.3 4.076 56.8 37.333 91.4 38.63 61.8 2.224 92.4-63.55 143.1-64.013 51-.649 102.3 43.725 169.5 26.031 68.4-18.064 99-75.87 99-75.87" stroke="url(#e)" stroke-miterlimit="10"/><path d="M-9.7 237.985s14.8-22.604 38.3-35.296c20.6-11.209 39.3-8.708 73.4-25.568 32.5-16.119 49.8-35.295 87.9-35.481 87.2-.463 95.1 98.661 193.9 115.613 12.3 2.131 23.9 2.502 35 1.39 78.8-7.782 107.4-95.881 159.1-109.684 10.9-2.965 20.1-4.91 28.4-6.022 30.2-4.076 45.6 2.965 89.8 8.152 57.1 6.67 88.3-38.63 152.1-21.306 63.4 17.23 55.9 113.667 124.2 106.627 48.8-5.003 83.1-49.655 122.2-63.55 40-14.267 71.1-19.64 124.4-28.441 13.3-2.223 25.8-2.223 37.9-3.427 30.9-3.15 50-3.15 74.3 6.67 25.4 10.375 35.5 26.68 56.7 36.499 21.4 9.913 29.6 2.502 52.5 7.412 27.6 5.928 52.6 33.164 84.9 34.091 67 1.852 99.2-70.221 154.1-69.665 55.1.371 110.6 51.044 184.3 32.887 74.6-18.342 107.8-80.874 107.8-80.874" stroke="url(#f)" stroke-miterlimit="10"/><path d="M-9.7 280.691s12.1-20.38 32.6-35.388c17.5-12.784 35.5-17.138 65.3-32.979 28.1-14.915 47.3-30.664 81.7-30.849 89.3-.463 98.7 104.96 204.3 121.357 13.1 2.038 25.4 2.223 37 .741 82.1-10.005 114-102.829 166.5-117.281 11.6-3.15 21.2-5.373 29.8-6.577 31.8-4.632 47.3 2.964 94.5 7.967 60.5 6.67 92.5-44.467 160-25.939 67.2 18.435 56 123.487 127.7 117.836 43.8-3.427 75.5-42.15 109.9-60.956 35.5-19.361 64.8-33.535 111.1-41.502 11.8-2.038 23.2-2.594 34.7-1.945 27.5 1.389 46.1 2.871 67.7 13.062 21.5 10.19 32.5 24.641 50.9 34.739 18.5 10.19 28.3 8.708 48.1 14.915 24.9 7.874 48.4 28.903 78.4 29.552 72.1 1.389 106.1-76.89 165.1-75.316 59.2 1.39 119 58.363 199.1 39.742 80.7-18.713 116.6-85.876 116.6-85.876" stroke="url(#g)" stroke-miterlimit="10"/><path d="M-9.7 323.397s9.5-18.249 27-35.48c14.5-14.359 31.7-25.661 57.2-40.391 23.6-13.71 44.8-26.031 75.6-26.216 91.4-.556 102.4 110.981 214.7 127.1 14 2.038 26.9 1.945 38.9.185 85.5-12.228 120.5-109.777 173.8-124.784 12.2-3.428 22.3-5.744 31.2-7.133 33.3-5.188 49 2.779 99.3 7.874 63.9 6.485 96.8-50.21 168-30.571 71 19.64 56 132.844 131.2 128.953 38.8-2.038 67.8-34.739 97.7-58.455 31-24.549 58.4-47.431 97.8-54.657 10.3-1.945 20.7-2.038 31.5-.555 24.1 3.427 42.2 8.8 61.1 19.454 17.6 9.912 29.6 22.604 45 32.979 15.7 10.561 27 15.007 43.6 22.511 22.1 9.913 44.1 24.642 71.9 25.013 77.2.833 112.9-83.468 176.1-80.967 63.3 2.409 127.3 65.589 214 46.69 86.9-19.176 125.4-90.878 125.4-90.878" stroke="url(#h)" stroke-miterlimit="10"/><defs><linearGradient id="a" x1="-9.7" y1="-23.8" x2="1971.5" y2="-23.8" gradientUnits="userSpaceOnUse"><stop stop-color="#C482E6"/><stop offset="1" stop-color="#fff"/></linearGradient><linearGradient id="b" x1="-9.7" y1="17.788" x2="1971.2" y2="17.788" gradientUnits="userSpaceOnUse"><stop stop-color="#C482E6"/><stop offset="1" stop-color="#fff"/></linearGradient><linearGradient id="c" x1="-9.7" y1="59.01" x2="1971.4" y2="59.01" gradientUnits="userSpaceOnUse"><stop stop-color="#C482E6"/><stop offset="1" stop-color="#fff"/></linearGradient><linearGradient id="d" x1="-9.7" y1="100.546" x2="1971.4" y2="100.546" gradientUnits="userSpaceOnUse"><stop stop-color="#C482E6"/><stop offset="1" stop-color="#fff"/></linearGradient><linearGradient id="e" x1="-9.7" y1="142.056" x2="1971.4" y2="142.056" gradientUnits="userSpaceOnUse"><stop stop-color="#C482E6"/><stop offset="1" stop-color="#fff"/></linearGradient><linearGradient id="f" x1="-9.7" y1="183.633" x2="1971.5" y2="183.633" gradientUnits="userSpaceOnUse"><stop stop-color="#C482E6"/><stop offset="1" stop-color="#fff"/></linearGradient><linearGradient id="g" x1="-9.7" y1="225.27" x2="1971.3" y2="225.27" gradientUnits="userSpaceOnUse"><stop stop-color="#C482E6"/><stop offset="1" stop-color="#fff"/></linearGradient><linearGradient id="h" x1="-9.7" y1="266.998" x2="1971.3" y2="266.998" gradientUnits="userSpaceOnUse"><stop stop-color="#C482E6"/><stop offset="1" stop-color="#fff"/></linearGradient></defs></svg>