<svg xmlns="http://www.w3.org/2000/svg" width="108" height="100" fill="none"><path d="M76.1 56.71c-.5-.672-1.175-1.184-1.722-1.798-.244-.273-.512-.558-.663-.888-.035-.08-.07-.25-.152-.375-.267-.433-.756-.604-1.233-.706-.023 0-.035-.011-.058-.011-.094-.171-.547-.672-2.817-2.56-1.315-1.105-2.98-2.436-3.468-2.755-.186-.114-.396-.273-.652-.444-1-.694-2.362-1.65-3.55-1.866-.348-.478-1.99-2.708-2.501-3.232.197-.649.384-1.297.547-1.946.15-.66.29-1.343.29-2.048-.011-1.389-.418-2.811-1.315-3.904-.86-1.058-1.896-1.934-2.979-2.742l.128-2.572.058-1.332c.012-.227 0-.387.093-.58.094-.194.245-.387.431-.467.582.171 1.595.774 2.2 1.059l2.42 1.229c3.096 1.582 6.715 3.596 9.52 5.03.57.83 1.152 1.65 1.897 2.355.384.387.896.672 1.49.592 1.059-.068.896-1.127.593-1.81a1.42 1.42 0 0 0-.302-.455c-.64-.773-1.339-1.49-2.014-2.23-.349-.421-1.094-1.001-1.5-1.354-.932-.728-2.177-1.844-3.155-2.492-2.374-1.514-4.76-3.175-7.122-4.69-.792-.454-2.304-1.205-3.12-1.65a87.111 87.111 0 0 0-1.791-.91c-.466-.205-.92-.489-1.257-.864 2.362-.103 4.26-2.003 4.26-4.348a4.24 4.24 0 0 0-.14-1.08c.023.01.034.01.034.022a.165.165 0 0 0 .128.011.125.125 0 0 0 .094-.09c.395-.934.43-1.753.081-2.436-.465-.933-1.455-1.32-1.757-1.411-.361-.968-1.676-1.628-3.329-1.639-1.187-.011-2.618.341-3.654 1.263a2.846 2.846 0 0 0-2.537-.66c-1.001.205-1.723 1.24-1.641 2.356.07.956.815 2.014 2.677 2.15-.198 3.221 1.734 3.904 1.838 3.938.012 0 .035.012.047.012.105.148.21.284.326.42-.338.479-.908 1.048-1.513.98-.175-.046-.396-.183-.582-.32a15.349 15.349 0 0 1-2.141-1.911c-1.257-1.309-2.828-3.13-3.922-4.188-.408-1.354-.815-2.697-1.327-4.017-.57-1.309-1.315-2.504-2.025-3.733-.757-1.195-1.362-2.526-2.432-3.494-.652-.625-3.852-3.414-4.132-1.4-.012.752.547 1.355 1.036 1.867.337.341.698.649 1.082.945.361.273.722.534 1.06.842.395 1.297.79 2.594 1.221 3.88.384 1.104.99 2.766 1.362 3.88.36.98.652 1.97 1.175 2.903.92 1.445 1.84 2.925 2.805 4.336.698 1.138 1.78 2.128 2.188 3.414.186.637.198 1.343.303 2.003.244 1.695.372 3.425.837 5.087.56 1.638 1.374 3.175 2.212 4.688l.046.08.093.011c.082.012.163.012.233.012.012.159.023.386.047.682v.046c.116 1.309.372 3.607.873 4.518.965 1.73 3.363 4.29 3.759 4.723-.256 2.105-.524 4.278-.722 5.951-.465 2.97-1.21 7.147-1.746 10.163a2.507 2.507 0 0 0-.349.83c-.07.308-.058.65.035.957.186.569.384 1.115.617 1.672.396.865.733 1.9 1.548 2.481.686.342 1.955.638 2.42-.17.14-.296.024-.638-.058-.934-.279-.842-.733-1.615-1.047-2.435-.093-.228-.105-.592-.128-.853l-.07-.717c.337-.183.547-.535.733-.854.489-.922.792-1.912 1.07-2.902.804-2.959 1.34-5.974 1.77-9.002.023-.125.093-.33.128-.455.046-.148.198-.626.36-1.115.99.603 5.342 3.266 5.855 3.653.36.273 1.675 1.138 2.85 1.912.804.523 1.502.979 1.723 1.15.082.056.163.124.256.193.582.42 1.315.956 1.85.978h.024a.623.623 0 0 0 .268-.068c.314.706 1.78 1.593 2.27 1.912.907.524 2.094.956 3.106.387.198-.091.431-.41.256-.66ZM59.05 23.332c.501.262 1.281.66 1.735.979 1.687 1.08 3.34 2.23 5.016 3.323.267.182 1.862 1.195 2.095 1.365.29.216.86.683 1.163.934.769.648 2.142 1.707 2.84 2.39.722.796 1.478 1.57 2.165 2.4.093.126.186.217.244.365.151.341.35.944.082 1.195-.175.148-.524.148-.815.102a.941.941 0 0 1-.372-.182c-.92-.706-1.583-1.696-2.235-2.629a774.38 774.38 0 0 0-9.625-5.11c-.814-.41-2.84-1.445-3.63-1.854-.315-.16-.617-.32-.955-.433-.07-.023-.21-.068-.314-.034a1.17 1.17 0 0 0-.617.58c-.826-1.752.163-4.176.466-4.825.92.478 1.908.99 2.758 1.434Zm-.732-7.363c0 2.23-1.85 4.04-4.132 4.04a4.147 4.147 0 0 1-3.55-1.969c-.07-.853 0-2.128.454-2.39.629-.364 1.455.501 1.455.513.035.034.093.056.14.045.058-.011.105-.045.116-.091.42-.91 1.048-1.514 1.862-1.775 1.28-.41 2.724.068 3.422.375.163.399.233.831.233 1.252ZM46.26 12.271c-.07-.956.535-1.844 1.385-2.015 1.257-.262 2.048.399 2.234.58a3.934 3.934 0 0 0-.896 1.491 11.303 11.303 0 0 0-.35 1.81c-1.407-.114-2.292-.797-2.373-1.867Zm3.026.147c.675-2.037 2.793-2.754 4.422-2.754h.058c1.548.012 2.77.615 3.05 1.503.011.056.058.09.116.102.011 0 1.164.33 1.64 1.275.28.569.268 1.24-.023 2.014-.546-.262-2.339-1.036-3.945-.512-.85.273-1.501.853-1.955 1.741-.314-.285-1.036-.785-1.7-.41-.674.399-.663 1.935-.616 2.595-.628-.341-2.106-1.627-1.047-5.554Zm1.792 6.67a4.42 4.42 0 0 0 2.84 1.228c.256.353.558.615.919.842-.047.114-.128.217-.186.319a4.637 4.637 0 0 1-.384.546c-.547.683-1.14 1.389-1.956 1.776a2.41 2.41 0 0 1-2.467-.228c-1.07-.785-.85-2.31-.43-3.403.698-.011 1.268-.557 1.664-1.08Zm-8.321.113c-.966-1.411-1.874-2.89-2.793-4.336-.478-.876-.792-1.878-1.13-2.822a305.215 305.215 0 0 0-1.36-3.88c-.443-1.32-.85-2.652-1.246-3.984-1.047-.455-3.352-2.242-3.294-3.425.233-1.741 3.666 1.377 4.248 2.071.733.91 1.245 1.969 1.862 2.959.466.808.931 1.627 1.373 2.458.908 1.639 1.339 3.47 1.886 5.246 1.257 1.491 2.653 2.913 3.992 4.347a14.342 14.342 0 0 0 1.745 1.594c-.325 1.934-1.315 3.755-2.746 5.12-.082-.614-.105-1.228-.28-1.831-.442-1.366-1.512-2.334-2.257-3.517Zm3.375 10.595c-.443-1.627-.582-3.323-.827-4.985 1.513-1.377 2.56-3.232 2.91-5.223l.28.205c.174.114.348.227.558.318a5.688 5.688 0 0 0-.268 1.15c-.128.91.07 1.991.908 2.526.78.546 1.862.626 2.712.194 1.035-.524 1.699-1.514 2.362-2.424.07-.103.128-.205.21-.308.011.012.023.023.046.023.338.17.698.342 1.07.535-.313.683-1.419 3.3-.372 5.19-.046.17-.07.352-.058.534l-.058 1.332s-.116 2.515-.128 2.617a6.915 6.915 0 0 1-1.327 1.514 4.809 4.809 0 0 1-1.792.978c-1.303.387-2.723.467-4.085.365-.815-1.48-1.606-2.96-2.141-4.541Zm6.33 4.506c1.083-.318 2.002-1.001 2.724-1.843-.407 1.013-1.14 1.923-2.188 2.344-1.303.535-2.828.649-4.213.421a18.752 18.752 0 0 0-.035-.512c1.246.046 2.503-.057 3.713-.41Zm1.84 30.545c.186.466.407.933.419 1.434-.105.66-1.036.603-1.548.455-.605-.125-.978-.512-1.257-1.024a10.876 10.876 0 0 1-.733-1.582 28.176 28.176 0 0 1-.582-1.662c-.14-.432-.035-.91.186-1.32.652.672 1.746.672 2.642.49.023.352.07.899.081 1.126.082.74.536 1.4.792 2.083Zm2.595-16.558a8.905 8.905 0 0 0-.151.523 101.785 101.785 0 0 1-.838 4.996c-.373 1.718-1.234 6.475-2.526 7.488-.396.068-1.443.194-1.99-.136a1.325 1.325 0 0 1-.43-.365c.535-3.004 1.28-7.17 1.745-10.128.361-2.925.885-7.306 1.28-10.265a.184.184 0 0 0-.116-.193c-1.013-.364-2.095-.717-2.91-1.446.71.786 1.7 1.264 2.642 1.719a245.162 245.162 0 0 0-.477 3.71c-.71-.774-2.677-2.948-3.491-4.416-.454-.808-.699-2.868-.815-4.176a8.437 8.437 0 0 0 2.072.057c2.083-.148 3.829-1.013 4.608-3.005.117-.261.198-.535.268-.808 1.129.865 2.246 1.81 3.06 2.96.63.955.932 2.15.943 3.277 0 .66-.128 1.32-.279 1.968-.71 2.743-1.734 5.52-2.595 8.24Zm13.279 6.51c-.43-.024-1.13-.536-1.653-.911a13.66 13.66 0 0 0-.267-.194c-.233-.17-.932-.626-1.735-1.15-1.163-.762-2.479-1.627-2.828-1.9-.547-.42-5.144-3.22-5.97-3.721.14-.421.268-.808.314-.956.373-1.172.769-2.333 1.14-3.505.49.569 1.642 2.094 2.375 3.095l.047.057.081.012c1.129.17 2.537 1.16 3.468 1.82.256.183.477.33.663.456.885.569 5.691 4.54 6.134 5.12-.058.137-.326.536-.745.99-.512.559-.885.809-1.024.786Zm5.702 2.161c-.326.478-1.07.478-1.617.376-1.001-.205-1.85-.842-2.63-1.457-.315-.284-.71-.557-.862-.956.117-.08.233-.182.361-.307.407-.387 1.013-1.093 1.152-1.457h.023c.396.08.862.25 1.071.604.407 1.229 1.63 1.991 2.42 2.981.024.034.07.091.082.137.024.022.012.034 0 .08ZM13.686 81.53a2.525 2.525 0 0 0-.756-.842 3.15 3.15 0 0 0-1.106-.5c-.28-.08-.477-.137-.71-.172.291-.239.594-.5.745-.671.256-.284.466-.603.617-.956.151-.353.221-.728.221-1.115 0-.649-.163-1.207-.477-1.696a4.193 4.193 0 0 0-1.257-1.206 6.546 6.546 0 0 0-1.757-.74 7.68 7.68 0 0 0-1.956-.25c-1.012 0-1.955.125-2.84.364-.884.25-1.652.603-2.304 1.081A5.136 5.136 0 0 0 .56 76.614C.186 77.33 0 78.16 0 79.106c0 .649.151 1.275.442 1.878a5.406 5.406 0 0 0 1.199 1.604c.5.467 1.094.843 1.757 1.127a5.391 5.391 0 0 0 2.13.432l.14-.182c-.059 0-.105 0-.14.012-.047.011-.093.011-.14.011-.756 0-1.42-.16-2.013-.478a4.955 4.955 0 0 1-1.49-1.218 5.34 5.34 0 0 1-.93-1.661 5.456 5.456 0 0 1-.315-1.787c0-.82.175-1.559.524-2.219a4.95 4.95 0 0 1 1.431-1.661c.605-.456 1.315-.797 2.107-1.047a8.51 8.51 0 0 1 2.548-.365c.64 0 1.246.069 1.816.228.57.148 1.059.376 1.49.672.419.296.756.671 1 1.126.245.455.373.979.373 1.582 0 .33-.07.706-.198 1.115-.128.41-.326.774-.57 1.115-.117.16-.338.376-.559.592h-.023c-.105-.011-.326-.011-.326-.011H7.39v-3.642c0-.25.058-.478.163-.671.105-.194.303-.33.582-.398H5.924c.256.068.43.204.547.398.116.193.174.41.174.648V84.5c0 .24-.058.455-.163.66-.104.205-.302.342-.558.41h4.19c.453 0 .907-.057 1.373-.16a3.94 3.94 0 0 0 1.233-.5 2.71 2.71 0 0 0 .896-.876c.233-.365.338-.786.338-1.298.011-.466-.082-.876-.268-1.206Zm-1.466 3.175c-.524.467-1.222.694-2.107.694H7.39V80.13h2.723c.094 0 .187 0 .28.012.163.011.314.022.465.056.524.103.978.296 1.35.615.535.444.792 1.093.792 1.935 0 .842-.257 1.49-.78 1.957Zm14.07 1.184v.023h-.105l.059-.012c.023 0 .035 0 .046-.011Z" fill="#000"/><path d="M37.334 85.536c-.43.364-.85.671-1.268.944-.419.273-.908.467-1.49.603-.465.103-.92.137-1.373.092a7.858 7.858 0 0 1-1.35-.262 23.175 23.175 0 0 1-1.35-.433 19.332 19.332 0 0 0-1.373-.432 8.21 8.21 0 0 0-1.42-.25 4.73 4.73 0 0 0-1.432.102c-.011 0-.034 0-.046.011l-.058.012H24.8c.28-.069.466-.205.57-.399.105-.193.164-.42.164-.682v-8.217c0-.25-.047-.478-.163-.671-.105-.194-.303-.319-.57-.387h2.176c-.28.068-.466.193-.559.387-.105.193-.151.41-.151.671v9.082a6.443 6.443 0 0 1 2.141-.012c.757.125 1.502.262 2.258.433.756.17 1.501.307 2.258.42a6.303 6.303 0 0 0 2.257-.102 4.75 4.75 0 0 0 1.083-.387c.302-.159.617-.364.966-.626l.105.103Z" fill="#000"/><path d="M38.708 82.383c-.303.308-.605.58-.908.82-.303.239-.663.421-1.094.569-.35.114-.698.17-1.047.17-.35 0-.71-.033-1.06-.102a20.44 20.44 0 0 1-1.07-.239c-.36-.09-.722-.17-1.082-.227a5.956 5.956 0 0 0-1.106-.091c-.198 0-.384.022-.582.056H29.63c.21-.056.361-.159.442-.307.082-.16.128-.33.128-.523V76.17a1.04 1.04 0 0 0-.128-.512c-.081-.148-.232-.25-.442-.296h1.688c-.21.057-.361.148-.43.296a1.042 1.042 0 0 0-.117.512v7.033c.372-.057.744-.08 1.117-.057.582.046 1.175.091 1.769.17a30.65 30.65 0 0 0 1.757.16 4.45 4.45 0 0 0 1.723-.239 3.29 3.29 0 0 0 .803-.375c.22-.148.442-.33.686-.547l.082.069Zm9.636-6.998c0 .034-.035.068-.07.068-.489 0-.977.262-1.49.797a7.309 7.309 0 0 0-1.291 1.923 14.861 14.861 0 0 0-.885 2.333c-.233.808-.337 1.49-.337 2.06v1.98c0 .318.128.569.407.728a.79.79 0 0 0 .43.125h.152v.137h-2.828v-.137h.163c.221 0 .407-.08.57-.239a.818.818 0 0 0 .256-.591v-2.015c0-.603-.116-1.308-.36-2.117a13.971 13.971 0 0 0-.932-2.332 7.307 7.307 0 0 0-1.361-1.878c-.524-.512-1.048-.763-1.548-.774h-.012c-.035 0-.07-.034-.07-.068s.024-.069.07-.069h.326c.151 0 .373.023.64.08.268.057.512.137.745.24.233.102.454.25.675.443.221.193.407.376.57.535.151.17.314.387.477.648.163.274.291.501.384.695.105.193.21.432.338.74.151.386.28.716.372 1 .093.285.152.433.152.467.011.023.023.057.035.091.023.069.046.137.07.194.023-.057.08-.228.186-.5.093-.274.186-.513.267-.73.082-.215.21-.523.384-.92a7.24 7.24 0 0 1 .477-.946c.14-.227.326-.489.547-.785.222-.296.454-.523.675-.683.547-.386 1.141-.58 1.758-.58.023.011.058.034.058.08Zm14.943 2.537c-.442-.762-1.117-1.365-2.013-1.797-.896-.433-1.99-.66-3.294-.66h-3.747v.068c.256 0 .454.068.628.216.163.148.245.353.245.603v8.501c0 .25-.082.455-.245.603-.163.148-.372.216-.628.216v.069h3.596c1.233 0 2.316-.228 3.235-.683.92-.455 1.63-1.081 2.142-1.867.5-.785.756-1.672.756-2.651 0-.979-.233-1.855-.675-2.618Zm-.791 5.235c-.396.752-.99 1.332-1.78 1.753-.792.421-1.747.637-2.887.637h-.99c-.325 0-.546-.045-.674-.148-.128-.102-.198-.284-.198-.546v-8.5c0-.263.07-.445.198-.547.128-.103.36-.148.675-.148h1.175c3.375.011 5.074 1.65 5.074 4.927 0 .98-.198 1.833-.593 2.572Zm13.023 2.299a1.299 1.299 0 0 1-.49-.614l-3.968-9.389h-.547l-3.887 9.172c-.105.262-.29.501-.535.729-.256.216-.512.33-.803.33v.068h2.106v-.068a.663.663 0 0 1-.477-.17.62.62 0 0 1-.174-.456c0-.103.023-.216.07-.342l1.28-3.015h4.678l1.431 3.357c.035.09.059.17.059.25 0 .137-.058.24-.186.296-.129.057-.28.091-.454.091v.068h2.572v-.068a1.158 1.158 0 0 1-.675-.239Zm-7.344-3.96 2.246-5.292 2.258 5.292h-4.504Zm17.364-6.032v.069c.256 0 .477.08.663.25.186.17.28.41.28.717v7.773l-7.1-8.82h-1.64v.068c.255 0 .488.08.674.25.187.171.28.41.28.718v8.205c0 .318-.093.557-.28.717a.952.952 0 0 1-.675.25v.068h2.107v-.068a.943.943 0 0 1-.663-.25c-.187-.171-.28-.41-.28-.717v-8.49l7.798 9.662v-9.389c0-.318.093-.557.279-.717a.952.952 0 0 1 .675-.25v-.068h-2.118v.022Zm12.522 8.9c-.977.876-2.188 1.308-3.63 1.308a5.006 5.006 0 0 1-2.62-.705c-.78-.467-1.396-1.127-1.85-1.946-.454-.83-.675-1.764-.675-2.8 0-.899.198-1.707.605-2.424a4.32 4.32 0 0 1 1.7-1.673c.733-.41 1.559-.614 2.49-.614.745 0 1.443.125 2.095.387a3.285 3.285 0 0 1 1.56 1.286h.093l-.408-1.867h-.07c-.011.069-.07.114-.186.126a3.994 3.994 0 0 1-.419.022c-.116 0-.244 0-.384-.011l-.43-.034a22.981 22.981 0 0 0-1.84-.102c-1.035 0-1.99.227-2.862.682a5.323 5.323 0 0 0-2.072 1.9c-.512.809-.756 1.72-.756 2.732 0 .967.244 1.855.721 2.663.477.808 1.152 1.445 2.014 1.912.86.466 1.838.705 2.932.705.838 0 1.583-.113 2.223-.341a5.59 5.59 0 0 0 1.816-1.092l-.047-.114Zm-75.425-.569-.396 1.832h-.07c-.023-.091-.22-.148-.593-.148h-6.808v-.068a.885.885 0 0 0 .616-.217.755.755 0 0 0 .245-.591V76.25a.755.755 0 0 0-.245-.592.885.885 0 0 0-.616-.216v-.069h6.354c.372 0 .57-.045.593-.148h.07l.396 1.833H22.1a4.492 4.492 0 0 0-.582-1.025c-.245-.307-.512-.466-.827-.466h-3.375c-.314 0-.535.045-.663.148-.128.09-.186.273-.186.535v3.846h2.339a.43.43 0 0 0 .128-.045c.268-.103.489-.273.489-.558v1.411c0-.33-.291-.512-.605-.603h-2.351v4.313c0 .262.058.444.186.535.128.09.349.148.663.148h3.817c.303 0 .582-.16.827-.467.244-.307.43-.648.582-1.024h.093v-.011Zm85.364 0-.396 1.832h-.081c-.023-.091-.221-.148-.594-.148h-6.796v-.068a.886.886 0 0 0 .617-.217.758.758 0 0 0 .244-.591V76.25a.758.758 0 0 0-.244-.592.886.886 0 0 0-.617-.216v-.069h6.354c.372 0 .57-.045.594-.148h.069l.396 1.833h-.093a4.458 4.458 0 0 0-.582-1.025c-.244-.307-.512-.466-.826-.466h-3.375c-.314 0-.536.045-.664.148-.128.09-.186.273-.186.535v3.846h2.339a.42.42 0 0 0 .128-.045c.268-.103.489-.273.489-.558v1.411c0-.33-.291-.512-.605-.603h-2.351v4.313c0 .262.058.444.186.535.128.09.35.148.664.148h3.817c.303 0 .582-.16.826-.467.245-.307.431-.648.582-1.024H108v-.011ZM25.848 99.67l.013.013v-.013h-.013Z" fill="#000"/><path d="m32.097 93.15-.721.056v6.726h-.43v-.945c-1.188-3.653-4.132-5.246-5.028-5.656l-.058 6.328h-.012l.012.011v-.011l.79.068v.193h-1.966v-.193l.803-.057v-6.726c.105.012.373.091.43.114.734.319 3.62 1.764 5.017 5.178v-5.03l-.803-.057v-.193h1.966v.193Z" fill="#000"/><path d="M25.872 99.67v.012l-.024-.012h.024Zm-2.049.046a28.732 28.732 0 0 1-.675-1.332l-2.724-5.371c-.011-.023-.023-.035-.07-.035a.107.107 0 0 0-.08.035l-2.456 5.428c-.117.262-.606.979-.792 1.252l-.756.057v.193h1.827v-.193l-.617-.057c.116-.285.477-.956.559-1.16l.104-.228.012.01c.012-.022 1.595-1.718 3.34-2.241l1.478 2.993c.024.057.256.455.338.637l-.931.034v.194h1.827v-.182l-.384-.034Zm-5.4-2.015.675-1.502.093-.205 1.152-2.412 1.094 2.276c-1.222.387-2.467 1.308-3.014 1.843Zm78.905.512c0 .296-.07.547-.198.774-.14.228-.326.41-.582.558a3.204 3.204 0 0 1-.92.341c-.36.069-.756.114-1.198.114-.442 0-.85-.034-1.222-.114a5.225 5.225 0 0 1-1.059-.341 4.738 4.738 0 0 1-.93-.592l.244-.25c.186.17.384.319.605.444.22.125.454.239.698.318.244.08.512.148.791.194.28.045.57.068.885.068.768 0 1.373-.125 1.815-.364.442-.25.664-.603.664-1.081 0-.33-.093-.592-.291-.797-.186-.193-.49-.364-.873-.49a11.412 11.412 0 0 0-1.501-.34 12.355 12.355 0 0 1-1.502-.342c-.407-.125-.721-.296-.93-.512-.21-.216-.315-.524-.315-.9 0-.409.116-.762.36-1.046.245-.285.571-.5 1.002-.649.43-.148.93-.216 1.513-.216.349 0 .675.034.966.091.29.057.558.148.814.262.233.114.454.25.675.444l.314-.399.163.125-.244.422-.035.068-.058.068-.082.091-.384.398-.163-.125.303-.387a2.555 2.555 0 0 0-.454-.33 2.715 2.715 0 0 0-.524-.239 3.297 3.297 0 0 0-.581-.125 4.185 4.185 0 0 0-.675-.045c-.873 0-1.502.136-1.886.42-.395.285-.582.65-.582 1.127 0 .319.082.57.256.751.163.183.443.33.803.433.361.102.838.216 1.432.319a12.02 12.02 0 0 1 1.56.364c.442.136.779.318 1.012.557.198.194.314.512.314.933ZM84.573 99.75v.193h-1.967v-.193l.722-.057h.046v-4.28c-.582-.056-2.607-.056-4.667 2.06l-.011-.01v2.23l.768.057v.193h-1.967v-.193l.722-.057h.046v-6.476l-.826-.056v-.194h1.967v.194l-.722.056v3.904c2.06-2.014 4.038-2.026 4.678-1.958V93.23l-.826-.057v-.194h1.967v.194l-.722.057v6.475l.792.046Zm-7.705-6.783v.91h-.197l-.059-.614h-2.478v6.418l.71.069v.193H72.9v-.193l.815-.057v-6.43h-2.538l-.058.614h-.198v-.91h5.947Zm-37.951 5.235c-.116.478-.302.75-.64.978a3.6 3.6 0 0 1-1.117.535 4.037 4.037 0 0 1-1.199.182 3.523 3.523 0 0 1-1.466-.307 3.779 3.779 0 0 1-1.164-.808 3.69 3.69 0 0 1-.757-1.138 3.296 3.296 0 0 1-.267-1.274c0-.41.081-.82.244-1.218.163-.398.407-.774.722-1.104.314-.33.698-.592 1.164-.797.453-.193.977-.295 1.57-.295.699 0 1.293.136 1.781.42.245.137.454.296.64.479l.478-.353.104.114-.442.387-.268.239-.453.398-.105-.114.384-.41.023-.034a3.183 3.183 0 0 0-.314-.261 2.762 2.762 0 0 0-.896-.41 3.942 3.942 0 0 0-.966-.125c-.524 0-.99.09-1.397.273a3.02 3.02 0 0 0-1.024.728c-.28.307-.489.637-.628 1.001-.14.376-.21.74-.21 1.127 0 .421.082.82.256 1.206.163.376.396.717.699 1.013a3.303 3.303 0 0 0 2.35.968 3.575 3.575 0 0 0 1.979-.604c.28-.216.745-.478.92-.796Zm16.514.034c-.116.478-.302.751-.64.99-.337.24-.71.421-1.117.546a4.038 4.038 0 0 1-1.199.183 3.523 3.523 0 0 1-1.466-.308 3.984 3.984 0 0 1-1.164-.808 3.61 3.61 0 0 1-.756-1.15 3.351 3.351 0 0 1-.268-1.285c0-.41.082-.82.244-1.23a3.44 3.44 0 0 1 .722-1.103c.314-.33.698-.603 1.164-.797a3.982 3.982 0 0 1 1.57-.296c.7 0 1.293.137 1.782.422.244.136.453.295.64.478l.477-.365.105.114-.443.387-.267.24-.454.397-.105-.113.384-.41.023-.034a3.37 3.37 0 0 0-.314-.273 3.058 3.058 0 0 0-.896-.421 3.946 3.946 0 0 0-.966-.126c-.524 0-.99.091-1.397.274a3.018 3.018 0 0 0-1.024.728 3.09 3.09 0 0 0-.628 1.013c-.14.375-.21.75-.21 1.126 0 .433.082.831.256 1.207.163.387.396.717.699 1.013a3.305 3.305 0 0 0 2.35.967 3.575 3.575 0 0 0 1.979-.603c.28-.171.745-.444.92-.763ZM26.663 99.75v.204h-1.967v-.01h1.966v-.194Zm-16.014.204v-7.021h2.444c.791 0 1.443.16 1.955.466.524.32.908.74 1.175 1.264.268.523.396 1.115.396 1.764 0 .717-.14 1.331-.43 1.855a3.148 3.148 0 0 1-1.223 1.229c-.535.296-1.152.432-1.862.432H10.65v.011Zm5.598-3.516a3.55 3.55 0 0 0-.373-1.639 2.827 2.827 0 0 0-1.07-1.138c-.466-.273-1.036-.41-1.723-.41h-2.072v6.396h2.072c.687 0 1.269-.136 1.734-.42.466-.285.826-.66 1.06-1.15.255-.49.372-1.036.372-1.639Zm29.316-3.448h-.338v.319h.338v-.32Z" fill="#000"/><path d="M45.318 93.331v-.045h-4.667v2.833c.512-.227 1.14-.33 1.653-.09.547.272 1.059.66 1.699.534.407-.057.803-.205 1.199-.364l.023.034c-.722.467-1.676.83-2.502.41-.384-.148-.722-.307-1.13-.342-.302-.034-.616-.01-.953 0v3.335h4.666v-.615h.175l.058.501.012.08v.102l-.012.125-.011.126h-5.272V92.99h5.306v.933h-.174l-.058-.5-.012-.092Zm44.911 0v-.045h-4.667v2.833c.512-.227 1.14-.33 1.653-.09.547.272 1.059.66 1.699.534.407-.057.803-.205 1.198-.364l.024.034c-.722.467-1.676.83-2.502.41-.384-.148-.722-.307-1.13-.342-.302-.034-.616-.01-.954 0v3.335h4.667v-.615h.175l.058.501.012.08v.102l-.012.125-.012.126h-5.283V92.99h5.307v.933h-.175l-.058-.5v-.092Zm-27.023 5.872c-.629.387-1.339.797-2.119.797-.628 0-1.233-.194-1.838-.296-.5-.09-.896.103-1.362.17-.14.024-.28.046-.43.058l-.012-6.737-.827-.057v-.194h1.967v.194l-.721.057v6.373c.558-.25 1.21-.399 1.804-.24.698.205 1.385.535 2.118.33.477-.102.942-.295 1.385-.5l.035.045Zm7.413-3.994a3.821 3.821 0 0 0-.745-1.127 3.381 3.381 0 0 0-1.14-.808 3.5 3.5 0 0 0-1.478-.307c-.513 0-.99.103-1.432.285a3.856 3.856 0 0 0-1.164.785 3.37 3.37 0 0 0-.768 1.126 3.25 3.25 0 0 0-.011 2.618c.174.42.43.796.744 1.126.326.33.71.604 1.153.797.442.194.942.296 1.478.296a3.635 3.635 0 0 0 3.352-2.185c.185-.421.279-.865.279-1.331 0-.433-.094-.854-.268-1.275Zm-.07 1.275c0 .398-.081.785-.244 1.16a3.55 3.55 0 0 1-.675 1.036 3.229 3.229 0 0 1-2.386 1.013 3.301 3.301 0 0 1-2.374-.979 3.01 3.01 0 0 1-.687-1.024 3.05 3.05 0 0 1-.244-1.195c0-.398.081-.785.244-1.16a3.55 3.55 0 0 1 .675-1.036 3.25 3.25 0 0 1 1.048-.74 3.285 3.285 0 0 1 1.35-.273c.465 0 .907.09 1.303.261a3.34 3.34 0 0 1 1.047.717c.303.296.536.65.699 1.036.163.364.244.763.244 1.184Z" fill="#000"/></svg>